ISO-10303-21;
HEADER;
/* Generated by software containing ST-Developer
 * from STEP Tools, Inc. (www.steptools.com) 
 */
/* OPTION: using custom renumber hook */

FILE_DESCRIPTION(
/* description */ ('STEP AP242 Edition 2',
'CAx-IF Rec.Pracs.---Representation and Presentation of Product Manufa
cturing Information (PMI)---4.0---2014-10-13',
'CAx-IF Rec.Pracs.---3D Tessellated Geometry---0.4---2014-09-14','2;1',
'CAx-IF Rec.Pracs.---User Defined Attributes---1.5---2016-08-15'),
/* implementation_level */ '2;1');

FILE_NAME(
/* name */ 'Case Parts(V2)',
/* time_stamp */ '2026-08-01T19:26:58Z',
/* author */ (''),
/* organization */ (''),
/* preprocessor_version */ 'ST-DEVELOPER v20',
/* originating_system */ 'ONSHAPE BY PTC INC, 1.218',
/* authorisation */ '  ');

FILE_SCHEMA (('AP242_MANAGED_MODEL_BASED_3D_ENGINEERING_MIM_LF { 1 0 10303 442 3 1 4 }'));
ENDSEC;

DATA;
#10=SHAPE_REPRESENTATION_RELATIONSHIP('','',#1098,#12);
#11=SHAPE_REPRESENTATION_RELATIONSHIP('','',#1099,#13);
#12=ADVANCED_BREP_SHAPE_REPRESENTATION('',(#1094),#1736);
#13=ADVANCED_BREP_SHAPE_REPRESENTATION('',(#1095),#1737);
#14=CYLINDRICAL_SURFACE('',#1117,0.002);
#15=CYLINDRICAL_SURFACE('',#1120,0.002);
#16=CYLINDRICAL_SURFACE('',#1143,0.003005412);
#17=CYLINDRICAL_SURFACE('',#1146,0.003);
#18=CYLINDRICAL_SURFACE('',#1149,0.003);
#19=CYLINDRICAL_SURFACE('',#1168,0.002);
#20=CYLINDRICAL_SURFACE('',#1169,0.002);
#21=LINE('',#1444,#149);
#22=LINE('',#1447,#150);
#23=LINE('',#1449,#151);
#24=LINE('',#1451,#152);
#25=LINE('',#1452,#153);
#26=LINE('',#1455,#154);
#27=LINE('',#1457,#155);
#28=LINE('',#1459,#156);
#29=LINE('',#1461,#157);
#30=LINE('',#1463,#158);
#31=LINE('',#1465,#159);
#32=LINE('',#1467,#160);
#33=LINE('',#1469,#161);
#34=LINE('',#1471,#162);
#35=LINE('',#1473,#163);
#36=LINE('',#1476,#164);
#37=LINE('',#1477,#165);
#38=LINE('',#1479,#166);
#39=LINE('',#1481,#167);
#40=LINE('',#1483,#168);
#41=LINE('',#1485,#169);
#42=LINE('',#1487,#170);
#43=LINE('',#1490,#171);
#44=LINE('',#1492,#172);
#45=LINE('',#1494,#173);
#46=LINE('',#1495,#174);
#47=LINE('',#1497,#175);
#48=LINE('',#1499,#176);
#49=LINE('',#1501,#177);
#50=LINE('',#1503,#178);
#51=LINE('',#1505,#179);
#52=LINE('',#1507,#180);
#53=LINE('',#1508,#181);
#54=LINE('',#1510,#182);
#55=LINE('',#1512,#183);
#56=LINE('',#1514,#184);
#57=LINE('',#1517,#185);
#58=LINE('',#1518,#186);
#59=LINE('',#1520,#187);
#60=LINE('',#1522,#188);
#61=LINE('',#1524,#189);
#62=LINE('',#1526,#190);
#63=LINE('',#1528,#191);
#64=LINE('',#1530,#192);
#65=LINE('',#1532,#193);
#66=LINE('',#1534,#194);
#67=LINE('',#1536,#195);
#68=LINE('',#1538,#196);
#69=LINE('',#1540,#197);
#70=LINE('',#1542,#198);
#71=LINE('',#1544,#199);
#72=LINE('',#1545,#200);
#73=LINE('',#1547,#201);
#74=LINE('',#1549,#202);
#75=LINE('',#1551,#203);
#76=LINE('',#1556,#204);
#77=LINE('',#1561,#205);
#78=LINE('',#1563,#206);
#79=LINE('',#1565,#207);
#80=LINE('',#1567,#208);
#81=LINE('',#1569,#209);
#82=LINE('',#1571,#210);
#83=LINE('',#1573,#211);
#84=LINE('',#1576,#212);
#85=LINE('',#1578,#213);
#86=LINE('',#1580,#214);
#87=LINE('',#1582,#215);
#88=LINE('',#1584,#216);
#89=LINE('',#1586,#217);
#90=LINE('',#1588,#218);
#91=LINE('',#1590,#219);
#92=LINE('',#1592,#220);
#93=LINE('',#1594,#221);
#94=LINE('',#1596,#222);
#95=LINE('',#1600,#223);
#96=LINE('',#1603,#224);
#97=LINE('',#1605,#225);
#98=LINE('',#1607,#226);
#99=LINE('',#1609,#227);
#100=LINE('',#1612,#228);
#101=LINE('',#1614,#229);
#102=LINE('',#1616,#230);
#103=LINE('',#1618,#231);
#104=LINE('',#1620,#232);
#105=LINE('',#1622,#233);
#106=LINE('',#1624,#234);
#107=LINE('',#1626,#235);
#108=LINE('',#1629,#236);
#109=LINE('',#1631,#237);
#110=LINE('',#1633,#238);
#111=LINE('',#1635,#239);
#112=LINE('',#1637,#240);
#113=LINE('',#1639,#241);
#114=LINE('',#1641,#242);
#115=LINE('',#1643,#243);
#116=LINE('',#1645,#244);
#117=LINE('',#1647,#245);
#118=LINE('',#1650,#246);
#119=LINE('',#1652,#247);
#120=LINE('',#1653,#248);
#121=LINE('',#1655,#249);
#122=LINE('',#1657,#250);
#123=LINE('',#1659,#251);
#124=LINE('',#1661,#252);
#125=LINE('',#1663,#253);
#126=LINE('',#1664,#254);
#127=LINE('',#1666,#255);
#128=LINE('',#1668,#256);
#129=LINE('',#1670,#257);
#130=LINE('',#1687,#258);
#131=LINE('',#1688,#259);
#132=LINE('',#1690,#260);
#133=LINE('',#1692,#261);
#134=LINE('',#1693,#262);
#135=LINE('',#1695,#263);
#136=LINE('',#1698,#264);
#137=LINE('',#1700,#265);
#138=LINE('',#1702,#266);
#139=LINE('',#1709,#267);
#140=LINE('',#1710,#268);
#141=LINE('',#1712,#269);
#142=LINE('',#1714,#270);
#143=LINE('',#1715,#271);
#144=LINE('',#1717,#272);
#145=LINE('',#1719,#273);
#146=LINE('',#1721,#274);
#147=LINE('',#1723,#275);
#148=LINE('',#1728,#276);
#149=VECTOR('',#1178,1.);
#150=VECTOR('',#1179,1.);
#151=VECTOR('',#1180,1.);
#152=VECTOR('',#1181,1.);
#153=VECTOR('',#1182,1.);
#154=VECTOR('',#1183,1.);
#155=VECTOR('',#1184,1.);
#156=VECTOR('',#1185,1.);
#157=VECTOR('',#1186,1.);
#158=VECTOR('',#1187,1.);
#159=VECTOR('',#1188,1.);
#160=VECTOR('',#1189,1.);
#161=VECTOR('',#1190,1.);
#162=VECTOR('',#1191,1.);
#163=VECTOR('',#1194,1.);
#164=VECTOR('',#1195,1.);
#165=VECTOR('',#1196,1.);
#166=VECTOR('',#1199,1.);
#167=VECTOR('',#1200,1.);
#168=VECTOR('',#1203,1.);
#169=VECTOR('',#1204,1.);
#170=VECTOR('',#1207,1.);
#171=VECTOR('',#1208,1.);
#172=VECTOR('',#1209,1.);
#173=VECTOR('',#1210,1.);
#174=VECTOR('',#1211,1.);
#175=VECTOR('',#1212,1.);
#176=VECTOR('',#1215,1.);
#177=VECTOR('',#1216,1.);
#178=VECTOR('',#1217,1.);
#179=VECTOR('',#1220,1.);
#180=VECTOR('',#1221,1.);
#181=VECTOR('',#1222,1.);
#182=VECTOR('',#1223,1.);
#183=VECTOR('',#1224,1.);
#184=VECTOR('',#1227,1.);
#185=VECTOR('',#1228,1.);
#186=VECTOR('',#1229,1.);
#187=VECTOR('',#1232,1.);
#188=VECTOR('',#1233,1.);
#189=VECTOR('',#1236,1.);
#190=VECTOR('',#1237,1.);
#191=VECTOR('',#1240,1.);
#192=VECTOR('',#1241,1.);
#193=VECTOR('',#1242,1.);
#194=VECTOR('',#1243,1.);
#195=VECTOR('',#1246,1.);
#196=VECTOR('',#1247,1.);
#197=VECTOR('',#1248,1.);
#198=VECTOR('',#1251,1.);
#199=VECTOR('',#1252,1.);
#200=VECTOR('',#1253,1.);
#201=VECTOR('',#1254,1.);
#202=VECTOR('',#1257,1.);
#203=VECTOR('',#1258,1.);
#204=VECTOR('',#1265,1.);
#205=VECTOR('',#1272,1.);
#206=VECTOR('',#1275,1.);
#207=VECTOR('',#1278,1.);
#208=VECTOR('',#1279,1.);
#209=VECTOR('',#1280,1.);
#210=VECTOR('',#1281,1.);
#211=VECTOR('',#1282,1.);
#212=VECTOR('',#1287,1.);
#213=VECTOR('',#1288,1.);
#214=VECTOR('',#1291,1.);
#215=VECTOR('',#1294,1.);
#216=VECTOR('',#1297,1.);
#217=VECTOR('',#1298,1.);
#218=VECTOR('',#1301,1.);
#219=VECTOR('',#1302,1.);
#220=VECTOR('',#1305,1.);
#221=VECTOR('',#1306,1.);
#222=VECTOR('',#1309,1.);
#223=VECTOR('',#1316,1.);
#224=VECTOR('',#1317,1.);
#225=VECTOR('',#1318,1.);
#226=VECTOR('',#1319,1.);
#227=VECTOR('',#1322,1.);
#228=VECTOR('',#1323,1.);
#229=VECTOR('',#1324,1.);
#230=VECTOR('',#1325,1.);
#231=VECTOR('',#1326,1.);
#232=VECTOR('',#1327,1.);
#233=VECTOR('',#1328,1.);
#234=VECTOR('',#1329,1.);
#235=VECTOR('',#1332,1.);
#236=VECTOR('',#1333,1.);
#237=VECTOR('',#1334,1.);
#238=VECTOR('',#1335,1.);
#239=VECTOR('',#1338,1.);
#240=VECTOR('',#1339,1.);
#241=VECTOR('',#1340,1.);
#242=VECTOR('',#1343,1.);
#243=VECTOR('',#1344,1.);
#244=VECTOR('',#1345,1.);
#245=VECTOR('',#1348,1.);
#246=VECTOR('',#1349,1.);
#247=VECTOR('',#1350,1.);
#248=VECTOR('',#1351,1.);
#249=VECTOR('',#1352,1.);
#250=VECTOR('',#1353,1.);
#251=VECTOR('',#1354,1.);
#252=VECTOR('',#1357,1.);
#253=VECTOR('',#1358,1.);
#254=VECTOR('',#1359,1.);
#255=VECTOR('',#1360,1.);
#256=VECTOR('',#1363,1.);
#257=VECTOR('',#1364,1.);
#258=VECTOR('',#1385,1.);
#259=VECTOR('',#1386,1.);
#260=VECTOR('',#1387,1.);
#261=VECTOR('',#1390,1.);
#262=VECTOR('',#1391,1.);
#263=VECTOR('',#1394,1.);
#264=VECTOR('',#1395,1.);
#265=VECTOR('',#1396,1.);
#266=VECTOR('',#1397,1.);
#267=VECTOR('',#1406,1.);
#268=VECTOR('',#1407,1.);
#269=VECTOR('',#1410,1.);
#270=VECTOR('',#1411,1.);
#271=VECTOR('',#1412,1.);
#272=VECTOR('',#1415,1.);
#273=VECTOR('',#1418,1.);
#274=VECTOR('',#1419,1.);
#275=VECTOR('',#1422,1.);
#276=VECTOR('',#1429,1.);
#277=ORIENTED_EDGE('',*,*,#561,.F.);
#278=ORIENTED_EDGE('',*,*,#562,.F.);
#279=ORIENTED_EDGE('',*,*,#563,.F.);
#280=ORIENTED_EDGE('',*,*,#564,.T.);
#281=ORIENTED_EDGE('',*,*,#565,.T.);
#282=ORIENTED_EDGE('',*,*,#566,.F.);
#283=ORIENTED_EDGE('',*,*,#567,.F.);
#284=ORIENTED_EDGE('',*,*,#568,.T.);
#285=ORIENTED_EDGE('',*,*,#569,.F.);
#286=ORIENTED_EDGE('',*,*,#570,.F.);
#287=ORIENTED_EDGE('',*,*,#571,.T.);
#288=ORIENTED_EDGE('',*,*,#572,.T.);
#289=ORIENTED_EDGE('',*,*,#573,.F.);
#290=ORIENTED_EDGE('',*,*,#574,.F.);
#291=ORIENTED_EDGE('',*,*,#575,.T.);
#292=ORIENTED_EDGE('',*,*,#576,.T.);
#293=ORIENTED_EDGE('',*,*,#577,.F.);
#294=ORIENTED_EDGE('',*,*,#578,.F.);
#295=ORIENTED_EDGE('',*,*,#563,.T.);
#296=ORIENTED_EDGE('',*,*,#579,.T.);
#297=ORIENTED_EDGE('',*,*,#580,.T.);
#298=ORIENTED_EDGE('',*,*,#581,.F.);
#299=ORIENTED_EDGE('',*,*,#564,.F.);
#300=ORIENTED_EDGE('',*,*,#578,.T.);
#301=ORIENTED_EDGE('',*,*,#582,.T.);
#302=ORIENTED_EDGE('',*,*,#583,.F.);
#303=ORIENTED_EDGE('',*,*,#565,.F.);
#304=ORIENTED_EDGE('',*,*,#581,.T.);
#305=ORIENTED_EDGE('',*,*,#584,.F.);
#306=ORIENTED_EDGE('',*,*,#585,.F.);
#307=ORIENTED_EDGE('',*,*,#586,.F.);
#308=ORIENTED_EDGE('',*,*,#587,.T.);
#309=ORIENTED_EDGE('',*,*,#571,.F.);
#310=ORIENTED_EDGE('',*,*,#588,.T.);
#311=ORIENTED_EDGE('',*,*,#589,.T.);
#312=ORIENTED_EDGE('',*,*,#590,.T.);
#313=ORIENTED_EDGE('',*,*,#591,.F.);
#314=ORIENTED_EDGE('',*,*,#592,.F.);
#315=ORIENTED_EDGE('',*,*,#584,.T.);
#316=ORIENTED_EDGE('',*,*,#591,.T.);
#317=ORIENTED_EDGE('',*,*,#593,.F.);
#318=ORIENTED_EDGE('',*,*,#594,.F.);
#319=ORIENTED_EDGE('',*,*,#569,.T.);
#320=ORIENTED_EDGE('',*,*,#595,.F.);
#321=ORIENTED_EDGE('',*,*,#596,.T.);
#322=ORIENTED_EDGE('',*,*,#597,.T.);
#323=ORIENTED_EDGE('',*,*,#598,.T.);
#324=ORIENTED_EDGE('',*,*,#599,.F.);
#325=ORIENTED_EDGE('',*,*,#575,.F.);
#326=ORIENTED_EDGE('',*,*,#600,.T.);
#327=ORIENTED_EDGE('',*,*,#601,.T.);
#328=ORIENTED_EDGE('',*,*,#602,.F.);
#329=ORIENTED_EDGE('',*,*,#576,.F.);
#330=ORIENTED_EDGE('',*,*,#599,.T.);
#331=ORIENTED_EDGE('',*,*,#603,.F.);
#332=ORIENTED_EDGE('',*,*,#604,.F.);
#333=ORIENTED_EDGE('',*,*,#567,.T.);
#334=ORIENTED_EDGE('',*,*,#602,.T.);
#335=ORIENTED_EDGE('',*,*,#605,.T.);
#336=ORIENTED_EDGE('',*,*,#606,.F.);
#337=ORIENTED_EDGE('',*,*,#607,.F.);
#338=ORIENTED_EDGE('',*,*,#608,.T.);
#339=ORIENTED_EDGE('',*,*,#604,.T.);
#340=ORIENTED_EDGE('',*,*,#609,.F.);
#341=ORIENTED_EDGE('',*,*,#610,.F.);
#342=ORIENTED_EDGE('',*,*,#611,.T.);
#343=ORIENTED_EDGE('',*,*,#606,.T.);
#344=ORIENTED_EDGE('',*,*,#612,.F.);
#345=ORIENTED_EDGE('',*,*,#613,.F.);
#346=ORIENTED_EDGE('',*,*,#614,.F.);
#347=ORIENTED_EDGE('',*,*,#615,.T.);
#348=ORIENTED_EDGE('',*,*,#610,.T.);
#349=ORIENTED_EDGE('',*,*,#616,.F.);
#350=ORIENTED_EDGE('',*,*,#617,.F.);
#351=ORIENTED_EDGE('',*,*,#573,.T.);
#352=ORIENTED_EDGE('',*,*,#613,.T.);
#353=ORIENTED_EDGE('',*,*,#562,.T.);
#354=ORIENTED_EDGE('',*,*,#618,.F.);
#355=ORIENTED_EDGE('',*,*,#619,.F.);
#356=ORIENTED_EDGE('',*,*,#588,.F.);
#357=ORIENTED_EDGE('',*,*,#570,.T.);
#358=ORIENTED_EDGE('',*,*,#594,.T.);
#359=ORIENTED_EDGE('',*,*,#561,.T.);
#360=ORIENTED_EDGE('',*,*,#620,.F.);
#361=ORIENTED_EDGE('',*,*,#621,.F.);
#362=ORIENTED_EDGE('',*,*,#600,.F.);
#363=ORIENTED_EDGE('',*,*,#574,.T.);
#364=ORIENTED_EDGE('',*,*,#617,.T.);
#365=ORIENTED_EDGE('',*,*,#622,.F.);
#366=ORIENTED_EDGE('',*,*,#579,.F.);
#367=ORIENTED_EDGE('',*,*,#566,.T.);
#368=ORIENTED_EDGE('',*,*,#583,.T.);
#369=ORIENTED_EDGE('',*,*,#623,.F.);
#370=ORIENTED_EDGE('',*,*,#624,.F.);
#371=ORIENTED_EDGE('',*,*,#625,.T.);
#372=ORIENTED_EDGE('',*,*,#626,.T.);
#373=ORIENTED_EDGE('',*,*,#627,.F.);
#374=ORIENTED_EDGE('',*,*,#592,.T.);
#375=ORIENTED_EDGE('',*,*,#590,.F.);
#376=ORIENTED_EDGE('',*,*,#589,.F.);
#377=ORIENTED_EDGE('',*,*,#619,.T.);
#378=ORIENTED_EDGE('',*,*,#593,.T.);
#379=ORIENTED_EDGE('',*,*,#616,.T.);
#380=ORIENTED_EDGE('',*,*,#612,.T.);
#381=ORIENTED_EDGE('',*,*,#609,.T.);
#382=ORIENTED_EDGE('',*,*,#605,.F.);
#383=ORIENTED_EDGE('',*,*,#603,.T.);
#384=ORIENTED_EDGE('',*,*,#601,.F.);
#385=ORIENTED_EDGE('',*,*,#598,.F.);
#386=ORIENTED_EDGE('',*,*,#621,.T.);
#387=ORIENTED_EDGE('',*,*,#620,.T.);
#388=ORIENTED_EDGE('',*,*,#618,.T.);
#389=ORIENTED_EDGE('',*,*,#577,.T.);
#390=ORIENTED_EDGE('',*,*,#622,.T.);
#391=ORIENTED_EDGE('',*,*,#582,.F.);
#392=ORIENTED_EDGE('',*,*,#580,.F.);
#393=ORIENTED_EDGE('',*,*,#628,.T.);
#394=ORIENTED_EDGE('',*,*,#623,.T.);
#395=ORIENTED_EDGE('',*,*,#597,.F.);
#396=ORIENTED_EDGE('',*,*,#629,.T.);
#397=ORIENTED_EDGE('',*,*,#568,.F.);
#398=ORIENTED_EDGE('',*,*,#608,.F.);
#399=ORIENTED_EDGE('',*,*,#630,.F.);
#400=ORIENTED_EDGE('',*,*,#595,.T.);
#401=ORIENTED_EDGE('',*,*,#572,.F.);
#402=ORIENTED_EDGE('',*,*,#587,.F.);
#403=ORIENTED_EDGE('',*,*,#631,.F.);
#404=ORIENTED_EDGE('',*,*,#614,.T.);
#405=ORIENTED_EDGE('',*,*,#585,.T.);
#406=ORIENTED_EDGE('',*,*,#627,.T.);
#407=ORIENTED_EDGE('',*,*,#632,.F.);
#408=ORIENTED_EDGE('',*,*,#633,.T.);
#409=ORIENTED_EDGE('',*,*,#626,.F.);
#410=ORIENTED_EDGE('',*,*,#634,.F.);
#411=ORIENTED_EDGE('',*,*,#635,.F.);
#412=ORIENTED_EDGE('',*,*,#632,.T.);
#413=ORIENTED_EDGE('',*,*,#625,.F.);
#414=ORIENTED_EDGE('',*,*,#636,.F.);
#415=ORIENTED_EDGE('',*,*,#637,.F.);
#416=ORIENTED_EDGE('',*,*,#634,.T.);
#417=ORIENTED_EDGE('',*,*,#636,.T.);
#418=ORIENTED_EDGE('',*,*,#624,.T.);
#419=ORIENTED_EDGE('',*,*,#628,.F.);
#420=ORIENTED_EDGE('',*,*,#638,.T.);
#421=ORIENTED_EDGE('',*,*,#629,.F.);
#422=ORIENTED_EDGE('',*,*,#596,.F.);
#423=ORIENTED_EDGE('',*,*,#630,.T.);
#424=ORIENTED_EDGE('',*,*,#607,.T.);
#425=ORIENTED_EDGE('',*,*,#611,.F.);
#426=ORIENTED_EDGE('',*,*,#615,.F.);
#427=ORIENTED_EDGE('',*,*,#631,.T.);
#428=ORIENTED_EDGE('',*,*,#586,.T.);
#429=ORIENTED_EDGE('',*,*,#633,.F.);
#430=ORIENTED_EDGE('',*,*,#635,.T.);
#431=ORIENTED_EDGE('',*,*,#637,.T.);
#432=ORIENTED_EDGE('',*,*,#638,.F.);
#433=ORIENTED_EDGE('',*,*,#639,.F.);
#434=ORIENTED_EDGE('',*,*,#640,.T.);
#435=ORIENTED_EDGE('',*,*,#641,.T.);
#436=ORIENTED_EDGE('',*,*,#642,.F.);
#437=ORIENTED_EDGE('',*,*,#643,.F.);
#438=ORIENTED_EDGE('',*,*,#644,.T.);
#439=ORIENTED_EDGE('',*,*,#645,.T.);
#440=ORIENTED_EDGE('',*,*,#646,.F.);
#441=ORIENTED_EDGE('',*,*,#647,.F.);
#442=ORIENTED_EDGE('',*,*,#648,.T.);
#443=ORIENTED_EDGE('',*,*,#649,.F.);
#444=ORIENTED_EDGE('',*,*,#650,.F.);
#445=ORIENTED_EDGE('',*,*,#651,.F.);
#446=ORIENTED_EDGE('',*,*,#652,.F.);
#447=ORIENTED_EDGE('',*,*,#653,.T.);
#448=ORIENTED_EDGE('',*,*,#654,.T.);
#449=ORIENTED_EDGE('',*,*,#655,.T.);
#450=ORIENTED_EDGE('',*,*,#656,.F.);
#451=ORIENTED_EDGE('',*,*,#657,.F.);
#452=ORIENTED_EDGE('',*,*,#652,.T.);
#453=ORIENTED_EDGE('',*,*,#658,.T.);
#454=ORIENTED_EDGE('',*,*,#659,.F.);
#455=ORIENTED_EDGE('',*,*,#660,.F.);
#456=ORIENTED_EDGE('',*,*,#656,.T.);
#457=ORIENTED_EDGE('',*,*,#661,.F.);
#458=ORIENTED_EDGE('',*,*,#662,.F.);
#459=ORIENTED_EDGE('',*,*,#663,.T.);
#460=ORIENTED_EDGE('',*,*,#640,.F.);
#461=ORIENTED_EDGE('',*,*,#664,.F.);
#462=ORIENTED_EDGE('',*,*,#665,.F.);
#463=ORIENTED_EDGE('',*,*,#666,.T.);
#464=ORIENTED_EDGE('',*,*,#667,.T.);
#465=ORIENTED_EDGE('',*,*,#648,.F.);
#466=ORIENTED_EDGE('',*,*,#668,.F.);
#467=ORIENTED_EDGE('',*,*,#669,.F.);
#468=ORIENTED_EDGE('',*,*,#661,.T.);
#469=ORIENTED_EDGE('',*,*,#670,.T.);
#470=ORIENTED_EDGE('',*,*,#671,.F.);
#471=ORIENTED_EDGE('',*,*,#672,.F.);
#472=ORIENTED_EDGE('',*,*,#673,.F.);
#473=ORIENTED_EDGE('',*,*,#649,.T.);
#474=ORIENTED_EDGE('',*,*,#671,.T.);
#475=ORIENTED_EDGE('',*,*,#674,.T.);
#476=ORIENTED_EDGE('',*,*,#675,.F.);
#477=ORIENTED_EDGE('',*,*,#676,.T.);
#478=ORIENTED_EDGE('',*,*,#677,.F.);
#479=ORIENTED_EDGE('',*,*,#678,.T.);
#480=ORIENTED_EDGE('',*,*,#679,.F.);
#481=ORIENTED_EDGE('',*,*,#673,.T.);
#482=ORIENTED_EDGE('',*,*,#680,.F.);
#483=ORIENTED_EDGE('',*,*,#666,.F.);
#484=ORIENTED_EDGE('',*,*,#681,.T.);
#485=ORIENTED_EDGE('',*,*,#682,.T.);
#486=ORIENTED_EDGE('',*,*,#650,.T.);
#487=ORIENTED_EDGE('',*,*,#683,.F.);
#488=ORIENTED_EDGE('',*,*,#654,.F.);
#489=ORIENTED_EDGE('',*,*,#684,.T.);
#490=ORIENTED_EDGE('',*,*,#659,.T.);
#491=ORIENTED_EDGE('',*,*,#685,.F.);
#492=ORIENTED_EDGE('',*,*,#686,.F.);
#493=ORIENTED_EDGE('',*,*,#687,.T.);
#494=ORIENTED_EDGE('',*,*,#688,.T.);
#495=ORIENTED_EDGE('',*,*,#678,.F.);
#496=ORIENTED_EDGE('',*,*,#676,.F.);
#497=ORIENTED_EDGE('',*,*,#674,.F.);
#498=ORIENTED_EDGE('',*,*,#653,.F.);
#499=ORIENTED_EDGE('',*,*,#657,.T.);
#500=ORIENTED_EDGE('',*,*,#660,.T.);
#501=ORIENTED_EDGE('',*,*,#684,.F.);
#502=ORIENTED_EDGE('',*,*,#689,.T.);
#503=ORIENTED_EDGE('',*,*,#690,.T.);
#504=ORIENTED_EDGE('',*,*,#670,.F.);
#505=ORIENTED_EDGE('',*,*,#667,.F.);
#506=ORIENTED_EDGE('',*,*,#680,.T.);
#507=ORIENTED_EDGE('',*,*,#672,.T.);
#508=ORIENTED_EDGE('',*,*,#651,.T.);
#509=ORIENTED_EDGE('',*,*,#683,.T.);
#510=ORIENTED_EDGE('',*,*,#658,.F.);
#511=ORIENTED_EDGE('',*,*,#655,.F.);
#512=ORIENTED_EDGE('',*,*,#675,.T.);
#513=ORIENTED_EDGE('',*,*,#677,.T.);
#514=ORIENTED_EDGE('',*,*,#679,.T.);
#515=ORIENTED_EDGE('',*,*,#691,.T.);
#516=ORIENTED_EDGE('',*,*,#685,.T.);
#517=ORIENTED_EDGE('',*,*,#692,.F.);
#518=ORIENTED_EDGE('',*,*,#642,.T.);
#519=ORIENTED_EDGE('',*,*,#644,.F.);
#520=ORIENTED_EDGE('',*,*,#693,.F.);
#521=ORIENTED_EDGE('',*,*,#694,.T.);
#522=ORIENTED_EDGE('',*,*,#664,.T.);
#523=ORIENTED_EDGE('',*,*,#639,.T.);
#524=ORIENTED_EDGE('',*,*,#692,.T.);
#525=ORIENTED_EDGE('',*,*,#688,.F.);
#526=ORIENTED_EDGE('',*,*,#695,.F.);
#527=ORIENTED_EDGE('',*,*,#687,.F.);
#528=ORIENTED_EDGE('',*,*,#696,.F.);
#529=ORIENTED_EDGE('',*,*,#645,.F.);
#530=ORIENTED_EDGE('',*,*,#695,.T.);
#531=ORIENTED_EDGE('',*,*,#686,.T.);
#532=ORIENTED_EDGE('',*,*,#691,.F.);
#533=ORIENTED_EDGE('',*,*,#641,.F.);
#534=ORIENTED_EDGE('',*,*,#663,.F.);
#535=ORIENTED_EDGE('',*,*,#697,.F.);
#536=ORIENTED_EDGE('',*,*,#698,.T.);
#537=ORIENTED_EDGE('',*,*,#646,.T.);
#538=ORIENTED_EDGE('',*,*,#696,.T.);
#539=ORIENTED_EDGE('',*,*,#668,.T.);
#540=ORIENTED_EDGE('',*,*,#647,.T.);
#541=ORIENTED_EDGE('',*,*,#698,.F.);
#542=ORIENTED_EDGE('',*,*,#699,.T.);
#543=ORIENTED_EDGE('',*,*,#700,.F.);
#544=ORIENTED_EDGE('',*,*,#697,.T.);
#545=ORIENTED_EDGE('',*,*,#662,.T.);
#546=ORIENTED_EDGE('',*,*,#669,.T.);
#547=ORIENTED_EDGE('',*,*,#699,.F.);
#548=ORIENTED_EDGE('',*,*,#693,.T.);
#549=ORIENTED_EDGE('',*,*,#643,.T.);
#550=ORIENTED_EDGE('',*,*,#682,.F.);
#551=ORIENTED_EDGE('',*,*,#701,.T.);
#552=ORIENTED_EDGE('',*,*,#702,.F.);
#553=ORIENTED_EDGE('',*,*,#694,.F.);
#554=ORIENTED_EDGE('',*,*,#701,.F.);
#555=ORIENTED_EDGE('',*,*,#681,.F.);
#556=ORIENTED_EDGE('',*,*,#665,.T.);
#557=ORIENTED_EDGE('',*,*,#702,.T.);
#558=ORIENTED_EDGE('',*,*,#690,.F.);
#559=ORIENTED_EDGE('',*,*,#700,.T.);
#560=ORIENTED_EDGE('',*,*,#689,.F.);
#561=EDGE_CURVE('',#703,#703,#801,.T.);
#562=EDGE_CURVE('',#704,#704,#802,.T.);
#563=EDGE_CURVE('',#705,#706,#21,.T.);
#564=EDGE_CURVE('',#705,#707,#22,.T.);
#565=EDGE_CURVE('',#707,#708,#23,.T.);
#566=EDGE_CURVE('',#706,#708,#24,.T.);
#567=EDGE_CURVE('',#709,#710,#25,.T.);
#568=EDGE_CURVE('',#709,#711,#26,.T.);
#569=EDGE_CURVE('',#712,#711,#27,.T.);
#570=EDGE_CURVE('',#713,#712,#28,.T.);
#571=EDGE_CURVE('',#713,#714,#29,.T.);
#572=EDGE_CURVE('',#714,#715,#30,.T.);
#573=EDGE_CURVE('',#716,#715,#31,.T.);
#574=EDGE_CURVE('',#717,#716,#32,.T.);
#575=EDGE_CURVE('',#717,#718,#33,.T.);
#576=EDGE_CURVE('',#718,#710,#34,.T.);
#577=EDGE_CURVE('',#719,#720,#35,.T.);
#578=EDGE_CURVE('',#705,#719,#36,.T.);
#579=EDGE_CURVE('',#706,#720,#37,.T.);
#580=EDGE_CURVE('',#719,#721,#38,.T.);
#581=EDGE_CURVE('',#707,#721,#39,.T.);
#582=EDGE_CURVE('',#721,#722,#40,.T.);
#583=EDGE_CURVE('',#708,#722,#41,.T.);
#584=EDGE_CURVE('',#723,#724,#42,.T.);
#585=EDGE_CURVE('',#725,#723,#43,.T.);
#586=EDGE_CURVE('',#726,#725,#44,.T.);
#587=EDGE_CURVE('',#726,#714,#45,.T.);
#588=EDGE_CURVE('',#713,#727,#46,.T.);
#589=EDGE_CURVE('',#727,#724,#47,.T.);
#590=EDGE_CURVE('',#724,#728,#48,.T.);
#591=EDGE_CURVE('',#729,#728,#49,.T.);
#592=EDGE_CURVE('',#723,#729,#50,.T.);
#593=EDGE_CURVE('',#730,#728,#51,.T.);
#594=EDGE_CURVE('',#712,#730,#52,.T.);
#595=EDGE_CURVE('',#731,#711,#53,.T.);
#596=EDGE_CURVE('',#731,#732,#54,.T.);
#597=EDGE_CURVE('',#732,#729,#55,.T.);
#598=EDGE_CURVE('',#733,#734,#56,.T.);
#599=EDGE_CURVE('',#718,#734,#57,.T.);
#600=EDGE_CURVE('',#717,#733,#58,.T.);
#601=EDGE_CURVE('',#734,#735,#59,.T.);
#602=EDGE_CURVE('',#710,#735,#60,.T.);
#603=EDGE_CURVE('',#736,#735,#61,.T.);
#604=EDGE_CURVE('',#709,#736,#62,.T.);
#605=EDGE_CURVE('',#736,#737,#63,.T.);
#606=EDGE_CURVE('',#738,#737,#64,.T.);
#607=EDGE_CURVE('',#739,#738,#65,.T.);
#608=EDGE_CURVE('',#739,#709,#66,.T.);
#609=EDGE_CURVE('',#740,#737,#67,.T.);
#610=EDGE_CURVE('',#741,#740,#68,.T.);
#611=EDGE_CURVE('',#741,#738,#69,.T.);
#612=EDGE_CURVE('',#742,#740,#70,.T.);
#613=EDGE_CURVE('',#715,#742,#71,.T.);
#614=EDGE_CURVE('',#743,#715,#72,.T.);
#615=EDGE_CURVE('',#743,#741,#73,.T.);
#616=EDGE_CURVE('',#744,#742,#74,.T.);
#617=EDGE_CURVE('',#716,#744,#75,.T.);
#618=EDGE_CURVE('',#745,#745,#803,.T.);
#619=EDGE_CURVE('',#727,#730,#76,.T.);
#620=EDGE_CURVE('',#746,#746,#804,.T.);
#621=EDGE_CURVE('',#733,#744,#77,.T.);
#622=EDGE_CURVE('',#720,#722,#78,.T.);
#623=EDGE_CURVE('',#747,#729,#79,.T.);
#624=EDGE_CURVE('',#748,#747,#80,.T.);
#625=EDGE_CURVE('',#748,#749,#81,.T.);
#626=EDGE_CURVE('',#749,#750,#82,.T.);
#627=EDGE_CURVE('',#723,#750,#83,.T.);
#628=EDGE_CURVE('',#751,#747,#84,.T.);
#629=EDGE_CURVE('',#732,#751,#85,.T.);
#630=EDGE_CURVE('',#731,#739,#86,.T.);
#631=EDGE_CURVE('',#743,#726,#87,.T.);
#632=EDGE_CURVE('',#752,#750,#88,.T.);
#633=EDGE_CURVE('',#752,#725,#89,.T.);
#634=EDGE_CURVE('',#753,#749,#90,.T.);
#635=EDGE_CURVE('',#752,#753,#91,.T.);
#636=EDGE_CURVE('',#754,#748,#92,.T.);
#637=EDGE_CURVE('',#753,#754,#93,.T.);
#638=EDGE_CURVE('',#751,#754,#94,.T.);
#639=EDGE_CURVE('',#755,#756,#95,.T.);
#640=EDGE_CURVE('',#755,#757,#96,.T.);
#641=EDGE_CURVE('',#757,#758,#97,.T.);
#642=EDGE_CURVE('',#756,#758,#98,.T.);
#643=EDGE_CURVE('',#759,#760,#99,.T.);
#644=EDGE_CURVE('',#759,#761,#100,.T.);
#645=EDGE_CURVE('',#761,#762,#101,.T.);
#646=EDGE_CURVE('',#763,#762,#102,.T.);
#647=EDGE_CURVE('',#764,#763,#103,.T.);
#648=EDGE_CURVE('',#764,#765,#104,.T.);
#649=EDGE_CURVE('',#766,#765,#105,.T.);
#650=EDGE_CURVE('',#760,#766,#106,.T.);
#651=EDGE_CURVE('',#767,#768,#107,.T.);
#652=EDGE_CURVE('',#769,#767,#108,.T.);
#653=EDGE_CURVE('',#769,#770,#109,.T.);
#654=EDGE_CURVE('',#770,#768,#110,.T.);
#655=EDGE_CURVE('',#767,#771,#111,.T.);
#656=EDGE_CURVE('',#772,#771,#112,.T.);
#657=EDGE_CURVE('',#769,#772,#113,.T.);
#658=EDGE_CURVE('',#771,#773,#114,.T.);
#659=EDGE_CURVE('',#774,#773,#115,.T.);
#660=EDGE_CURVE('',#772,#774,#116,.T.);
#661=EDGE_CURVE('',#775,#776,#117,.T.);
#662=EDGE_CURVE('',#777,#775,#118,.T.);
#663=EDGE_CURVE('',#777,#757,#119,.T.);
#664=EDGE_CURVE('',#778,#755,#120,.T.);
#665=EDGE_CURVE('',#779,#778,#121,.T.);
#666=EDGE_CURVE('',#779,#780,#122,.T.);
#667=EDGE_CURVE('',#780,#776,#123,.T.);
#668=EDGE_CURVE('',#781,#764,#124,.T.);
#669=EDGE_CURVE('',#775,#781,#125,.T.);
#670=EDGE_CURVE('',#776,#782,#126,.T.);
#671=EDGE_CURVE('',#765,#782,#127,.T.);
#672=EDGE_CURVE('',#783,#782,#128,.T.);
#673=EDGE_CURVE('',#766,#783,#129,.T.);
#674=EDGE_CURVE('',#784,#784,#805,.T.);
#675=EDGE_CURVE('',#785,#785,#806,.T.);
#676=EDGE_CURVE('',#786,#786,#807,.T.);
#677=EDGE_CURVE('',#787,#787,#808,.T.);
#678=EDGE_CURVE('',#788,#788,#809,.T.);
#679=EDGE_CURVE('',#789,#789,#810,.T.);
#680=EDGE_CURVE('',#780,#783,#130,.T.);
#681=EDGE_CURVE('',#779,#790,#131,.T.);
#682=EDGE_CURVE('',#790,#760,#132,.T.);
#683=EDGE_CURVE('',#768,#773,#133,.T.);
#684=EDGE_CURVE('',#770,#774,#134,.T.);
#685=EDGE_CURVE('',#791,#792,#135,.T.);
#686=EDGE_CURVE('',#793,#791,#136,.T.);
#687=EDGE_CURVE('',#793,#794,#137,.T.);
#688=EDGE_CURVE('',#794,#792,#138,.T.);
#689=EDGE_CURVE('',#795,#795,#811,.T.);
#690=EDGE_CURVE('',#796,#796,#812,.T.);
#691=EDGE_CURVE('',#758,#791,#139,.T.);
#692=EDGE_CURVE('',#756,#792,#140,.T.);
#693=EDGE_CURVE('',#797,#759,#141,.T.);
#694=EDGE_CURVE('',#797,#778,#142,.T.);
#695=EDGE_CURVE('',#761,#794,#143,.T.);
#696=EDGE_CURVE('',#762,#793,#144,.T.);
#697=EDGE_CURVE('',#798,#777,#145,.T.);
#698=EDGE_CURVE('',#798,#763,#146,.T.);
#699=EDGE_CURVE('',#798,#781,#147,.T.);
#700=EDGE_CURVE('',#799,#799,#813,.T.);
#701=EDGE_CURVE('',#790,#797,#148,.T.);
#702=EDGE_CURVE('',#800,#800,#814,.T.);
#703=VERTEX_POINT('',#1441);
#704=VERTEX_POINT('',#1443);
#705=VERTEX_POINT('',#1445);
#706=VERTEX_POINT('',#1446);
#707=VERTEX_POINT('',#1448);
#708=VERTEX_POINT('',#1450);
#709=VERTEX_POINT('',#1453);
#710=VERTEX_POINT('',#1454);
#711=VERTEX_POINT('',#1456);
#712=VERTEX_POINT('',#1458);
#713=VERTEX_POINT('',#1460);
#714=VERTEX_POINT('',#1462);
#715=VERTEX_POINT('',#1464);
#716=VERTEX_POINT('',#1466);
#717=VERTEX_POINT('',#1468);
#718=VERTEX_POINT('',#1470);
#719=VERTEX_POINT('',#1474);
#720=VERTEX_POINT('',#1475);
#721=VERTEX_POINT('',#1480);
#722=VERTEX_POINT('',#1484);
#723=VERTEX_POINT('',#1488);
#724=VERTEX_POINT('',#1489);
#725=VERTEX_POINT('',#1491);
#726=VERTEX_POINT('',#1493);
#727=VERTEX_POINT('',#1496);
#728=VERTEX_POINT('',#1500);
#729=VERTEX_POINT('',#1502);
#730=VERTEX_POINT('',#1506);
#731=VERTEX_POINT('',#1509);
#732=VERTEX_POINT('',#1511);
#733=VERTEX_POINT('',#1515);
#734=VERTEX_POINT('',#1516);
#735=VERTEX_POINT('',#1521);
#736=VERTEX_POINT('',#1525);
#737=VERTEX_POINT('',#1529);
#738=VERTEX_POINT('',#1531);
#739=VERTEX_POINT('',#1533);
#740=VERTEX_POINT('',#1537);
#741=VERTEX_POINT('',#1539);
#742=VERTEX_POINT('',#1543);
#743=VERTEX_POINT('',#1546);
#744=VERTEX_POINT('',#1550);
#745=VERTEX_POINT('',#1554);
#746=VERTEX_POINT('',#1559);
#747=VERTEX_POINT('',#1566);
#748=VERTEX_POINT('',#1568);
#749=VERTEX_POINT('',#1570);
#750=VERTEX_POINT('',#1572);
#751=VERTEX_POINT('',#1577);
#752=VERTEX_POINT('',#1585);
#753=VERTEX_POINT('',#1589);
#754=VERTEX_POINT('',#1593);
#755=VERTEX_POINT('',#1601);
#756=VERTEX_POINT('',#1602);
#757=VERTEX_POINT('',#1604);
#758=VERTEX_POINT('',#1606);
#759=VERTEX_POINT('',#1610);
#760=VERTEX_POINT('',#1611);
#761=VERTEX_POINT('',#1613);
#762=VERTEX_POINT('',#1615);
#763=VERTEX_POINT('',#1617);
#764=VERTEX_POINT('',#1619);
#765=VERTEX_POINT('',#1621);
#766=VERTEX_POINT('',#1623);
#767=VERTEX_POINT('',#1627);
#768=VERTEX_POINT('',#1628);
#769=VERTEX_POINT('',#1630);
#770=VERTEX_POINT('',#1632);
#771=VERTEX_POINT('',#1636);
#772=VERTEX_POINT('',#1638);
#773=VERTEX_POINT('',#1642);
#774=VERTEX_POINT('',#1644);
#775=VERTEX_POINT('',#1648);
#776=VERTEX_POINT('',#1649);
#777=VERTEX_POINT('',#1651);
#778=VERTEX_POINT('',#1654);
#779=VERTEX_POINT('',#1656);
#780=VERTEX_POINT('',#1658);
#781=VERTEX_POINT('',#1662);
#782=VERTEX_POINT('',#1665);
#783=VERTEX_POINT('',#1669);
#784=VERTEX_POINT('',#1673);
#785=VERTEX_POINT('',#1675);
#786=VERTEX_POINT('',#1678);
#787=VERTEX_POINT('',#1680);
#788=VERTEX_POINT('',#1683);
#789=VERTEX_POINT('',#1685);
#790=VERTEX_POINT('',#1689);
#791=VERTEX_POINT('',#1696);
#792=VERTEX_POINT('',#1697);
#793=VERTEX_POINT('',#1699);
#794=VERTEX_POINT('',#1701);
#795=VERTEX_POINT('',#1705);
#796=VERTEX_POINT('',#1707);
#797=VERTEX_POINT('',#1713);
#798=VERTEX_POINT('',#1720);
#799=VERTEX_POINT('',#1726);
#800=VERTEX_POINT('',#1731);
#801=CIRCLE('',#1102,0.002);
#802=CIRCLE('',#1103,0.002);
#803=CIRCLE('',#1118,0.002);
#804=CIRCLE('',#1121,0.002);
#805=CIRCLE('',#1144,0.003005412);
#806=CIRCLE('',#1145,0.003005412);
#807=CIRCLE('',#1147,0.003);
#808=CIRCLE('',#1148,0.003);
#809=CIRCLE('',#1150,0.003);
#810=CIRCLE('',#1151,0.003);
#811=CIRCLE('',#1156,0.002);
#812=CIRCLE('',#1157,0.002);
#813=CIRCLE('',#1164,0.002);
#814=CIRCLE('',#1167,0.002);
#815=EDGE_LOOP('',(#277));
#816=EDGE_LOOP('',(#278));
#817=EDGE_LOOP('',(#279,#280,#281,#282));
#818=EDGE_LOOP('',(#283,#284,#285,#286,#287,#288,#289,#290,#291,#292));
#819=EDGE_LOOP('',(#293,#294,#295,#296));
#820=EDGE_LOOP('',(#297,#298,#299,#300));
#821=EDGE_LOOP('',(#301,#302,#303,#304));
#822=EDGE_LOOP('',(#305,#306,#307,#308,#309,#310,#311));
#823=EDGE_LOOP('',(#312,#313,#314,#315));
#824=EDGE_LOOP('',(#316,#317,#318,#319,#320,#321,#322));
#825=EDGE_LOOP('',(#323,#324,#325,#326));
#826=EDGE_LOOP('',(#327,#328,#329,#330));
#827=EDGE_LOOP('',(#331,#332,#333,#334));
#828=EDGE_LOOP('',(#335,#336,#337,#338,#339));
#829=EDGE_LOOP('',(#340,#341,#342,#343));
#830=EDGE_LOOP('',(#344,#345,#346,#347,#348));
#831=EDGE_LOOP('',(#349,#350,#351,#352));
#832=EDGE_LOOP('',(#353));
#833=EDGE_LOOP('',(#354));
#834=EDGE_LOOP('',(#355,#356,#357,#358));
#835=EDGE_LOOP('',(#359));
#836=EDGE_LOOP('',(#360));
#837=EDGE_LOOP('',(#361,#362,#363,#364));
#838=EDGE_LOOP('',(#365,#366,#367,#368));
#839=EDGE_LOOP('',(#369,#370,#371,#372,#373,#374));
#840=EDGE_LOOP('',(#375,#376,#377,#378));
#841=EDGE_LOOP('',(#379,#380,#381,#382,#383,#384,#385,#386));
#842=EDGE_LOOP('',(#387));
#843=EDGE_LOOP('',(#388));
#844=EDGE_LOOP('',(#389,#390,#391,#392));
#845=EDGE_LOOP('',(#393,#394,#395,#396));
#846=EDGE_LOOP('',(#397,#398,#399,#400));
#847=EDGE_LOOP('',(#401,#402,#403,#404));
#848=EDGE_LOOP('',(#405,#406,#407,#408));
#849=EDGE_LOOP('',(#409,#410,#411,#412));
#850=EDGE_LOOP('',(#413,#414,#415,#416));
#851=EDGE_LOOP('',(#417,#418,#419,#420));
#852=EDGE_LOOP('',(#421,#422,#423,#424,#425,#426,#427,#428,#429,#430,#431,
#432));
#853=EDGE_LOOP('',(#433,#434,#435,#436));
#854=EDGE_LOOP('',(#437,#438,#439,#440,#441,#442,#443,#444));
#855=EDGE_LOOP('',(#445,#446,#447,#448));
#856=EDGE_LOOP('',(#449,#450,#451,#452));
#857=EDGE_LOOP('',(#453,#454,#455,#456));
#858=EDGE_LOOP('',(#457,#458,#459,#460,#461,#462,#463,#464));
#859=EDGE_LOOP('',(#465,#466,#467,#468,#469,#470));
#860=EDGE_LOOP('',(#471,#472,#473,#474));
#861=EDGE_LOOP('',(#475));
#862=EDGE_LOOP('',(#476));
#863=EDGE_LOOP('',(#477));
#864=EDGE_LOOP('',(#478));
#865=EDGE_LOOP('',(#479));
#866=EDGE_LOOP('',(#480));
#867=EDGE_LOOP('',(#481,#482,#483,#484,#485,#486));
#868=EDGE_LOOP('',(#487,#488,#489,#490));
#869=EDGE_LOOP('',(#491,#492,#493,#494));
#870=EDGE_LOOP('',(#495));
#871=EDGE_LOOP('',(#496));
#872=EDGE_LOOP('',(#497));
#873=EDGE_LOOP('',(#498,#499,#500,#501));
#874=EDGE_LOOP('',(#502));
#875=EDGE_LOOP('',(#503));
#876=EDGE_LOOP('',(#504,#505,#506,#507));
#877=EDGE_LOOP('',(#508,#509,#510,#511));
#878=EDGE_LOOP('',(#512));
#879=EDGE_LOOP('',(#513));
#880=EDGE_LOOP('',(#514));
#881=EDGE_LOOP('',(#515,#516,#517,#518));
#882=EDGE_LOOP('',(#519,#520,#521,#522,#523,#524,#525,#526));
#883=EDGE_LOOP('',(#527,#528,#529,#530));
#884=EDGE_LOOP('',(#531,#532,#533,#534,#535,#536,#537,#538));
#885=EDGE_LOOP('',(#539,#540,#541,#542));
#886=EDGE_LOOP('',(#543));
#887=EDGE_LOOP('',(#544,#545,#546,#547));
#888=EDGE_LOOP('',(#548,#549,#550,#551));
#889=EDGE_LOOP('',(#552));
#890=EDGE_LOOP('',(#553,#554,#555,#556));
#891=EDGE_LOOP('',(#557));
#892=EDGE_LOOP('',(#558));
#893=EDGE_LOOP('',(#559));
#894=EDGE_LOOP('',(#560));
#895=FACE_BOUND('',#815,.T.);
#896=FACE_BOUND('',#816,.T.);
#897=FACE_BOUND('',#817,.T.);
#898=FACE_BOUND('',#818,.T.);
#899=FACE_BOUND('',#819,.T.);
#900=FACE_BOUND('',#820,.T.);
#901=FACE_BOUND('',#821,.T.);
#902=FACE_BOUND('',#822,.T.);
#903=FACE_BOUND('',#823,.T.);
#904=FACE_BOUND('',#824,.T.);
#905=FACE_BOUND('',#825,.T.);
#906=FACE_BOUND('',#826,.T.);
#907=FACE_BOUND('',#827,.T.);
#908=FACE_BOUND('',#828,.T.);
#909=FACE_BOUND('',#829,.T.);
#910=FACE_BOUND('',#830,.T.);
#911=FACE_BOUND('',#831,.T.);
#912=FACE_BOUND('',#832,.T.);
#913=FACE_BOUND('',#833,.T.);
#914=FACE_BOUND('',#834,.T.);
#915=FACE_BOUND('',#835,.T.);
#916=FACE_BOUND('',#836,.T.);
#917=FACE_BOUND('',#837,.T.);
#918=FACE_BOUND('',#838,.T.);
#919=FACE_BOUND('',#839,.T.);
#920=FACE_BOUND('',#840,.T.);
#921=FACE_BOUND('',#841,.T.);
#922=FACE_BOUND('',#842,.T.);
#923=FACE_BOUND('',#843,.T.);
#924=FACE_BOUND('',#844,.T.);
#925=FACE_BOUND('',#845,.T.);
#926=FACE_BOUND('',#846,.T.);
#927=FACE_BOUND('',#847,.T.);
#928=FACE_BOUND('',#848,.T.);
#929=FACE_BOUND('',#849,.T.);
#930=FACE_BOUND('',#850,.T.);
#931=FACE_BOUND('',#851,.T.);
#932=FACE_BOUND('',#852,.T.);
#933=FACE_BOUND('',#853,.T.);
#934=FACE_BOUND('',#854,.T.);
#935=FACE_BOUND('',#855,.T.);
#936=FACE_BOUND('',#856,.T.);
#937=FACE_BOUND('',#857,.T.);
#938=FACE_BOUND('',#858,.T.);
#939=FACE_BOUND('',#859,.T.);
#940=FACE_BOUND('',#860,.T.);
#941=FACE_BOUND('',#861,.T.);
#942=FACE_BOUND('',#862,.T.);
#943=FACE_BOUND('',#863,.T.);
#944=FACE_BOUND('',#864,.T.);
#945=FACE_BOUND('',#865,.T.);
#946=FACE_BOUND('',#866,.T.);
#947=FACE_BOUND('',#867,.T.);
#948=FACE_BOUND('',#868,.T.);
#949=FACE_BOUND('',#869,.T.);
#950=FACE_BOUND('',#870,.T.);
#951=FACE_BOUND('',#871,.T.);
#952=FACE_BOUND('',#872,.T.);
#953=FACE_BOUND('',#873,.T.);
#954=FACE_BOUND('',#874,.T.);
#955=FACE_BOUND('',#875,.T.);
#956=FACE_BOUND('',#876,.T.);
#957=FACE_BOUND('',#877,.T.);
#958=FACE_BOUND('',#878,.T.);
#959=FACE_BOUND('',#879,.T.);
#960=FACE_BOUND('',#880,.T.);
#961=FACE_BOUND('',#881,.T.);
#962=FACE_BOUND('',#882,.T.);
#963=FACE_BOUND('',#883,.T.);
#964=FACE_BOUND('',#884,.T.);
#965=FACE_BOUND('',#885,.T.);
#966=FACE_BOUND('',#886,.T.);
#967=FACE_BOUND('',#887,.T.);
#968=FACE_BOUND('',#888,.T.);
#969=FACE_BOUND('',#889,.T.);
#970=FACE_BOUND('',#890,.T.);
#971=FACE_BOUND('',#891,.T.);
#972=FACE_BOUND('',#892,.T.);
#973=FACE_BOUND('',#893,.T.);
#974=FACE_BOUND('',#894,.T.);
#975=PLANE('',#1101);
#976=PLANE('',#1104);
#977=PLANE('',#1105);
#978=PLANE('',#1106);
#979=PLANE('',#1107);
#980=PLANE('',#1108);
#981=PLANE('',#1109);
#982=PLANE('',#1110);
#983=PLANE('',#1111);
#984=PLANE('',#1112);
#985=PLANE('',#1113);
#986=PLANE('',#1114);
#987=PLANE('',#1115);
#988=PLANE('',#1116);
#989=PLANE('',#1119);
#990=PLANE('',#1122);
#991=PLANE('',#1123);
#992=PLANE('',#1124);
#993=PLANE('',#1125);
#994=PLANE('',#1126);
#995=PLANE('',#1127);
#996=PLANE('',#1128);
#997=PLANE('',#1129);
#998=PLANE('',#1130);
#999=PLANE('',#1131);
#1000=PLANE('',#1132);
#1001=PLANE('',#1133);
#1002=PLANE('',#1135);
#1003=PLANE('',#1136);
#1004=PLANE('',#1137);
#1005=PLANE('',#1138);
#1006=PLANE('',#1139);
#1007=PLANE('',#1140);
#1008=PLANE('',#1141);
#1009=PLANE('',#1142);
#1010=PLANE('',#1152);
#1011=PLANE('',#1153);
#1012=PLANE('',#1154);
#1013=PLANE('',#1155);
#1014=PLANE('',#1158);
#1015=PLANE('',#1159);
#1016=PLANE('',#1160);
#1017=PLANE('',#1161);
#1018=PLANE('',#1162);
#1019=PLANE('',#1163);
#1020=PLANE('',#1165);
#1021=PLANE('',#1166);
#1022=ADVANCED_FACE('',(#895,#896,#897,#898),#975,.T.);
#1023=ADVANCED_FACE('',(#899),#976,.T.);
#1024=ADVANCED_FACE('',(#900),#977,.F.);
#1025=ADVANCED_FACE('',(#901),#978,.F.);
#1026=ADVANCED_FACE('',(#902),#979,.F.);
#1027=ADVANCED_FACE('',(#903),#980,.F.);
#1028=ADVANCED_FACE('',(#904),#981,.T.);
#1029=ADVANCED_FACE('',(#905),#982,.F.);
#1030=ADVANCED_FACE('',(#906),#983,.F.);
#1031=ADVANCED_FACE('',(#907),#984,.T.);
#1032=ADVANCED_FACE('',(#908),#985,.F.);
#1033=ADVANCED_FACE('',(#909),#986,.T.);
#1034=ADVANCED_FACE('',(#910),#987,.T.);
#1035=ADVANCED_FACE('',(#911),#988,.T.);
#1036=ADVANCED_FACE('',(#912,#913),#14,.F.);
#1037=ADVANCED_FACE('',(#914),#989,.T.);
#1038=ADVANCED_FACE('',(#915,#916),#15,.F.);
#1039=ADVANCED_FACE('',(#917),#990,.T.);
#1040=ADVANCED_FACE('',(#918),#991,.T.);
#1041=ADVANCED_FACE('',(#919),#992,.T.);
#1042=ADVANCED_FACE('',(#920,#921,#922,#923,#924),#993,.F.);
#1043=ADVANCED_FACE('',(#925),#994,.T.);
#1044=ADVANCED_FACE('',(#926),#995,.F.);
#1045=ADVANCED_FACE('',(#927),#996,.F.);
#1046=ADVANCED_FACE('',(#928),#997,.T.);
#1047=ADVANCED_FACE('',(#929),#998,.F.);
#1048=ADVANCED_FACE('',(#930),#999,.F.);
#1049=ADVANCED_FACE('',(#931),#1000,.T.);
#1050=ADVANCED_FACE('',(#932),#1001,.T.);
#1051=ADVANCED_FACE('',(#933),#1002,.T.);
#1052=ADVANCED_FACE('',(#934),#1003,.T.);
#1053=ADVANCED_FACE('',(#935),#1004,.T.);
#1054=ADVANCED_FACE('',(#936),#1005,.F.);
#1055=ADVANCED_FACE('',(#937),#1006,.F.);
#1056=ADVANCED_FACE('',(#938),#1007,.F.);
#1057=ADVANCED_FACE('',(#939),#1008,.F.);
#1058=ADVANCED_FACE('',(#940),#1009,.T.);
#1059=ADVANCED_FACE('',(#941,#942),#16,.F.);
#1060=ADVANCED_FACE('',(#943,#944),#17,.F.);
#1061=ADVANCED_FACE('',(#945,#946),#18,.F.);
#1062=ADVANCED_FACE('',(#947),#1010,.T.);
#1063=ADVANCED_FACE('',(#948),#1011,.T.);
#1064=ADVANCED_FACE('',(#949,#950,#951,#952,#953),#1012,.T.);
#1065=ADVANCED_FACE('',(#954,#955,#956,#957,#958,#959,#960),#1013,.F.);
#1066=ADVANCED_FACE('',(#961),#1014,.T.);
#1067=ADVANCED_FACE('',(#962),#1015,.F.);
#1068=ADVANCED_FACE('',(#963),#1016,.F.);
#1069=ADVANCED_FACE('',(#964),#1017,.T.);
#1070=ADVANCED_FACE('',(#965),#1018,.T.);
#1071=ADVANCED_FACE('',(#966,#967),#1019,.T.);
#1072=ADVANCED_FACE('',(#968),#1020,.T.);
#1073=ADVANCED_FACE('',(#969,#970),#1021,.T.);
#1074=ADVANCED_FACE('',(#971,#972),#19,.F.);
#1075=ADVANCED_FACE('',(#973,#974),#20,.F.);
#1076=CLOSED_SHELL('',(#1022,#1023,#1024,#1025,#1026,#1027,#1028,#1029,
#1030,#1031,#1032,#1033,#1034,#1035,#1036,#1037,#1038,#1039,#1040,#1041,
#1042,#1043,#1044,#1045,#1046,#1047,#1048,#1049,#1050));
#1077=CLOSED_SHELL('',(#1051,#1052,#1053,#1054,#1055,#1056,#1057,#1058,
#1059,#1060,#1061,#1062,#1063,#1064,#1065,#1066,#1067,#1068,#1069,#1070,
#1071,#1072,#1073,#1074,#1075));
#1078=STYLED_ITEM('',(#1080),#1094);
#1079=STYLED_ITEM('',(#1081),#1095);
#1080=PRESENTATION_STYLE_ASSIGNMENT((#1082));
#1081=PRESENTATION_STYLE_ASSIGNMENT((#1083));
#1082=SURFACE_STYLE_USAGE(.BOTH.,#1084);
#1083=SURFACE_STYLE_USAGE(.BOTH.,#1085);
#1084=SURFACE_SIDE_STYLE('',(#1086));
#1085=SURFACE_SIDE_STYLE('',(#1087));
#1086=SURFACE_STYLE_FILL_AREA(#1088);
#1087=SURFACE_STYLE_FILL_AREA(#1089);
#1088=FILL_AREA_STYLE('',(#1090));
#1089=FILL_AREA_STYLE('',(#1091));
#1090=FILL_AREA_STYLE_COLOUR('',#1092);
#1091=FILL_AREA_STYLE_COLOUR('',#1093);
#1092=COLOUR_RGB('',0.647058823529412,0.647058823529412,0.647058823529412);
#1093=COLOUR_RGB('',0.615686274509804,0.811764705882353,0.929411764705882);
#1094=MANIFOLD_SOLID_BREP('Case-top',#1076);
#1095=MANIFOLD_SOLID_BREP('Case-bottom',#1077);
#1096=SHAPE_DEFINITION_REPRESENTATION(#1746,#1098);
#1097=SHAPE_DEFINITION_REPRESENTATION(#1747,#1099);
#1098=SHAPE_REPRESENTATION('Case-top',(#1100),#1736);
#1099=SHAPE_REPRESENTATION('Case-bottom',(#1134),#1737);
#1100=AXIS2_PLACEMENT_3D('',#1438,#1170,#1171);
#1101=AXIS2_PLACEMENT_3D('',#1439,#1172,#1173);
#1102=AXIS2_PLACEMENT_3D('',#1440,#1174,#1175);
#1103=AXIS2_PLACEMENT_3D('',#1442,#1176,#1177);
#1104=AXIS2_PLACEMENT_3D('',#1472,#1192,#1193);
#1105=AXIS2_PLACEMENT_3D('',#1478,#1197,#1198);
#1106=AXIS2_PLACEMENT_3D('',#1482,#1201,#1202);
#1107=AXIS2_PLACEMENT_3D('',#1486,#1205,#1206);
#1108=AXIS2_PLACEMENT_3D('',#1498,#1213,#1214);
#1109=AXIS2_PLACEMENT_3D('',#1504,#1218,#1219);
#1110=AXIS2_PLACEMENT_3D('',#1513,#1225,#1226);
#1111=AXIS2_PLACEMENT_3D('',#1519,#1230,#1231);
#1112=AXIS2_PLACEMENT_3D('',#1523,#1234,#1235);
#1113=AXIS2_PLACEMENT_3D('',#1527,#1238,#1239);
#1114=AXIS2_PLACEMENT_3D('',#1535,#1244,#1245);
#1115=AXIS2_PLACEMENT_3D('',#1541,#1249,#1250);
#1116=AXIS2_PLACEMENT_3D('',#1548,#1255,#1256);
#1117=AXIS2_PLACEMENT_3D('',#1552,#1259,#1260);
#1118=AXIS2_PLACEMENT_3D('',#1553,#1261,#1262);
#1119=AXIS2_PLACEMENT_3D('',#1555,#1263,#1264);
#1120=AXIS2_PLACEMENT_3D('',#1557,#1266,#1267);
#1121=AXIS2_PLACEMENT_3D('',#1558,#1268,#1269);
#1122=AXIS2_PLACEMENT_3D('',#1560,#1270,#1271);
#1123=AXIS2_PLACEMENT_3D('',#1562,#1273,#1274);
#1124=AXIS2_PLACEMENT_3D('',#1564,#1276,#1277);
#1125=AXIS2_PLACEMENT_3D('',#1574,#1283,#1284);
#1126=AXIS2_PLACEMENT_3D('',#1575,#1285,#1286);
#1127=AXIS2_PLACEMENT_3D('',#1579,#1289,#1290);
#1128=AXIS2_PLACEMENT_3D('',#1581,#1292,#1293);
#1129=AXIS2_PLACEMENT_3D('',#1583,#1295,#1296);
#1130=AXIS2_PLACEMENT_3D('',#1587,#1299,#1300);
#1131=AXIS2_PLACEMENT_3D('',#1591,#1303,#1304);
#1132=AXIS2_PLACEMENT_3D('',#1595,#1307,#1308);
#1133=AXIS2_PLACEMENT_3D('',#1597,#1310,#1311);
#1134=AXIS2_PLACEMENT_3D('',#1598,#1312,#1313);
#1135=AXIS2_PLACEMENT_3D('',#1599,#1314,#1315);
#1136=AXIS2_PLACEMENT_3D('',#1608,#1320,#1321);
#1137=AXIS2_PLACEMENT_3D('',#1625,#1330,#1331);
#1138=AXIS2_PLACEMENT_3D('',#1634,#1336,#1337);
#1139=AXIS2_PLACEMENT_3D('',#1640,#1341,#1342);
#1140=AXIS2_PLACEMENT_3D('',#1646,#1346,#1347);
#1141=AXIS2_PLACEMENT_3D('',#1660,#1355,#1356);
#1142=AXIS2_PLACEMENT_3D('',#1667,#1361,#1362);
#1143=AXIS2_PLACEMENT_3D('',#1671,#1365,#1366);
#1144=AXIS2_PLACEMENT_3D('',#1672,#1367,#1368);
#1145=AXIS2_PLACEMENT_3D('',#1674,#1369,#1370);
#1146=AXIS2_PLACEMENT_3D('',#1676,#1371,#1372);
#1147=AXIS2_PLACEMENT_3D('',#1677,#1373,#1374);
#1148=AXIS2_PLACEMENT_3D('',#1679,#1375,#1376);
#1149=AXIS2_PLACEMENT_3D('',#1681,#1377,#1378);
#1150=AXIS2_PLACEMENT_3D('',#1682,#1379,#1380);
#1151=AXIS2_PLACEMENT_3D('',#1684,#1381,#1382);
#1152=AXIS2_PLACEMENT_3D('',#1686,#1383,#1384);
#1153=AXIS2_PLACEMENT_3D('',#1691,#1388,#1389);
#1154=AXIS2_PLACEMENT_3D('',#1694,#1392,#1393);
#1155=AXIS2_PLACEMENT_3D('',#1703,#1398,#1399);
#1156=AXIS2_PLACEMENT_3D('',#1704,#1400,#1401);
#1157=AXIS2_PLACEMENT_3D('',#1706,#1402,#1403);
#1158=AXIS2_PLACEMENT_3D('',#1708,#1404,#1405);
#1159=AXIS2_PLACEMENT_3D('',#1711,#1408,#1409);
#1160=AXIS2_PLACEMENT_3D('',#1716,#1413,#1414);
#1161=AXIS2_PLACEMENT_3D('',#1718,#1416,#1417);
#1162=AXIS2_PLACEMENT_3D('',#1722,#1420,#1421);
#1163=AXIS2_PLACEMENT_3D('',#1724,#1423,#1424);
#1164=AXIS2_PLACEMENT_3D('',#1725,#1425,#1426);
#1165=AXIS2_PLACEMENT_3D('',#1727,#1427,#1428);
#1166=AXIS2_PLACEMENT_3D('',#1729,#1430,#1431);
#1167=AXIS2_PLACEMENT_3D('',#1730,#1432,#1433);
#1168=AXIS2_PLACEMENT_3D('',#1732,#1434,#1435);
#1169=AXIS2_PLACEMENT_3D('',#1733,#1436,#1437);
#1170=DIRECTION('',(0.,0.,1.));
#1171=DIRECTION('',(1.,0.,0.));
#1172=DIRECTION('',(0.,0.,1.));
#1173=DIRECTION('',(1.,0.,0.));
#1174=DIRECTION('',(0.,0.,1.));
#1175=DIRECTION('',(1.,0.,0.));
#1176=DIRECTION('',(0.,0.,1.));
#1177=DIRECTION('',(1.,0.,0.));
#1178=DIRECTION('',(6.12624721132466E-17,-1.,0.));
#1179=DIRECTION('',(1.,0.,0.));
#1180=DIRECTION('',(8.16832961509954E-17,-1.,0.));
#1181=DIRECTION('',(1.,0.,0.));
#1182=DIRECTION('',(0.,-1.,0.));
#1183=DIRECTION('',(0.,1.,0.));
#1184=DIRECTION('',(1.,0.,0.));
#1185=DIRECTION('',(0.,-1.,0.));
#1186=DIRECTION('',(1.,0.,0.));
#1187=DIRECTION('',(0.,1.,0.));
#1188=DIRECTION('',(0.,-1.,0.));
#1189=DIRECTION('',(1.,0.,0.));
#1190=DIRECTION('',(0.,-1.,0.));
#1191=DIRECTION('',(1.,0.,0.));
#1192=DIRECTION('',(1.,6.12624721132466E-17,0.));
#1193=DIRECTION('',(-6.12624721132466E-17,1.,0.));
#1194=DIRECTION('',(6.12624721132466E-17,-1.,0.));
#1195=DIRECTION('',(0.,0.,-1.));
#1196=DIRECTION('',(0.,0.,-1.));
#1197=DIRECTION('',(0.,1.,0.));
#1198=DIRECTION('',(0.,0.,1.));
#1199=DIRECTION('',(1.,0.,0.));
#1200=DIRECTION('',(0.,0.,-1.));
#1201=DIRECTION('',(1.,8.16832961509954E-17,0.));
#1202=DIRECTION('',(-8.16832961509954E-17,1.,0.));
#1203=DIRECTION('',(8.16832961509954E-17,-1.,0.));
#1204=DIRECTION('',(0.,0.,-1.));
#1205=DIRECTION('',(0.,1.,0.));
#1206=DIRECTION('',(0.,0.,1.));
#1207=DIRECTION('',(0.,0.,-1.));
#1208=DIRECTION('',(0.,0.,-1.));
#1209=DIRECTION('',(1.,0.,0.));
#1210=DIRECTION('',(0.,0.,-1.));
#1211=DIRECTION('',(0.,0.,-1.));
#1212=DIRECTION('',(1.,0.,0.));
#1213=DIRECTION('',(1.,0.,0.));
#1214=DIRECTION('',(0.,0.,-1.));
#1215=DIRECTION('',(0.,-1.,0.));
#1216=DIRECTION('',(0.,0.,-1.));
#1217=DIRECTION('',(0.,-1.,0.));
#1218=DIRECTION('',(0.,1.,0.));
#1219=DIRECTION('',(0.,0.,1.));
#1220=DIRECTION('',(1.,0.,0.));
#1221=DIRECTION('',(0.,0.,-1.));
#1222=DIRECTION('',(0.,0.,-1.));
#1223=DIRECTION('',(1.,0.,0.));
#1224=DIRECTION('',(0.,0.,-1.));
#1225=DIRECTION('',(1.,0.,0.));
#1226=DIRECTION('',(0.,0.,-1.));
#1227=DIRECTION('',(0.,-1.,0.));
#1228=DIRECTION('',(0.,0.,-1.));
#1229=DIRECTION('',(0.,0.,-1.));
#1230=DIRECTION('',(0.,1.,0.));
#1231=DIRECTION('',(0.,0.,1.));
#1232=DIRECTION('',(1.,0.,0.));
#1233=DIRECTION('',(0.,0.,-1.));
#1234=DIRECTION('',(1.,0.,0.));
#1235=DIRECTION('',(0.,0.,-1.));
#1236=DIRECTION('',(0.,-1.,0.));
#1237=DIRECTION('',(0.,0.,-1.));
#1238=DIRECTION('',(0.,1.,0.));
#1239=DIRECTION('',(0.,0.,1.));
#1240=DIRECTION('',(1.,0.,0.));
#1241=DIRECTION('',(0.,0.,-1.));
#1242=DIRECTION('',(1.,0.,0.));
#1243=DIRECTION('',(0.,0.,-1.));
#1244=DIRECTION('',(1.,0.,0.));
#1245=DIRECTION('',(0.,0.,-1.));
#1246=DIRECTION('',(0.,-1.,0.));
#1247=DIRECTION('',(0.,0.,-1.));
#1248=DIRECTION('',(0.,-1.,0.));
#1249=DIRECTION('',(0.,1.,0.));
#1250=DIRECTION('',(0.,0.,1.));
#1251=DIRECTION('',(1.,0.,0.));
#1252=DIRECTION('',(0.,0.,-1.));
#1253=DIRECTION('',(0.,0.,-1.));
#1254=DIRECTION('',(1.,0.,0.));
#1255=DIRECTION('',(1.,0.,0.));
#1256=DIRECTION('',(0.,0.,-1.));
#1257=DIRECTION('',(0.,-1.,0.));
#1258=DIRECTION('',(0.,0.,-1.));
#1259=DIRECTION('',(0.,0.,-1.));
#1260=DIRECTION('',(-1.,0.,0.));
#1261=DIRECTION('',(0.,0.,1.));
#1262=DIRECTION('',(1.,0.,0.));
#1263=DIRECTION('',(1.,0.,0.));
#1264=DIRECTION('',(0.,0.,-1.));
#1265=DIRECTION('',(0.,-1.,0.));
#1266=DIRECTION('',(0.,0.,-1.));
#1267=DIRECTION('',(-1.,0.,0.));
#1268=DIRECTION('',(0.,0.,1.));
#1269=DIRECTION('',(1.,0.,0.));
#1270=DIRECTION('',(0.,1.,0.));
#1271=DIRECTION('',(0.,0.,1.));
#1272=DIRECTION('',(1.,0.,0.));
#1273=DIRECTION('',(0.,1.,0.));
#1274=DIRECTION('',(0.,0.,1.));
#1275=DIRECTION('',(1.,0.,0.));
#1276=DIRECTION('',(0.,0.,1.));
#1277=DIRECTION('',(1.,0.,0.));
#1278=DIRECTION('',(0.,1.,0.));
#1279=DIRECTION('',(-1.,0.,0.));
#1280=DIRECTION('',(0.,1.,0.));
#1281=DIRECTION('',(-1.,0.,0.));
#1282=DIRECTION('',(0.,1.,0.));
#1283=DIRECTION('',(0.,0.,1.));
#1284=DIRECTION('',(1.,0.,0.));
#1285=DIRECTION('',(1.,0.,0.));
#1286=DIRECTION('',(0.,0.,-1.));
#1287=DIRECTION('',(0.,0.,-1.));
#1288=DIRECTION('',(0.,-1.,0.));
#1289=DIRECTION('',(1.,0.,0.));
#1290=DIRECTION('',(0.,0.,-1.));
#1291=DIRECTION('',(0.,-1.,0.));
#1292=DIRECTION('',(1.,0.,0.));
#1293=DIRECTION('',(0.,0.,-1.));
#1294=DIRECTION('',(0.,-1.,0.));
#1295=DIRECTION('',(1.,0.,0.));
#1296=DIRECTION('',(0.,0.,-1.));
#1297=DIRECTION('',(0.,0.,-1.));
#1298=DIRECTION('',(0.,-1.,0.));
#1299=DIRECTION('',(0.,1.,0.));
#1300=DIRECTION('',(0.,0.,1.));
#1301=DIRECTION('',(0.,0.,-1.));
#1302=DIRECTION('',(1.,0.,0.));
#1303=DIRECTION('',(1.,0.,0.));
#1304=DIRECTION('',(0.,0.,-1.));
#1305=DIRECTION('',(0.,0.,-1.));
#1306=DIRECTION('',(0.,-1.,0.));
#1307=DIRECTION('',(0.,1.,0.));
#1308=DIRECTION('',(0.,0.,1.));
#1309=DIRECTION('',(1.,0.,0.));
#1310=DIRECTION('',(0.,0.,1.));
#1311=DIRECTION('',(1.,0.,0.));
#1312=DIRECTION('',(0.,0.,1.));
#1313=DIRECTION('',(1.,0.,0.));
#1314=DIRECTION('',(0.,0.,1.));
#1315=DIRECTION('',(1.,0.,0.));
#1316=DIRECTION('',(1.,0.,0.));
#1317=DIRECTION('',(0.,-1.,0.));
#1318=DIRECTION('',(1.,0.,0.));
#1319=DIRECTION('',(4.40285146187007E-16,-1.,0.));
#1320=DIRECTION('',(0.,0.,1.));
#1321=DIRECTION('',(1.,0.,0.));
#1322=DIRECTION('',(0.,1.,0.));
#1323=DIRECTION('',(1.,0.,0.));
#1324=DIRECTION('',(0.,-1.,0.));
#1325=DIRECTION('',(1.,0.,0.));
#1326=DIRECTION('',(0.,1.,0.));
#1327=DIRECTION('',(1.,0.,0.));
#1328=DIRECTION('',(0.,-1.,0.));
#1329=DIRECTION('',(1.,0.,0.));
#1330=DIRECTION('',(1.,4.19173534933609E-17,0.));
#1331=DIRECTION('',(-4.19173534933609E-17,1.,0.));
#1332=DIRECTION('',(4.19173534933609E-17,-1.,0.));
#1333=DIRECTION('',(0.,0.,-1.));
#1334=DIRECTION('',(4.19173534933609E-17,-1.,0.));
#1335=DIRECTION('',(0.,0.,-1.));
#1336=DIRECTION('',(0.,1.,0.));
#1337=DIRECTION('',(0.,0.,1.));
#1338=DIRECTION('',(1.,0.,0.));
#1339=DIRECTION('',(0.,0.,-1.));
#1340=DIRECTION('',(1.,0.,0.));
#1341=DIRECTION('',(1.,8.38347069867218E-17,0.));
#1342=DIRECTION('',(-8.38347069867218E-17,1.,0.));
#1343=DIRECTION('',(8.38347069867218E-17,-1.,0.));
#1344=DIRECTION('',(0.,0.,-1.));
#1345=DIRECTION('',(8.38347069867218E-17,-1.,0.));
#1346=DIRECTION('',(1.,0.,0.));
#1347=DIRECTION('',(0.,0.,-1.));
#1348=DIRECTION('',(0.,0.,-1.));
#1349=DIRECTION('',(8.67361737988404E-17,-1.,0.));
#1350=DIRECTION('',(0.,0.,-1.));
#1351=DIRECTION('',(0.,0.,-1.));
#1352=DIRECTION('',(0.,-1.,0.));
#1353=DIRECTION('',(0.,0.,-1.));
#1354=DIRECTION('',(0.,-1.,0.));
#1355=DIRECTION('',(0.,1.,0.));
#1356=DIRECTION('',(0.,0.,1.));
#1357=DIRECTION('',(0.,0.,-1.));
#1358=DIRECTION('',(1.,0.,0.));
#1359=DIRECTION('',(1.,0.,0.));
#1360=DIRECTION('',(0.,0.,-1.));
#1361=DIRECTION('',(1.,0.,0.));
#1362=DIRECTION('',(0.,0.,-1.));
#1363=DIRECTION('',(0.,-1.,0.));
#1364=DIRECTION('',(0.,0.,-1.));
#1365=DIRECTION('',(0.,0.,-1.));
#1366=DIRECTION('',(-1.,0.,0.));
#1367=DIRECTION('',(0.,0.,1.));
#1368=DIRECTION('',(1.,0.,0.));
#1369=DIRECTION('',(0.,0.,1.));
#1370=DIRECTION('',(1.,0.,0.));
#1371=DIRECTION('',(0.,0.,-1.));
#1372=DIRECTION('',(-1.,0.,0.));
#1373=DIRECTION('',(0.,0.,1.));
#1374=DIRECTION('',(1.,0.,0.));
#1375=DIRECTION('',(0.,0.,1.));
#1376=DIRECTION('',(1.,0.,0.));
#1377=DIRECTION('',(0.,0.,-1.));
#1378=DIRECTION('',(-1.,0.,0.));
#1379=DIRECTION('',(0.,0.,1.));
#1380=DIRECTION('',(1.,0.,0.));
#1381=DIRECTION('',(0.,0.,1.));
#1382=DIRECTION('',(1.,0.,0.));
#1383=DIRECTION('',(0.,1.,0.));
#1384=DIRECTION('',(0.,0.,1.));
#1385=DIRECTION('',(1.,0.,0.));
#1386=DIRECTION('',(1.,0.,0.));
#1387=DIRECTION('',(0.,0.,-1.));
#1388=DIRECTION('',(0.,1.,0.));
#1389=DIRECTION('',(0.,0.,1.));
#1390=DIRECTION('',(1.,0.,0.));
#1391=DIRECTION('',(1.,0.,0.));
#1392=DIRECTION('',(0.,0.,1.));
#1393=DIRECTION('',(1.,0.,0.));
#1394=DIRECTION('',(-4.40285146187007E-16,1.,0.));
#1395=DIRECTION('',(-1.,0.,0.));
#1396=DIRECTION('',(0.,1.,0.));
#1397=DIRECTION('',(-1.,0.,0.));
#1398=DIRECTION('',(0.,0.,1.));
#1399=DIRECTION('',(1.,0.,0.));
#1400=DIRECTION('',(0.,0.,1.));
#1401=DIRECTION('',(1.,0.,0.));
#1402=DIRECTION('',(0.,0.,1.));
#1403=DIRECTION('',(1.,0.,0.));
#1404=DIRECTION('',(1.,4.40285146187007E-16,0.));
#1405=DIRECTION('',(-4.40285146187007E-16,1.,0.));
#1406=DIRECTION('',(0.,0.,-1.));
#1407=DIRECTION('',(0.,0.,-1.));
#1408=DIRECTION('',(0.,1.,0.));
#1409=DIRECTION('',(0.,0.,1.));
#1410=DIRECTION('',(0.,0.,-1.));
#1411=DIRECTION('',(-1.,0.,0.));
#1412=DIRECTION('',(0.,0.,-1.));
#1413=DIRECTION('',(1.,0.,0.));
#1414=DIRECTION('',(0.,0.,-1.));
#1415=DIRECTION('',(0.,0.,-1.));
#1416=DIRECTION('',(0.,1.,0.));
#1417=DIRECTION('',(0.,0.,1.));
#1418=DIRECTION('',(-1.,0.,0.));
#1419=DIRECTION('',(0.,0.,-1.));
#1420=DIRECTION('',(1.,0.,0.));
#1421=DIRECTION('',(0.,0.,-1.));
#1422=DIRECTION('',(0.,-1.,0.));
#1423=DIRECTION('',(0.,0.,1.));
#1424=DIRECTION('',(1.,0.,0.));
#1425=DIRECTION('',(0.,0.,1.));
#1426=DIRECTION('',(1.,0.,0.));
#1427=DIRECTION('',(1.,0.,0.));
#1428=DIRECTION('',(0.,0.,-1.));
#1429=DIRECTION('',(0.,-1.,0.));
#1430=DIRECTION('',(0.,0.,1.));
#1431=DIRECTION('',(1.,0.,0.));
#1432=DIRECTION('',(0.,0.,1.));
#1433=DIRECTION('',(1.,0.,0.));
#1434=DIRECTION('',(0.,0.,1.));
#1435=DIRECTION('',(1.,0.,0.));
#1436=DIRECTION('',(0.,0.,1.));
#1437=DIRECTION('',(1.,0.,0.));
#1438=CARTESIAN_POINT('',(0.,0.,0.));
#1439=CARTESIAN_POINT('',(0.0663474593649673,0.012413842705512,0.017145));
#1440=CARTESIAN_POINT('',(0.0279093343649674,0.0663611132055121,0.017145));
#1441=CARTESIAN_POINT('',(0.0299093343649674,0.0663611132055121,0.017145));
#1442=CARTESIAN_POINT('',(0.0279093343649674,-0.041535327794488,0.017145));
#1443=CARTESIAN_POINT('',(0.0299093343649674,-0.041535327794488,0.017145));
#1444=CARTESIAN_POINT('',(0.00860810936496734,0.00815483820551422,0.017145));
#1445=CARTESIAN_POINT('',(0.00860810936496733,0.0506292132055164,0.017145));
#1446=CARTESIAN_POINT('',(0.00860810936496734,-0.034319536794488,0.017145));
#1447=CARTESIAN_POINT('',(0.0155793593649673,0.0506292132055164,0.017145));
#1448=CARTESIAN_POINT('',(0.0225506093649674,0.0506292132055164,0.017145));
#1449=CARTESIAN_POINT('',(0.0225506093649674,0.00815483820551422,0.017145));
#1450=CARTESIAN_POINT('',(0.0225506093649674,-0.034319536794488,0.017145));
#1451=CARTESIAN_POINT('',(0.0155793593649673,-0.034319536794488,0.017145));
#1452=CARTESIAN_POINT('',(0.0538906093649673,-0.032361182294488,0.017145));
#1453=CARTESIAN_POINT('',(0.0538906093649673,-0.020687036794488,0.017145));
#1454=CARTESIAN_POINT('',(0.0538906093649673,-0.044035327794488,0.017145));
#1455=CARTESIAN_POINT('',(0.0538906093649673,0.012413842705512,0.017145));
#1456=CARTESIAN_POINT('',(0.0538906093649673,-0.00422168479448815,0.017145));
#1457=CARTESIAN_POINT('',(0.0553906093649673,-0.00422168479448815,0.017145));
#1458=CARTESIAN_POINT('',(0.0390831093649674,-0.00422168479448815,0.017145));
#1459=CARTESIAN_POINT('',(0.0390831093649674,0.00379376420551195,0.017145));
#1460=CARTESIAN_POINT('',(0.0390831093649674,0.011809213205512,0.017145));
#1461=CARTESIAN_POINT('',(0.0553906093649673,0.011809213205512,0.017145));
#1462=CARTESIAN_POINT('',(0.0538906093649673,0.011809213205512,0.017145));
#1463=CARTESIAN_POINT('',(0.0538906093649673,0.012413842705512,0.017145));
#1464=CARTESIAN_POINT('',(0.0538906093649673,0.036312963205512,0.017145));
#1465=CARTESIAN_POINT('',(0.0538906093649673,0.0525879882055121,0.017145));
#1466=CARTESIAN_POINT('',(0.0538906093649673,0.0688630132055121,0.017145));
#1467=CARTESIAN_POINT('',(0.0279093343649674,0.0688630132055121,0.017145));
#1468=CARTESIAN_POINT('',(0.00260430936496733,0.0688630132055121,0.017145));
#1469=CARTESIAN_POINT('',(0.00260430936496733,0.0663611132055121,0.017145));
#1470=CARTESIAN_POINT('',(0.00260430936496733,-0.044035327794488,0.017145));
#1471=CARTESIAN_POINT('',(0.0282474593649674,-0.044035327794488,0.017145));
#1472=CARTESIAN_POINT('',(0.00860810936496734,0.00815483820551422,0.017145));
#1473=CARTESIAN_POINT('',(0.00860810936496734,0.00815483820551422,0.014605));
#1474=CARTESIAN_POINT('',(0.00860810936496733,0.0506292132055164,0.014605));
#1475=CARTESIAN_POINT('',(0.00860810936496734,-0.034319536794488,0.014605));
#1476=CARTESIAN_POINT('',(0.00860810936496733,0.0506292132055164,0.017145));
#1477=CARTESIAN_POINT('',(0.00860810936496734,-0.034319536794488,0.017145));
#1478=CARTESIAN_POINT('',(0.0155793593649673,0.0506292132055164,0.017145));
#1479=CARTESIAN_POINT('',(0.0155793593649673,0.0506292132055164,0.014605));
#1480=CARTESIAN_POINT('',(0.0225506093649674,0.0506292132055164,0.014605));
#1481=CARTESIAN_POINT('',(0.0225506093649674,0.0506292132055164,0.017145));
#1482=CARTESIAN_POINT('',(0.0225506093649674,0.00815483820551422,0.017145));
#1483=CARTESIAN_POINT('',(0.0225506093649674,0.00815483820551422,0.014605));
#1484=CARTESIAN_POINT('',(0.0225506093649674,-0.034319536794488,0.014605));
#1485=CARTESIAN_POINT('',(0.0225506093649674,-0.034319536794488,0.017145));
#1486=CARTESIAN_POINT('',(0.0553906093649673,0.011809213205512,0.017145));
#1487=CARTESIAN_POINT('',(0.0568906093649673,0.011809213205512,0.017145));
#1488=CARTESIAN_POINT('',(0.0568906093649673,0.011809213205512,0.017145));
#1489=CARTESIAN_POINT('',(0.0568906093649673,0.011809213205512,0.014605));
#1490=CARTESIAN_POINT('',(0.0568906093649673,0.011809213205512,0.022225));
#1491=CARTESIAN_POINT('',(0.0568906093649673,0.011809213205512,0.022225));
#1492=CARTESIAN_POINT('',(0.0553906093649673,0.011809213205512,0.022225));
#1493=CARTESIAN_POINT('',(0.0538906093649673,0.011809213205512,0.022225));
#1494=CARTESIAN_POINT('',(0.0538906093649673,0.011809213205512,0.022225));
#1495=CARTESIAN_POINT('',(0.0390831093649674,0.011809213205512,0.017145));
#1496=CARTESIAN_POINT('',(0.0390831093649674,0.011809213205512,0.014605));
#1497=CARTESIAN_POINT('',(0.0553906093649673,0.011809213205512,0.014605));
#1498=CARTESIAN_POINT('',(0.0568906093649673,0.00379376420551195,0.017145));
#1499=CARTESIAN_POINT('',(0.0568906093649673,0.00379376420551195,0.014605));
#1500=CARTESIAN_POINT('',(0.0568906093649673,-0.00422168479448815,0.014605));
#1501=CARTESIAN_POINT('',(0.0568906093649673,-0.00422168479448815,0.017145));
#1502=CARTESIAN_POINT('',(0.0568906093649673,-0.00422168479448815,0.017145));
#1503=CARTESIAN_POINT('',(0.0568906093649673,0.00379376420551195,0.017145));
#1504=CARTESIAN_POINT('',(0.0553906093649673,-0.00422168479448815,0.017145));
#1505=CARTESIAN_POINT('',(0.0553906093649673,-0.00422168479448815,0.014605));
#1506=CARTESIAN_POINT('',(0.0390831093649674,-0.00422168479448815,0.014605));
#1507=CARTESIAN_POINT('',(0.0390831093649674,-0.00422168479448815,0.017145));
#1508=CARTESIAN_POINT('',(0.0538906093649673,-0.00422168479448815,0.022225));
#1509=CARTESIAN_POINT('',(0.0538906093649673,-0.00422168479448815,0.022225));
#1510=CARTESIAN_POINT('',(0.0553906093649673,-0.00422168479448815,0.022225));
#1511=CARTESIAN_POINT('',(0.0568906093649673,-0.00422168479448815,0.022225));
#1512=CARTESIAN_POINT('',(0.0568906093649673,-0.00422168479448815,0.022225));
#1513=CARTESIAN_POINT('',(0.00260430936496733,0.0663611132055121,0.017145));
#1514=CARTESIAN_POINT('',(0.00260430936496733,0.0663611132055121,0.014605));
#1515=CARTESIAN_POINT('',(0.00260430936496733,0.0688630132055121,0.014605));
#1516=CARTESIAN_POINT('',(0.00260430936496733,-0.044035327794488,0.014605));
#1517=CARTESIAN_POINT('',(0.00260430936496733,-0.044035327794488,0.017145));
#1518=CARTESIAN_POINT('',(0.00260430936496733,0.0688630132055121,0.017145));
#1519=CARTESIAN_POINT('',(0.0282474593649674,-0.044035327794488,0.017145));
#1520=CARTESIAN_POINT('',(0.0282474593649674,-0.044035327794488,0.014605));
#1521=CARTESIAN_POINT('',(0.0538906093649673,-0.044035327794488,0.014605));
#1522=CARTESIAN_POINT('',(0.0538906093649673,-0.044035327794488,0.017145));
#1523=CARTESIAN_POINT('',(0.0538906093649673,-0.032361182294488,0.017145));
#1524=CARTESIAN_POINT('',(0.0538906093649673,-0.032361182294488,0.014605));
#1525=CARTESIAN_POINT('',(0.0538906093649673,-0.020687036794488,0.014605));
#1526=CARTESIAN_POINT('',(0.0538906093649673,-0.020687036794488,0.017145));
#1527=CARTESIAN_POINT('',(0.0919906093649673,-0.020687036794488,0.017145));
#1528=CARTESIAN_POINT('',(0.0919906093649673,-0.020687036794488,0.014605));
#1529=CARTESIAN_POINT('',(0.130090609364967,-0.020687036794488,0.014605));
#1530=CARTESIAN_POINT('',(0.130090609364967,-0.020687036794488,0.017145));
#1531=CARTESIAN_POINT('',(0.130090609364967,-0.020687036794488,0.022225));
#1532=CARTESIAN_POINT('',(0.0919906093649673,-0.020687036794488,0.022225));
#1533=CARTESIAN_POINT('',(0.0538906093649673,-0.020687036794488,0.022225));
#1534=CARTESIAN_POINT('',(0.0538906093649673,-0.020687036794488,0.022225));
#1535=CARTESIAN_POINT('',(0.130090609364967,0.00781296320551205,0.017145));
#1536=CARTESIAN_POINT('',(0.130090609364967,0.00781296320551205,0.014605));
#1537=CARTESIAN_POINT('',(0.130090609364967,0.036312963205512,0.014605));
#1538=CARTESIAN_POINT('',(0.130090609364967,0.036312963205512,0.017145));
#1539=CARTESIAN_POINT('',(0.130090609364967,0.036312963205512,0.022225));
#1540=CARTESIAN_POINT('',(0.130090609364967,0.00781296320551205,0.022225));
#1541=CARTESIAN_POINT('',(0.0919906093649673,0.036312963205512,0.017145));
#1542=CARTESIAN_POINT('',(0.0919906093649673,0.036312963205512,0.014605));
#1543=CARTESIAN_POINT('',(0.0538906093649673,0.036312963205512,0.014605));
#1544=CARTESIAN_POINT('',(0.0538906093649673,0.036312963205512,0.017145));
#1545=CARTESIAN_POINT('',(0.0538906093649673,0.036312963205512,0.022225));
#1546=CARTESIAN_POINT('',(0.0538906093649673,0.036312963205512,0.022225));
#1547=CARTESIAN_POINT('',(0.0919906093649673,0.036312963205512,0.022225));
#1548=CARTESIAN_POINT('',(0.0538906093649673,0.0525879882055121,0.017145));
#1549=CARTESIAN_POINT('',(0.0538906093649673,0.0525879882055121,0.014605));
#1550=CARTESIAN_POINT('',(0.0538906093649673,0.0688630132055121,0.014605));
#1551=CARTESIAN_POINT('',(0.0538906093649673,0.0688630132055121,0.017145));
#1552=CARTESIAN_POINT('',(0.0279093343649674,-0.041535327794488,0.017145));
#1553=CARTESIAN_POINT('',(0.0279093343649674,-0.041535327794488,0.014605));
#1554=CARTESIAN_POINT('',(0.0299093343649674,-0.041535327794488,0.014605));
#1555=CARTESIAN_POINT('',(0.0390831093649674,0.00379376420551195,0.017145));
#1556=CARTESIAN_POINT('',(0.0390831093649674,0.00379376420551195,0.014605));
#1557=CARTESIAN_POINT('',(0.0279093343649674,0.0663611132055121,0.017145));
#1558=CARTESIAN_POINT('',(0.0279093343649674,0.0663611132055121,0.014605));
#1559=CARTESIAN_POINT('',(0.0299093343649674,0.0663611132055121,0.014605));
#1560=CARTESIAN_POINT('',(0.0279093343649674,0.0688630132055121,0.017145));
#1561=CARTESIAN_POINT('',(0.0279093343649674,0.0688630132055121,0.014605));
#1562=CARTESIAN_POINT('',(0.0155793593649673,-0.034319536794488,0.017145));
#1563=CARTESIAN_POINT('',(0.0155793593649673,-0.034319536794488,0.014605));
#1564=CARTESIAN_POINT('',(0.0663474593649673,0.012413842705512,0.017145));
#1565=CARTESIAN_POINT('',(0.0568906093649673,0.012413842705512,0.017145));
#1566=CARTESIAN_POINT('',(0.0568906093649673,-0.017687036794488,0.017145));
#1567=CARTESIAN_POINT('',(0.0663474593649673,-0.017687036794488,0.017145));
#1568=CARTESIAN_POINT('',(0.127090609364967,-0.017687036794488,0.017145));
#1569=CARTESIAN_POINT('',(0.127090609364967,0.012413842705512,0.017145));
#1570=CARTESIAN_POINT('',(0.127090609364967,0.033312963205512,0.017145));
#1571=CARTESIAN_POINT('',(0.0663474593649673,0.033312963205512,0.017145));
#1572=CARTESIAN_POINT('',(0.0568906093649673,0.033312963205512,0.017145));
#1573=CARTESIAN_POINT('',(0.0568906093649673,0.012413842705512,0.017145));
#1574=CARTESIAN_POINT('',(0.0663474593649673,0.012413842705512,0.014605));
#1575=CARTESIAN_POINT('',(0.0568906093649673,-0.010954360794488,0.022225));
#1576=CARTESIAN_POINT('',(0.0568906093649673,-0.017687036794488,0.022225));
#1577=CARTESIAN_POINT('',(0.0568906093649673,-0.017687036794488,0.022225));
#1578=CARTESIAN_POINT('',(0.0568906093649673,-0.010954360794488,0.022225));
#1579=CARTESIAN_POINT('',(0.0538906093649673,-0.012454360794488,0.022225));
#1580=CARTESIAN_POINT('',(0.0538906093649673,-0.012454360794488,0.022225));
#1581=CARTESIAN_POINT('',(0.0538906093649673,0.024061088205512,0.022225));
#1582=CARTESIAN_POINT('',(0.0538906093649673,0.024061088205512,0.022225));
#1583=CARTESIAN_POINT('',(0.0568906093649673,0.022561088205512,0.022225));
#1584=CARTESIAN_POINT('',(0.0568906093649673,0.033312963205512,0.022225));
#1585=CARTESIAN_POINT('',(0.0568906093649673,0.033312963205512,0.022225));
#1586=CARTESIAN_POINT('',(0.0568906093649673,0.022561088205512,0.022225));
#1587=CARTESIAN_POINT('',(0.0919906093649673,0.033312963205512,0.022225));
#1588=CARTESIAN_POINT('',(0.127090609364967,0.033312963205512,0.022225));
#1589=CARTESIAN_POINT('',(0.127090609364967,0.033312963205512,0.022225));
#1590=CARTESIAN_POINT('',(0.0919906093649673,0.033312963205512,0.022225));
#1591=CARTESIAN_POINT('',(0.127090609364967,0.00781296320551205,0.022225));
#1592=CARTESIAN_POINT('',(0.127090609364967,-0.017687036794488,0.022225));
#1593=CARTESIAN_POINT('',(0.127090609364967,-0.017687036794488,0.022225));
#1594=CARTESIAN_POINT('',(0.127090609364967,0.00781296320551205,0.022225));
#1595=CARTESIAN_POINT('',(0.0919906093649673,-0.017687036794488,0.022225));
#1596=CARTESIAN_POINT('',(0.0919906093649673,-0.017687036794488,0.022225));
#1597=CARTESIAN_POINT('',(0.0663474593649673,0.012413842705512,0.022225));
#1598=CARTESIAN_POINT('',(0.,0.,0.));
#1599=CARTESIAN_POINT('',(0.0734714418649674,0.012413842705512,0.00381));
#1600=CARTESIAN_POINT('',(0.0734714418649674,0.0638592132055121,0.00381));
#1601=CARTESIAN_POINT('',(0.00260430936496733,0.0638592132055121,0.00381));
#1602=CARTESIAN_POINT('',(0.00760810936496734,0.0638592132055121,0.00381));
#1603=CARTESIAN_POINT('',(0.00260430936496733,0.0663611132055121,0.00381));
#1604=CARTESIAN_POINT('',(0.00260430936496733,-0.0390353277944879,0.00381));
#1605=CARTESIAN_POINT('',(0.0734714418649674,-0.0390353277944879,0.00381));
#1606=CARTESIAN_POINT('',(0.00760810936496734,-0.0390353277944879,0.00381));
#1607=CARTESIAN_POINT('',(0.00760810936496733,0.0628742132055121,0.00381));
#1608=CARTESIAN_POINT('',(0.0734714418649674,0.012413842705512,0.00381));
#1609=CARTESIAN_POINT('',(0.0532143593649673,0.012413842705512,0.00381));
#1610=CARTESIAN_POINT('',(0.0532143593649673,0.0638592132055121,0.00381));
#1611=CARTESIAN_POINT('',(0.0532143593649673,0.0688630132055121,0.00381));
#1612=CARTESIAN_POINT('',(0.0304112343649674,0.0638592132055121,0.00381));
#1613=CARTESIAN_POINT('',(0.139334774364967,0.0638592132055121,0.00381));
#1614=CARTESIAN_POINT('',(0.139334774364967,0.012411942705512,0.00381));
#1615=CARTESIAN_POINT('',(0.139334774364967,-0.0390353277944879,0.00381));
#1616=CARTESIAN_POINT('',(0.112766441864967,-0.0390353277944879,0.00381));
#1617=CARTESIAN_POINT('',(0.0538906093649673,-0.0390353277944879,0.00381));
#1618=CARTESIAN_POINT('',(0.0538906093649673,0.012413842705512,0.00381));
#1619=CARTESIAN_POINT('',(0.0538906093649673,-0.044035327794488,0.00381));
#1620=CARTESIAN_POINT('',(0.115268341864967,-0.044035327794488,0.00381));
#1621=CARTESIAN_POINT('',(0.144338574364967,-0.044035327794488,0.00381));
#1622=CARTESIAN_POINT('',(0.144338574364967,0.012413842705512,0.00381));
#1623=CARTESIAN_POINT('',(0.144338574364967,0.0688630132055121,0.00381));
#1624=CARTESIAN_POINT('',(0.0279093343649674,0.0688630132055121,0.00381));
#1625=CARTESIAN_POINT('',(0.0101106093649673,0.00812483820551205,0.00254));
#1626=CARTESIAN_POINT('',(0.0101106093649673,0.00812483820551205,0.));
#1627=CARTESIAN_POINT('',(0.0101106093649673,0.0495092132055121,0.));
#1628=CARTESIAN_POINT('',(0.0101106093649673,-0.033259536794488,0.));
#1629=CARTESIAN_POINT('',(0.0101106093649673,0.0495092132055121,0.00254));
#1630=CARTESIAN_POINT('',(0.0101106093649673,0.0495092132055121,0.00254));
#1631=CARTESIAN_POINT('',(0.0101106093649673,0.00812483820551205,0.00254));
#1632=CARTESIAN_POINT('',(0.0101106093649673,-0.033259536794488,0.00254));
#1633=CARTESIAN_POINT('',(0.0101106093649673,-0.033259536794488,0.00254));
#1634=CARTESIAN_POINT('',(0.0157706093649673,0.0495092132055121,0.00254));
#1635=CARTESIAN_POINT('',(0.0157706093649673,0.0495092132055121,0.));
#1636=CARTESIAN_POINT('',(0.0214306093649673,0.0495092132055121,0.));
#1637=CARTESIAN_POINT('',(0.0214306093649673,0.0495092132055121,0.00254));
#1638=CARTESIAN_POINT('',(0.0214306093649673,0.0495092132055121,0.00254));
#1639=CARTESIAN_POINT('',(0.0157706093649673,0.0495092132055121,0.00254));
#1640=CARTESIAN_POINT('',(0.0214306093649673,0.00812483820551205,0.00254));
#1641=CARTESIAN_POINT('',(0.0214306093649673,0.00812483820551205,0.));
#1642=CARTESIAN_POINT('',(0.0214306093649673,-0.033259536794488,0.));
#1643=CARTESIAN_POINT('',(0.0214306093649673,-0.033259536794488,0.00254));
#1644=CARTESIAN_POINT('',(0.0214306093649673,-0.033259536794488,0.00254));
#1645=CARTESIAN_POINT('',(0.0214306093649673,0.00812483820551205,0.00254));
#1646=CARTESIAN_POINT('',(0.00260430936496733,0.0663611132055121,0.00254));
#1647=CARTESIAN_POINT('',(0.00260430936496733,-0.044035327794488,0.00254));
#1648=CARTESIAN_POINT('',(0.00260430936496733,-0.044035327794488,0.014605));
#1649=CARTESIAN_POINT('',(0.00260430936496733,-0.044035327794488,0.));
#1650=CARTESIAN_POINT('',(0.00260430936496734,-0.041535327794488,0.014605));
#1651=CARTESIAN_POINT('',(0.00260430936496734,-0.0390353277944879,0.014605));
#1652=CARTESIAN_POINT('',(0.00260430936496734,-0.0390353277944879,0.014605));
#1653=CARTESIAN_POINT('',(0.00260430936496733,0.0638592132055121,0.014605));
#1654=CARTESIAN_POINT('',(0.00260430936496733,0.0638592132055121,0.014605));
#1655=CARTESIAN_POINT('',(0.00260430936496733,0.0663611132055121,0.014605));
#1656=CARTESIAN_POINT('',(0.00260430936496733,0.0688630132055121,0.014605));
#1657=CARTESIAN_POINT('',(0.00260430936496733,0.0688630132055121,0.00254));
#1658=CARTESIAN_POINT('',(0.00260430936496733,0.0688630132055121,0.));
#1659=CARTESIAN_POINT('',(0.00260430936496733,0.0663611132055121,0.));
#1660=CARTESIAN_POINT('',(0.115268341864967,-0.044035327794488,0.00254));
#1661=CARTESIAN_POINT('',(0.0538906093649673,-0.044035327794488,0.014605));
#1662=CARTESIAN_POINT('',(0.0538906093649673,-0.044035327794488,0.014605));
#1663=CARTESIAN_POINT('',(0.0282474593649674,-0.044035327794488,0.014605));
#1664=CARTESIAN_POINT('',(0.115268341864967,-0.044035327794488,0.));
#1665=CARTESIAN_POINT('',(0.144338574364967,-0.044035327794488,0.));
#1666=CARTESIAN_POINT('',(0.144338574364967,-0.044035327794488,0.00254));
#1667=CARTESIAN_POINT('',(0.144338574364967,0.012413842705512,0.00254));
#1668=CARTESIAN_POINT('',(0.144338574364967,0.012413842705512,0.));
#1669=CARTESIAN_POINT('',(0.144338574364967,0.0688630132055121,0.));
#1670=CARTESIAN_POINT('',(0.144338574364967,0.0688630132055121,0.00254));
#1671=CARTESIAN_POINT('',(0.0263526973649673,-0.0337407867944879,0.00254));
#1672=CARTESIAN_POINT('',(0.0263526973649673,-0.0337407867944879,0.00254));
#1673=CARTESIAN_POINT('',(0.0293581093649673,-0.0337407867944879,0.00254));
#1674=CARTESIAN_POINT('',(0.0263526973649673,-0.0337407867944879,0.));
#1675=CARTESIAN_POINT('',(0.0293581093649673,-0.0337407867944879,0.));
#1676=CARTESIAN_POINT('',(0.132916081864318,-0.032485374794488,0.00254));
#1677=CARTESIAN_POINT('',(0.132916081864318,-0.032485374794488,0.00254));
#1678=CARTESIAN_POINT('',(0.135916081864318,-0.032485374794488,0.00254));
#1679=CARTESIAN_POINT('',(0.132916081864318,-0.032485374794488,0.));
#1680=CARTESIAN_POINT('',(0.135916081864318,-0.032485374794488,0.));
#1681=CARTESIAN_POINT('',(0.132813842127806,0.0411153443766434,0.00254));
#1682=CARTESIAN_POINT('',(0.132813842127806,0.0411153443766434,0.00254));
#1683=CARTESIAN_POINT('',(0.135813842127806,0.0411153443766434,0.00254));
#1684=CARTESIAN_POINT('',(0.132813842127806,0.0411153443766434,0.));
#1685=CARTESIAN_POINT('',(0.135813842127806,0.0411153443766434,0.));
#1686=CARTESIAN_POINT('',(0.0279093343649674,0.0688630132055121,0.00254));
#1687=CARTESIAN_POINT('',(0.0279093343649674,0.0688630132055121,0.));
#1688=CARTESIAN_POINT('',(0.0279093343649674,0.0688630132055121,0.014605));
#1689=CARTESIAN_POINT('',(0.0532143593649673,0.0688630132055121,0.014605));
#1690=CARTESIAN_POINT('',(0.0532143593649673,0.0688630132055121,0.014605));
#1691=CARTESIAN_POINT('',(0.0157706093649673,-0.033259536794488,0.00254));
#1692=CARTESIAN_POINT('',(0.0157706093649673,-0.033259536794488,0.));
#1693=CARTESIAN_POINT('',(0.0157706093649673,-0.033259536794488,0.00254));
#1694=CARTESIAN_POINT('',(0.0734714418649674,0.012413842705512,0.00254));
#1695=CARTESIAN_POINT('',(0.00760810936496736,0.012413842705512,0.00254));
#1696=CARTESIAN_POINT('',(0.00760810936496734,-0.0390353277944879,0.00254));
#1697=CARTESIAN_POINT('',(0.00760810936496734,0.0638592132055121,0.00254));
#1698=CARTESIAN_POINT('',(0.0734714418649674,-0.0390353277944879,0.00254));
#1699=CARTESIAN_POINT('',(0.139334774364967,-0.0390353277944879,0.00254));
#1700=CARTESIAN_POINT('',(0.139334774364967,0.012413842705512,0.00254));
#1701=CARTESIAN_POINT('',(0.139334774364967,0.0638592132055121,0.00254));
#1702=CARTESIAN_POINT('',(0.0734714418649674,0.0638592132055121,0.00254));
#1703=CARTESIAN_POINT('',(0.0734714418649674,0.012413842705512,0.));
#1704=CARTESIAN_POINT('',(0.0279093343649674,-0.041535327794488,0.));
#1705=CARTESIAN_POINT('',(0.0299093343649674,-0.041535327794488,0.));
#1706=CARTESIAN_POINT('',(0.0279093343649674,0.0663611132055121,0.));
#1707=CARTESIAN_POINT('',(0.0299093343649674,0.0663611132055121,0.));
#1708=CARTESIAN_POINT('',(0.00760810936496733,0.0628742132055121,0.00381));
#1709=CARTESIAN_POINT('',(0.00760810936496734,-0.0390353277944879,0.00381));
#1710=CARTESIAN_POINT('',(0.00760810936496734,0.0638592132055121,0.00381));
#1711=CARTESIAN_POINT('',(0.0304112343649674,0.0638592132055121,0.00381));
#1712=CARTESIAN_POINT('',(0.0532143593649673,0.063859213205512,0.014605));
#1713=CARTESIAN_POINT('',(0.0532143593649673,0.063859213205512,0.014605));
#1714=CARTESIAN_POINT('',(0.00510620936496733,0.0638592132055121,0.014605));
#1715=CARTESIAN_POINT('',(0.139334774364967,0.0638592132055121,0.00381));
#1716=CARTESIAN_POINT('',(0.139334774364967,0.012411942705512,0.00381));
#1717=CARTESIAN_POINT('',(0.139334774364967,-0.0390353277944879,0.00381));
#1718=CARTESIAN_POINT('',(0.112766441864967,-0.0390353277944879,0.00381));
#1719=CARTESIAN_POINT('',(0.00510620936496734,-0.0390353277944879,0.014605));
#1720=CARTESIAN_POINT('',(0.0538906093649673,-0.0390353277944879,0.014605));
#1721=CARTESIAN_POINT('',(0.0538906093649673,-0.0390353277944879,0.014605));
#1722=CARTESIAN_POINT('',(0.0538906093649673,-0.041535327794488,0.014605));
#1723=CARTESIAN_POINT('',(0.0538906093649673,-0.041535327794488,0.014605));
#1724=CARTESIAN_POINT('',(0.0734714418649674,0.012413842705512,0.014605));
#1725=CARTESIAN_POINT('',(0.0279093343649674,-0.041535327794488,0.014605));
#1726=CARTESIAN_POINT('',(0.0299093343649674,-0.041535327794488,0.014605));
#1727=CARTESIAN_POINT('',(0.0532143593649673,0.0663611132055121,0.014605));
#1728=CARTESIAN_POINT('',(0.0532143593649673,0.0663611132055121,0.014605));
#1729=CARTESIAN_POINT('',(0.0734714418649674,0.012413842705512,0.014605));
#1730=CARTESIAN_POINT('',(0.0279093343649674,0.0663611132055121,0.014605));
#1731=CARTESIAN_POINT('',(0.0299093343649674,0.0663611132055121,0.014605));
#1732=CARTESIAN_POINT('',(0.0279093343649674,0.0663611132055121,-0.010795));
#1733=CARTESIAN_POINT('',(0.0279093343649674,-0.041535327794488,-0.010795));
#1734=MECHANICAL_DESIGN_GEOMETRIC_PRESENTATION_REPRESENTATION('',(#1078),
#1736);
#1735=MECHANICAL_DESIGN_GEOMETRIC_PRESENTATION_REPRESENTATION('',(#1079),
#1737);
#1736=(
GEOMETRIC_REPRESENTATION_CONTEXT(3)
GLOBAL_UNCERTAINTY_ASSIGNED_CONTEXT((#1738))
GLOBAL_UNIT_ASSIGNED_CONTEXT((#1744,#1742,#1740))
REPRESENTATION_CONTEXT('Case-top','TOP_LEVEL_ASSEMBLY_PART')
);
#1737=(
GEOMETRIC_REPRESENTATION_CONTEXT(3)
GLOBAL_UNCERTAINTY_ASSIGNED_CONTEXT((#1739))
GLOBAL_UNIT_ASSIGNED_CONTEXT((#1745,#1743,#1741))
REPRESENTATION_CONTEXT('Case-bottom','TOP_LEVEL_ASSEMBLY_PART')
);
#1738=UNCERTAINTY_MEASURE_WITH_UNIT(LENGTH_MEASURE(1.E-8),#1744,
'DISTANCE_ACCURACY_VALUE','Maximum Tolerance applied to model');
#1739=UNCERTAINTY_MEASURE_WITH_UNIT(LENGTH_MEASURE(1.E-8),#1745,
'DISTANCE_ACCURACY_VALUE','Maximum Tolerance applied to model');
#1740=(
NAMED_UNIT(*)
SI_UNIT($,.STERADIAN.)
SOLID_ANGLE_UNIT()
);
#1741=(
NAMED_UNIT(*)
SI_UNIT($,.STERADIAN.)
SOLID_ANGLE_UNIT()
);
#1742=(
NAMED_UNIT(*)
PLANE_ANGLE_UNIT()
SI_UNIT($,.RADIAN.)
);
#1743=(
NAMED_UNIT(*)
PLANE_ANGLE_UNIT()
SI_UNIT($,.RADIAN.)
);
#1744=(
LENGTH_UNIT()
NAMED_UNIT(*)
SI_UNIT($,.METRE.)
);
#1745=(
LENGTH_UNIT()
NAMED_UNIT(*)
SI_UNIT($,.METRE.)
);
#1746=PRODUCT_DEFINITION_SHAPE('','',#1748);
#1747=PRODUCT_DEFINITION_SHAPE('','',#1749);
#1748=PRODUCT_DEFINITION('','',#1752,#1750);
#1749=PRODUCT_DEFINITION('','',#1753,#1751);
#1750=PRODUCT_DEFINITION_CONTEXT('',#1764,'design');
#1751=PRODUCT_DEFINITION_CONTEXT('',#1765,'design');
#1752=PRODUCT_DEFINITION_FORMATION_WITH_SPECIFIED_SOURCE('','',#1756,
 .NOT_KNOWN.);
#1753=PRODUCT_DEFINITION_FORMATION_WITH_SPECIFIED_SOURCE('','',#1757,
 .NOT_KNOWN.);
#1754=PRODUCT_RELATED_PRODUCT_CATEGORY('','',(#1756));
#1755=PRODUCT_RELATED_PRODUCT_CATEGORY('','',(#1757));
#1756=PRODUCT('Case-top','Case-top','Case-top',(#1760));
#1757=PRODUCT('Case-bottom','Case-bottom','Case-bottom',(#1761));
#1758=PRODUCT_CATEGORY('','');
#1759=PRODUCT_CATEGORY('','');
#1760=PRODUCT_CONTEXT('',#1764,'mechanical');
#1761=PRODUCT_CONTEXT('',#1765,'mechanical');
#1762=APPLICATION_PROTOCOL_DEFINITION('international standard',
'ap242_managed_model_based_3d_engineering',2020,#1764);
#1763=APPLICATION_PROTOCOL_DEFINITION('international standard',
'ap242_managed_model_based_3d_engineering',2020,#1765);
#1764=APPLICATION_CONTEXT('managed model based 3d engineering');
#1765=APPLICATION_CONTEXT('managed model based 3d engineering');
ENDSEC;
END-ISO-10303-21;
