ISO-10303-21;
HEADER;
/* Generated by software containing ST-Developer
 * from STEP Tools, Inc. (www.steptools.com) 
 */
/* OPTION: using custom renumber hook */

FILE_DESCRIPTION(
/* description */ ('STEP AP242 Edition 2',
'CAx-IF Rec.Pracs.---Representation and Presentation of Product Manufa
cturing Information (PMI)---4.0---2014-10-13',
'CAx-IF Rec.Pracs.---3D Tessellated Geometry---0.4---2014-09-14','2;1',
'CAx-IF Rec.Pracs.---User Defined Attributes---1.5---2016-08-15'),
/* implementation_level */ '2;1');

FILE_NAME(
/* name */ 'Case Parts(V2) - Case-top',
/* time_stamp */ '2026-08-01T19:26:01Z',
/* author */ (''),
/* organization */ (''),
/* preprocessor_version */ 'ST-DEVELOPER v20',
/* originating_system */ 'ONSHAPE BY PTC INC, 1.218',
/* authorisation */ '  ');

FILE_SCHEMA (('AP242_MANAGED_MODEL_BASED_3D_ENGINEERING_MIM_LF { 1 0 10303 442 3 1 4 }'));
ENDSEC;

DATA;
#10=SHAPE_REPRESENTATION_RELATIONSHIP('','',#595,#11);
#11=ADVANCED_BREP_SHAPE_REPRESENTATION('',(#593),#933);
#12=CYLINDRICAL_SURFACE('',#613,0.002);
#13=CYLINDRICAL_SURFACE('',#616,0.002);
#14=LINE('',#778,#88);
#15=LINE('',#781,#89);
#16=LINE('',#783,#90);
#17=LINE('',#785,#91);
#18=LINE('',#786,#92);
#19=LINE('',#789,#93);
#20=LINE('',#791,#94);
#21=LINE('',#793,#95);
#22=LINE('',#795,#96);
#23=LINE('',#797,#97);
#24=LINE('',#799,#98);
#25=LINE('',#801,#99);
#26=LINE('',#803,#100);
#27=LINE('',#805,#101);
#28=LINE('',#807,#102);
#29=LINE('',#810,#103);
#30=LINE('',#811,#104);
#31=LINE('',#813,#105);
#32=LINE('',#815,#106);
#33=LINE('',#817,#107);
#34=LINE('',#819,#108);
#35=LINE('',#821,#109);
#36=LINE('',#824,#110);
#37=LINE('',#826,#111);
#38=LINE('',#828,#112);
#39=LINE('',#829,#113);
#40=LINE('',#831,#114);
#41=LINE('',#833,#115);
#42=LINE('',#835,#116);
#43=LINE('',#837,#117);
#44=LINE('',#839,#118);
#45=LINE('',#841,#119);
#46=LINE('',#842,#120);
#47=LINE('',#844,#121);
#48=LINE('',#846,#122);
#49=LINE('',#848,#123);
#50=LINE('',#851,#124);
#51=LINE('',#852,#125);
#52=LINE('',#854,#126);
#53=LINE('',#856,#127);
#54=LINE('',#858,#128);
#55=LINE('',#860,#129);
#56=LINE('',#862,#130);
#57=LINE('',#864,#131);
#58=LINE('',#866,#132);
#59=LINE('',#868,#133);
#60=LINE('',#870,#134);
#61=LINE('',#872,#135);
#62=LINE('',#874,#136);
#63=LINE('',#876,#137);
#64=LINE('',#878,#138);
#65=LINE('',#879,#139);
#66=LINE('',#881,#140);
#67=LINE('',#883,#141);
#68=LINE('',#885,#142);
#69=LINE('',#890,#143);
#70=LINE('',#895,#144);
#71=LINE('',#897,#145);
#72=LINE('',#899,#146);
#73=LINE('',#901,#147);
#74=LINE('',#903,#148);
#75=LINE('',#905,#149);
#76=LINE('',#907,#150);
#77=LINE('',#910,#151);
#78=LINE('',#912,#152);
#79=LINE('',#914,#153);
#80=LINE('',#916,#154);
#81=LINE('',#918,#155);
#82=LINE('',#920,#156);
#83=LINE('',#922,#157);
#84=LINE('',#924,#158);
#85=LINE('',#926,#159);
#86=LINE('',#928,#160);
#87=LINE('',#930,#161);
#88=VECTOR('',#638,1.);
#89=VECTOR('',#639,1.);
#90=VECTOR('',#640,1.);
#91=VECTOR('',#641,1.);
#92=VECTOR('',#642,1.);
#93=VECTOR('',#643,1.);
#94=VECTOR('',#644,1.);
#95=VECTOR('',#645,1.);
#96=VECTOR('',#646,1.);
#97=VECTOR('',#647,1.);
#98=VECTOR('',#648,1.);
#99=VECTOR('',#649,1.);
#100=VECTOR('',#650,1.);
#101=VECTOR('',#651,1.);
#102=VECTOR('',#654,1.);
#103=VECTOR('',#655,1.);
#104=VECTOR('',#656,1.);
#105=VECTOR('',#659,1.);
#106=VECTOR('',#660,1.);
#107=VECTOR('',#663,1.);
#108=VECTOR('',#664,1.);
#109=VECTOR('',#667,1.);
#110=VECTOR('',#668,1.);
#111=VECTOR('',#669,1.);
#112=VECTOR('',#670,1.);
#113=VECTOR('',#671,1.);
#114=VECTOR('',#672,1.);
#115=VECTOR('',#675,1.);
#116=VECTOR('',#676,1.);
#117=VECTOR('',#677,1.);
#118=VECTOR('',#680,1.);
#119=VECTOR('',#681,1.);
#120=VECTOR('',#682,1.);
#121=VECTOR('',#683,1.);
#122=VECTOR('',#684,1.);
#123=VECTOR('',#687,1.);
#124=VECTOR('',#688,1.);
#125=VECTOR('',#689,1.);
#126=VECTOR('',#692,1.);
#127=VECTOR('',#693,1.);
#128=VECTOR('',#696,1.);
#129=VECTOR('',#697,1.);
#130=VECTOR('',#700,1.);
#131=VECTOR('',#701,1.);
#132=VECTOR('',#702,1.);
#133=VECTOR('',#703,1.);
#134=VECTOR('',#706,1.);
#135=VECTOR('',#707,1.);
#136=VECTOR('',#708,1.);
#137=VECTOR('',#711,1.);
#138=VECTOR('',#712,1.);
#139=VECTOR('',#713,1.);
#140=VECTOR('',#714,1.);
#141=VECTOR('',#717,1.);
#142=VECTOR('',#718,1.);
#143=VECTOR('',#725,1.);
#144=VECTOR('',#732,1.);
#145=VECTOR('',#735,1.);
#146=VECTOR('',#738,1.);
#147=VECTOR('',#739,1.);
#148=VECTOR('',#740,1.);
#149=VECTOR('',#741,1.);
#150=VECTOR('',#742,1.);
#151=VECTOR('',#747,1.);
#152=VECTOR('',#748,1.);
#153=VECTOR('',#751,1.);
#154=VECTOR('',#754,1.);
#155=VECTOR('',#757,1.);
#156=VECTOR('',#758,1.);
#157=VECTOR('',#761,1.);
#158=VECTOR('',#762,1.);
#159=VECTOR('',#765,1.);
#160=VECTOR('',#766,1.);
#161=VECTOR('',#769,1.);
#162=ORIENTED_EDGE('',*,*,#318,.F.);
#163=ORIENTED_EDGE('',*,*,#319,.F.);
#164=ORIENTED_EDGE('',*,*,#320,.F.);
#165=ORIENTED_EDGE('',*,*,#321,.T.);
#166=ORIENTED_EDGE('',*,*,#322,.T.);
#167=ORIENTED_EDGE('',*,*,#323,.F.);
#168=ORIENTED_EDGE('',*,*,#324,.F.);
#169=ORIENTED_EDGE('',*,*,#325,.T.);
#170=ORIENTED_EDGE('',*,*,#326,.F.);
#171=ORIENTED_EDGE('',*,*,#327,.F.);
#172=ORIENTED_EDGE('',*,*,#328,.T.);
#173=ORIENTED_EDGE('',*,*,#329,.T.);
#174=ORIENTED_EDGE('',*,*,#330,.F.);
#175=ORIENTED_EDGE('',*,*,#331,.F.);
#176=ORIENTED_EDGE('',*,*,#332,.T.);
#177=ORIENTED_EDGE('',*,*,#333,.T.);
#178=ORIENTED_EDGE('',*,*,#334,.F.);
#179=ORIENTED_EDGE('',*,*,#335,.F.);
#180=ORIENTED_EDGE('',*,*,#320,.T.);
#181=ORIENTED_EDGE('',*,*,#336,.T.);
#182=ORIENTED_EDGE('',*,*,#337,.T.);
#183=ORIENTED_EDGE('',*,*,#338,.F.);
#184=ORIENTED_EDGE('',*,*,#321,.F.);
#185=ORIENTED_EDGE('',*,*,#335,.T.);
#186=ORIENTED_EDGE('',*,*,#339,.T.);
#187=ORIENTED_EDGE('',*,*,#340,.F.);
#188=ORIENTED_EDGE('',*,*,#322,.F.);
#189=ORIENTED_EDGE('',*,*,#338,.T.);
#190=ORIENTED_EDGE('',*,*,#341,.F.);
#191=ORIENTED_EDGE('',*,*,#342,.F.);
#192=ORIENTED_EDGE('',*,*,#343,.F.);
#193=ORIENTED_EDGE('',*,*,#344,.T.);
#194=ORIENTED_EDGE('',*,*,#328,.F.);
#195=ORIENTED_EDGE('',*,*,#345,.T.);
#196=ORIENTED_EDGE('',*,*,#346,.T.);
#197=ORIENTED_EDGE('',*,*,#347,.T.);
#198=ORIENTED_EDGE('',*,*,#348,.F.);
#199=ORIENTED_EDGE('',*,*,#349,.F.);
#200=ORIENTED_EDGE('',*,*,#341,.T.);
#201=ORIENTED_EDGE('',*,*,#348,.T.);
#202=ORIENTED_EDGE('',*,*,#350,.F.);
#203=ORIENTED_EDGE('',*,*,#351,.F.);
#204=ORIENTED_EDGE('',*,*,#326,.T.);
#205=ORIENTED_EDGE('',*,*,#352,.F.);
#206=ORIENTED_EDGE('',*,*,#353,.T.);
#207=ORIENTED_EDGE('',*,*,#354,.T.);
#208=ORIENTED_EDGE('',*,*,#355,.T.);
#209=ORIENTED_EDGE('',*,*,#356,.F.);
#210=ORIENTED_EDGE('',*,*,#332,.F.);
#211=ORIENTED_EDGE('',*,*,#357,.T.);
#212=ORIENTED_EDGE('',*,*,#358,.T.);
#213=ORIENTED_EDGE('',*,*,#359,.F.);
#214=ORIENTED_EDGE('',*,*,#333,.F.);
#215=ORIENTED_EDGE('',*,*,#356,.T.);
#216=ORIENTED_EDGE('',*,*,#360,.F.);
#217=ORIENTED_EDGE('',*,*,#361,.F.);
#218=ORIENTED_EDGE('',*,*,#324,.T.);
#219=ORIENTED_EDGE('',*,*,#359,.T.);
#220=ORIENTED_EDGE('',*,*,#362,.T.);
#221=ORIENTED_EDGE('',*,*,#363,.F.);
#222=ORIENTED_EDGE('',*,*,#364,.F.);
#223=ORIENTED_EDGE('',*,*,#365,.T.);
#224=ORIENTED_EDGE('',*,*,#361,.T.);
#225=ORIENTED_EDGE('',*,*,#366,.F.);
#226=ORIENTED_EDGE('',*,*,#367,.F.);
#227=ORIENTED_EDGE('',*,*,#368,.T.);
#228=ORIENTED_EDGE('',*,*,#363,.T.);
#229=ORIENTED_EDGE('',*,*,#369,.F.);
#230=ORIENTED_EDGE('',*,*,#370,.F.);
#231=ORIENTED_EDGE('',*,*,#371,.F.);
#232=ORIENTED_EDGE('',*,*,#372,.T.);
#233=ORIENTED_EDGE('',*,*,#367,.T.);
#234=ORIENTED_EDGE('',*,*,#373,.F.);
#235=ORIENTED_EDGE('',*,*,#374,.F.);
#236=ORIENTED_EDGE('',*,*,#330,.T.);
#237=ORIENTED_EDGE('',*,*,#370,.T.);
#238=ORIENTED_EDGE('',*,*,#319,.T.);
#239=ORIENTED_EDGE('',*,*,#375,.F.);
#240=ORIENTED_EDGE('',*,*,#376,.F.);
#241=ORIENTED_EDGE('',*,*,#345,.F.);
#242=ORIENTED_EDGE('',*,*,#327,.T.);
#243=ORIENTED_EDGE('',*,*,#351,.T.);
#244=ORIENTED_EDGE('',*,*,#318,.T.);
#245=ORIENTED_EDGE('',*,*,#377,.F.);
#246=ORIENTED_EDGE('',*,*,#378,.F.);
#247=ORIENTED_EDGE('',*,*,#357,.F.);
#248=ORIENTED_EDGE('',*,*,#331,.T.);
#249=ORIENTED_EDGE('',*,*,#374,.T.);
#250=ORIENTED_EDGE('',*,*,#379,.F.);
#251=ORIENTED_EDGE('',*,*,#336,.F.);
#252=ORIENTED_EDGE('',*,*,#323,.T.);
#253=ORIENTED_EDGE('',*,*,#340,.T.);
#254=ORIENTED_EDGE('',*,*,#380,.F.);
#255=ORIENTED_EDGE('',*,*,#381,.F.);
#256=ORIENTED_EDGE('',*,*,#382,.T.);
#257=ORIENTED_EDGE('',*,*,#383,.T.);
#258=ORIENTED_EDGE('',*,*,#384,.F.);
#259=ORIENTED_EDGE('',*,*,#349,.T.);
#260=ORIENTED_EDGE('',*,*,#347,.F.);
#261=ORIENTED_EDGE('',*,*,#346,.F.);
#262=ORIENTED_EDGE('',*,*,#376,.T.);
#263=ORIENTED_EDGE('',*,*,#350,.T.);
#264=ORIENTED_EDGE('',*,*,#373,.T.);
#265=ORIENTED_EDGE('',*,*,#369,.T.);
#266=ORIENTED_EDGE('',*,*,#366,.T.);
#267=ORIENTED_EDGE('',*,*,#362,.F.);
#268=ORIENTED_EDGE('',*,*,#360,.T.);
#269=ORIENTED_EDGE('',*,*,#358,.F.);
#270=ORIENTED_EDGE('',*,*,#355,.F.);
#271=ORIENTED_EDGE('',*,*,#378,.T.);
#272=ORIENTED_EDGE('',*,*,#377,.T.);
#273=ORIENTED_EDGE('',*,*,#375,.T.);
#274=ORIENTED_EDGE('',*,*,#334,.T.);
#275=ORIENTED_EDGE('',*,*,#379,.T.);
#276=ORIENTED_EDGE('',*,*,#339,.F.);
#277=ORIENTED_EDGE('',*,*,#337,.F.);
#278=ORIENTED_EDGE('',*,*,#385,.T.);
#279=ORIENTED_EDGE('',*,*,#380,.T.);
#280=ORIENTED_EDGE('',*,*,#354,.F.);
#281=ORIENTED_EDGE('',*,*,#386,.T.);
#282=ORIENTED_EDGE('',*,*,#325,.F.);
#283=ORIENTED_EDGE('',*,*,#365,.F.);
#284=ORIENTED_EDGE('',*,*,#387,.F.);
#285=ORIENTED_EDGE('',*,*,#352,.T.);
#286=ORIENTED_EDGE('',*,*,#329,.F.);
#287=ORIENTED_EDGE('',*,*,#344,.F.);
#288=ORIENTED_EDGE('',*,*,#388,.F.);
#289=ORIENTED_EDGE('',*,*,#371,.T.);
#290=ORIENTED_EDGE('',*,*,#342,.T.);
#291=ORIENTED_EDGE('',*,*,#384,.T.);
#292=ORIENTED_EDGE('',*,*,#389,.F.);
#293=ORIENTED_EDGE('',*,*,#390,.T.);
#294=ORIENTED_EDGE('',*,*,#383,.F.);
#295=ORIENTED_EDGE('',*,*,#391,.F.);
#296=ORIENTED_EDGE('',*,*,#392,.F.);
#297=ORIENTED_EDGE('',*,*,#389,.T.);
#298=ORIENTED_EDGE('',*,*,#382,.F.);
#299=ORIENTED_EDGE('',*,*,#393,.F.);
#300=ORIENTED_EDGE('',*,*,#394,.F.);
#301=ORIENTED_EDGE('',*,*,#391,.T.);
#302=ORIENTED_EDGE('',*,*,#393,.T.);
#303=ORIENTED_EDGE('',*,*,#381,.T.);
#304=ORIENTED_EDGE('',*,*,#385,.F.);
#305=ORIENTED_EDGE('',*,*,#395,.T.);
#306=ORIENTED_EDGE('',*,*,#386,.F.);
#307=ORIENTED_EDGE('',*,*,#353,.F.);
#308=ORIENTED_EDGE('',*,*,#387,.T.);
#309=ORIENTED_EDGE('',*,*,#364,.T.);
#310=ORIENTED_EDGE('',*,*,#368,.F.);
#311=ORIENTED_EDGE('',*,*,#372,.F.);
#312=ORIENTED_EDGE('',*,*,#388,.T.);
#313=ORIENTED_EDGE('',*,*,#343,.T.);
#314=ORIENTED_EDGE('',*,*,#390,.F.);
#315=ORIENTED_EDGE('',*,*,#392,.T.);
#316=ORIENTED_EDGE('',*,*,#394,.T.);
#317=ORIENTED_EDGE('',*,*,#395,.F.);
#318=EDGE_CURVE('',#396,#396,#448,.T.);
#319=EDGE_CURVE('',#397,#397,#449,.T.);
#320=EDGE_CURVE('',#398,#399,#14,.T.);
#321=EDGE_CURVE('',#398,#400,#15,.T.);
#322=EDGE_CURVE('',#400,#401,#16,.T.);
#323=EDGE_CURVE('',#399,#401,#17,.T.);
#324=EDGE_CURVE('',#402,#403,#18,.T.);
#325=EDGE_CURVE('',#402,#404,#19,.T.);
#326=EDGE_CURVE('',#405,#404,#20,.T.);
#327=EDGE_CURVE('',#406,#405,#21,.T.);
#328=EDGE_CURVE('',#406,#407,#22,.T.);
#329=EDGE_CURVE('',#407,#408,#23,.T.);
#330=EDGE_CURVE('',#409,#408,#24,.T.);
#331=EDGE_CURVE('',#410,#409,#25,.T.);
#332=EDGE_CURVE('',#410,#411,#26,.T.);
#333=EDGE_CURVE('',#411,#403,#27,.T.);
#334=EDGE_CURVE('',#412,#413,#28,.T.);
#335=EDGE_CURVE('',#398,#412,#29,.T.);
#336=EDGE_CURVE('',#399,#413,#30,.T.);
#337=EDGE_CURVE('',#412,#414,#31,.T.);
#338=EDGE_CURVE('',#400,#414,#32,.T.);
#339=EDGE_CURVE('',#414,#415,#33,.T.);
#340=EDGE_CURVE('',#401,#415,#34,.T.);
#341=EDGE_CURVE('',#416,#417,#35,.T.);
#342=EDGE_CURVE('',#418,#416,#36,.T.);
#343=EDGE_CURVE('',#419,#418,#37,.T.);
#344=EDGE_CURVE('',#419,#407,#38,.T.);
#345=EDGE_CURVE('',#406,#420,#39,.T.);
#346=EDGE_CURVE('',#420,#417,#40,.T.);
#347=EDGE_CURVE('',#417,#421,#41,.T.);
#348=EDGE_CURVE('',#422,#421,#42,.T.);
#349=EDGE_CURVE('',#416,#422,#43,.T.);
#350=EDGE_CURVE('',#423,#421,#44,.T.);
#351=EDGE_CURVE('',#405,#423,#45,.T.);
#352=EDGE_CURVE('',#424,#404,#46,.T.);
#353=EDGE_CURVE('',#424,#425,#47,.T.);
#354=EDGE_CURVE('',#425,#422,#48,.T.);
#355=EDGE_CURVE('',#426,#427,#49,.T.);
#356=EDGE_CURVE('',#411,#427,#50,.T.);
#357=EDGE_CURVE('',#410,#426,#51,.T.);
#358=EDGE_CURVE('',#427,#428,#52,.T.);
#359=EDGE_CURVE('',#403,#428,#53,.T.);
#360=EDGE_CURVE('',#429,#428,#54,.T.);
#361=EDGE_CURVE('',#402,#429,#55,.T.);
#362=EDGE_CURVE('',#429,#430,#56,.T.);
#363=EDGE_CURVE('',#431,#430,#57,.T.);
#364=EDGE_CURVE('',#432,#431,#58,.T.);
#365=EDGE_CURVE('',#432,#402,#59,.T.);
#366=EDGE_CURVE('',#433,#430,#60,.T.);
#367=EDGE_CURVE('',#434,#433,#61,.T.);
#368=EDGE_CURVE('',#434,#431,#62,.T.);
#369=EDGE_CURVE('',#435,#433,#63,.T.);
#370=EDGE_CURVE('',#408,#435,#64,.T.);
#371=EDGE_CURVE('',#436,#408,#65,.T.);
#372=EDGE_CURVE('',#436,#434,#66,.T.);
#373=EDGE_CURVE('',#437,#435,#67,.T.);
#374=EDGE_CURVE('',#409,#437,#68,.T.);
#375=EDGE_CURVE('',#438,#438,#450,.T.);
#376=EDGE_CURVE('',#420,#423,#69,.T.);
#377=EDGE_CURVE('',#439,#439,#451,.T.);
#378=EDGE_CURVE('',#426,#437,#70,.T.);
#379=EDGE_CURVE('',#413,#415,#71,.T.);
#380=EDGE_CURVE('',#440,#422,#72,.T.);
#381=EDGE_CURVE('',#441,#440,#73,.T.);
#382=EDGE_CURVE('',#441,#442,#74,.T.);
#383=EDGE_CURVE('',#442,#443,#75,.T.);
#384=EDGE_CURVE('',#416,#443,#76,.T.);
#385=EDGE_CURVE('',#444,#440,#77,.T.);
#386=EDGE_CURVE('',#425,#444,#78,.T.);
#387=EDGE_CURVE('',#424,#432,#79,.T.);
#388=EDGE_CURVE('',#436,#419,#80,.T.);
#389=EDGE_CURVE('',#445,#443,#81,.T.);
#390=EDGE_CURVE('',#445,#418,#82,.T.);
#391=EDGE_CURVE('',#446,#442,#83,.T.);
#392=EDGE_CURVE('',#445,#446,#84,.T.);
#393=EDGE_CURVE('',#447,#441,#85,.T.);
#394=EDGE_CURVE('',#446,#447,#86,.T.);
#395=EDGE_CURVE('',#444,#447,#87,.T.);
#396=VERTEX_POINT('',#775);
#397=VERTEX_POINT('',#777);
#398=VERTEX_POINT('',#779);
#399=VERTEX_POINT('',#780);
#400=VERTEX_POINT('',#782);
#401=VERTEX_POINT('',#784);
#402=VERTEX_POINT('',#787);
#403=VERTEX_POINT('',#788);
#404=VERTEX_POINT('',#790);
#405=VERTEX_POINT('',#792);
#406=VERTEX_POINT('',#794);
#407=VERTEX_POINT('',#796);
#408=VERTEX_POINT('',#798);
#409=VERTEX_POINT('',#800);
#410=VERTEX_POINT('',#802);
#411=VERTEX_POINT('',#804);
#412=VERTEX_POINT('',#808);
#413=VERTEX_POINT('',#809);
#414=VERTEX_POINT('',#814);
#415=VERTEX_POINT('',#818);
#416=VERTEX_POINT('',#822);
#417=VERTEX_POINT('',#823);
#418=VERTEX_POINT('',#825);
#419=VERTEX_POINT('',#827);
#420=VERTEX_POINT('',#830);
#421=VERTEX_POINT('',#834);
#422=VERTEX_POINT('',#836);
#423=VERTEX_POINT('',#840);
#424=VERTEX_POINT('',#843);
#425=VERTEX_POINT('',#845);
#426=VERTEX_POINT('',#849);
#427=VERTEX_POINT('',#850);
#428=VERTEX_POINT('',#855);
#429=VERTEX_POINT('',#859);
#430=VERTEX_POINT('',#863);
#431=VERTEX_POINT('',#865);
#432=VERTEX_POINT('',#867);
#433=VERTEX_POINT('',#871);
#434=VERTEX_POINT('',#873);
#435=VERTEX_POINT('',#877);
#436=VERTEX_POINT('',#880);
#437=VERTEX_POINT('',#884);
#438=VERTEX_POINT('',#888);
#439=VERTEX_POINT('',#893);
#440=VERTEX_POINT('',#900);
#441=VERTEX_POINT('',#902);
#442=VERTEX_POINT('',#904);
#443=VERTEX_POINT('',#906);
#444=VERTEX_POINT('',#911);
#445=VERTEX_POINT('',#919);
#446=VERTEX_POINT('',#923);
#447=VERTEX_POINT('',#927);
#448=CIRCLE('',#598,0.002);
#449=CIRCLE('',#599,0.002);
#450=CIRCLE('',#614,0.002);
#451=CIRCLE('',#617,0.002);
#452=EDGE_LOOP('',(#162));
#453=EDGE_LOOP('',(#163));
#454=EDGE_LOOP('',(#164,#165,#166,#167));
#455=EDGE_LOOP('',(#168,#169,#170,#171,#172,#173,#174,#175,#176,#177));
#456=EDGE_LOOP('',(#178,#179,#180,#181));
#457=EDGE_LOOP('',(#182,#183,#184,#185));
#458=EDGE_LOOP('',(#186,#187,#188,#189));
#459=EDGE_LOOP('',(#190,#191,#192,#193,#194,#195,#196));
#460=EDGE_LOOP('',(#197,#198,#199,#200));
#461=EDGE_LOOP('',(#201,#202,#203,#204,#205,#206,#207));
#462=EDGE_LOOP('',(#208,#209,#210,#211));
#463=EDGE_LOOP('',(#212,#213,#214,#215));
#464=EDGE_LOOP('',(#216,#217,#218,#219));
#465=EDGE_LOOP('',(#220,#221,#222,#223,#224));
#466=EDGE_LOOP('',(#225,#226,#227,#228));
#467=EDGE_LOOP('',(#229,#230,#231,#232,#233));
#468=EDGE_LOOP('',(#234,#235,#236,#237));
#469=EDGE_LOOP('',(#238));
#470=EDGE_LOOP('',(#239));
#471=EDGE_LOOP('',(#240,#241,#242,#243));
#472=EDGE_LOOP('',(#244));
#473=EDGE_LOOP('',(#245));
#474=EDGE_LOOP('',(#246,#247,#248,#249));
#475=EDGE_LOOP('',(#250,#251,#252,#253));
#476=EDGE_LOOP('',(#254,#255,#256,#257,#258,#259));
#477=EDGE_LOOP('',(#260,#261,#262,#263));
#478=EDGE_LOOP('',(#264,#265,#266,#267,#268,#269,#270,#271));
#479=EDGE_LOOP('',(#272));
#480=EDGE_LOOP('',(#273));
#481=EDGE_LOOP('',(#274,#275,#276,#277));
#482=EDGE_LOOP('',(#278,#279,#280,#281));
#483=EDGE_LOOP('',(#282,#283,#284,#285));
#484=EDGE_LOOP('',(#286,#287,#288,#289));
#485=EDGE_LOOP('',(#290,#291,#292,#293));
#486=EDGE_LOOP('',(#294,#295,#296,#297));
#487=EDGE_LOOP('',(#298,#299,#300,#301));
#488=EDGE_LOOP('',(#302,#303,#304,#305));
#489=EDGE_LOOP('',(#306,#307,#308,#309,#310,#311,#312,#313,#314,#315,#316,
#317));
#490=FACE_BOUND('',#452,.T.);
#491=FACE_BOUND('',#453,.T.);
#492=FACE_BOUND('',#454,.T.);
#493=FACE_BOUND('',#455,.T.);
#494=FACE_BOUND('',#456,.T.);
#495=FACE_BOUND('',#457,.T.);
#496=FACE_BOUND('',#458,.T.);
#497=FACE_BOUND('',#459,.T.);
#498=FACE_BOUND('',#460,.T.);
#499=FACE_BOUND('',#461,.T.);
#500=FACE_BOUND('',#462,.T.);
#501=FACE_BOUND('',#463,.T.);
#502=FACE_BOUND('',#464,.T.);
#503=FACE_BOUND('',#465,.T.);
#504=FACE_BOUND('',#466,.T.);
#505=FACE_BOUND('',#467,.T.);
#506=FACE_BOUND('',#468,.T.);
#507=FACE_BOUND('',#469,.T.);
#508=FACE_BOUND('',#470,.T.);
#509=FACE_BOUND('',#471,.T.);
#510=FACE_BOUND('',#472,.T.);
#511=FACE_BOUND('',#473,.T.);
#512=FACE_BOUND('',#474,.T.);
#513=FACE_BOUND('',#475,.T.);
#514=FACE_BOUND('',#476,.T.);
#515=FACE_BOUND('',#477,.T.);
#516=FACE_BOUND('',#478,.T.);
#517=FACE_BOUND('',#479,.T.);
#518=FACE_BOUND('',#480,.T.);
#519=FACE_BOUND('',#481,.T.);
#520=FACE_BOUND('',#482,.T.);
#521=FACE_BOUND('',#483,.T.);
#522=FACE_BOUND('',#484,.T.);
#523=FACE_BOUND('',#485,.T.);
#524=FACE_BOUND('',#486,.T.);
#525=FACE_BOUND('',#487,.T.);
#526=FACE_BOUND('',#488,.T.);
#527=FACE_BOUND('',#489,.T.);
#528=PLANE('',#597);
#529=PLANE('',#600);
#530=PLANE('',#601);
#531=PLANE('',#602);
#532=PLANE('',#603);
#533=PLANE('',#604);
#534=PLANE('',#605);
#535=PLANE('',#606);
#536=PLANE('',#607);
#537=PLANE('',#608);
#538=PLANE('',#609);
#539=PLANE('',#610);
#540=PLANE('',#611);
#541=PLANE('',#612);
#542=PLANE('',#615);
#543=PLANE('',#618);
#544=PLANE('',#619);
#545=PLANE('',#620);
#546=PLANE('',#621);
#547=PLANE('',#622);
#548=PLANE('',#623);
#549=PLANE('',#624);
#550=PLANE('',#625);
#551=PLANE('',#626);
#552=PLANE('',#627);
#553=PLANE('',#628);
#554=PLANE('',#629);
#555=ADVANCED_FACE('',(#490,#491,#492,#493),#528,.T.);
#556=ADVANCED_FACE('',(#494),#529,.T.);
#557=ADVANCED_FACE('',(#495),#530,.F.);
#558=ADVANCED_FACE('',(#496),#531,.F.);
#559=ADVANCED_FACE('',(#497),#532,.F.);
#560=ADVANCED_FACE('',(#498),#533,.F.);
#561=ADVANCED_FACE('',(#499),#534,.T.);
#562=ADVANCED_FACE('',(#500),#535,.F.);
#563=ADVANCED_FACE('',(#501),#536,.F.);
#564=ADVANCED_FACE('',(#502),#537,.T.);
#565=ADVANCED_FACE('',(#503),#538,.F.);
#566=ADVANCED_FACE('',(#504),#539,.T.);
#567=ADVANCED_FACE('',(#505),#540,.T.);
#568=ADVANCED_FACE('',(#506),#541,.T.);
#569=ADVANCED_FACE('',(#507,#508),#12,.F.);
#570=ADVANCED_FACE('',(#509),#542,.T.);
#571=ADVANCED_FACE('',(#510,#511),#13,.F.);
#572=ADVANCED_FACE('',(#512),#543,.T.);
#573=ADVANCED_FACE('',(#513),#544,.T.);
#574=ADVANCED_FACE('',(#514),#545,.T.);
#575=ADVANCED_FACE('',(#515,#516,#517,#518,#519),#546,.F.);
#576=ADVANCED_FACE('',(#520),#547,.T.);
#577=ADVANCED_FACE('',(#521),#548,.F.);
#578=ADVANCED_FACE('',(#522),#549,.F.);
#579=ADVANCED_FACE('',(#523),#550,.T.);
#580=ADVANCED_FACE('',(#524),#551,.F.);
#581=ADVANCED_FACE('',(#525),#552,.F.);
#582=ADVANCED_FACE('',(#526),#553,.T.);
#583=ADVANCED_FACE('',(#527),#554,.T.);
#584=CLOSED_SHELL('',(#555,#556,#557,#558,#559,#560,#561,#562,#563,#564,
#565,#566,#567,#568,#569,#570,#571,#572,#573,#574,#575,#576,#577,#578,#579,
#580,#581,#582,#583));
#585=STYLED_ITEM('',(#586),#593);
#586=PRESENTATION_STYLE_ASSIGNMENT((#587));
#587=SURFACE_STYLE_USAGE(.BOTH.,#588);
#588=SURFACE_SIDE_STYLE('',(#589));
#589=SURFACE_STYLE_FILL_AREA(#590);
#590=FILL_AREA_STYLE('',(#591));
#591=FILL_AREA_STYLE_COLOUR('',#592);
#592=COLOUR_RGB('',0.647058823529412,0.647058823529412,0.647058823529412);
#593=MANIFOLD_SOLID_BREP('Case-top',#584);
#594=SHAPE_DEFINITION_REPRESENTATION(#938,#595);
#595=SHAPE_REPRESENTATION('Case-top',(#596),#933);
#596=AXIS2_PLACEMENT_3D('',#772,#630,#631);
#597=AXIS2_PLACEMENT_3D('',#773,#632,#633);
#598=AXIS2_PLACEMENT_3D('',#774,#634,#635);
#599=AXIS2_PLACEMENT_3D('',#776,#636,#637);
#600=AXIS2_PLACEMENT_3D('',#806,#652,#653);
#601=AXIS2_PLACEMENT_3D('',#812,#657,#658);
#602=AXIS2_PLACEMENT_3D('',#816,#661,#662);
#603=AXIS2_PLACEMENT_3D('',#820,#665,#666);
#604=AXIS2_PLACEMENT_3D('',#832,#673,#674);
#605=AXIS2_PLACEMENT_3D('',#838,#678,#679);
#606=AXIS2_PLACEMENT_3D('',#847,#685,#686);
#607=AXIS2_PLACEMENT_3D('',#853,#690,#691);
#608=AXIS2_PLACEMENT_3D('',#857,#694,#695);
#609=AXIS2_PLACEMENT_3D('',#861,#698,#699);
#610=AXIS2_PLACEMENT_3D('',#869,#704,#705);
#611=AXIS2_PLACEMENT_3D('',#875,#709,#710);
#612=AXIS2_PLACEMENT_3D('',#882,#715,#716);
#613=AXIS2_PLACEMENT_3D('',#886,#719,#720);
#614=AXIS2_PLACEMENT_3D('',#887,#721,#722);
#615=AXIS2_PLACEMENT_3D('',#889,#723,#724);
#616=AXIS2_PLACEMENT_3D('',#891,#726,#727);
#617=AXIS2_PLACEMENT_3D('',#892,#728,#729);
#618=AXIS2_PLACEMENT_3D('',#894,#730,#731);
#619=AXIS2_PLACEMENT_3D('',#896,#733,#734);
#620=AXIS2_PLACEMENT_3D('',#898,#736,#737);
#621=AXIS2_PLACEMENT_3D('',#908,#743,#744);
#622=AXIS2_PLACEMENT_3D('',#909,#745,#746);
#623=AXIS2_PLACEMENT_3D('',#913,#749,#750);
#624=AXIS2_PLACEMENT_3D('',#915,#752,#753);
#625=AXIS2_PLACEMENT_3D('',#917,#755,#756);
#626=AXIS2_PLACEMENT_3D('',#921,#759,#760);
#627=AXIS2_PLACEMENT_3D('',#925,#763,#764);
#628=AXIS2_PLACEMENT_3D('',#929,#767,#768);
#629=AXIS2_PLACEMENT_3D('',#931,#770,#771);
#630=DIRECTION('',(0.,0.,1.));
#631=DIRECTION('',(1.,0.,0.));
#632=DIRECTION('',(0.,0.,1.));
#633=DIRECTION('',(1.,0.,0.));
#634=DIRECTION('',(0.,0.,1.));
#635=DIRECTION('',(1.,0.,0.));
#636=DIRECTION('',(0.,0.,1.));
#637=DIRECTION('',(1.,0.,0.));
#638=DIRECTION('',(6.12624721132466E-17,-1.,0.));
#639=DIRECTION('',(1.,0.,0.));
#640=DIRECTION('',(8.16832961509954E-17,-1.,0.));
#641=DIRECTION('',(1.,0.,0.));
#642=DIRECTION('',(0.,-1.,0.));
#643=DIRECTION('',(0.,1.,0.));
#644=DIRECTION('',(1.,0.,0.));
#645=DIRECTION('',(0.,-1.,0.));
#646=DIRECTION('',(1.,0.,0.));
#647=DIRECTION('',(0.,1.,0.));
#648=DIRECTION('',(0.,-1.,0.));
#649=DIRECTION('',(1.,0.,0.));
#650=DIRECTION('',(0.,-1.,0.));
#651=DIRECTION('',(1.,0.,0.));
#652=DIRECTION('',(1.,6.12624721132466E-17,0.));
#653=DIRECTION('',(-6.12624721132466E-17,1.,0.));
#654=DIRECTION('',(6.12624721132466E-17,-1.,0.));
#655=DIRECTION('',(0.,0.,-1.));
#656=DIRECTION('',(0.,0.,-1.));
#657=DIRECTION('',(0.,1.,0.));
#658=DIRECTION('',(0.,0.,1.));
#659=DIRECTION('',(1.,0.,0.));
#660=DIRECTION('',(0.,0.,-1.));
#661=DIRECTION('',(1.,8.16832961509954E-17,0.));
#662=DIRECTION('',(-8.16832961509954E-17,1.,0.));
#663=DIRECTION('',(8.16832961509954E-17,-1.,0.));
#664=DIRECTION('',(0.,0.,-1.));
#665=DIRECTION('',(0.,1.,0.));
#666=DIRECTION('',(0.,0.,1.));
#667=DIRECTION('',(0.,0.,-1.));
#668=DIRECTION('',(0.,0.,-1.));
#669=DIRECTION('',(1.,0.,0.));
#670=DIRECTION('',(0.,0.,-1.));
#671=DIRECTION('',(0.,0.,-1.));
#672=DIRECTION('',(1.,0.,0.));
#673=DIRECTION('',(1.,0.,0.));
#674=DIRECTION('',(0.,0.,-1.));
#675=DIRECTION('',(0.,-1.,0.));
#676=DIRECTION('',(0.,0.,-1.));
#677=DIRECTION('',(0.,-1.,0.));
#678=DIRECTION('',(0.,1.,0.));
#679=DIRECTION('',(0.,0.,1.));
#680=DIRECTION('',(1.,0.,0.));
#681=DIRECTION('',(0.,0.,-1.));
#682=DIRECTION('',(0.,0.,-1.));
#683=DIRECTION('',(1.,0.,0.));
#684=DIRECTION('',(0.,0.,-1.));
#685=DIRECTION('',(1.,0.,0.));
#686=DIRECTION('',(0.,0.,-1.));
#687=DIRECTION('',(0.,-1.,0.));
#688=DIRECTION('',(0.,0.,-1.));
#689=DIRECTION('',(0.,0.,-1.));
#690=DIRECTION('',(0.,1.,0.));
#691=DIRECTION('',(0.,0.,1.));
#692=DIRECTION('',(1.,0.,0.));
#693=DIRECTION('',(0.,0.,-1.));
#694=DIRECTION('',(1.,0.,0.));
#695=DIRECTION('',(0.,0.,-1.));
#696=DIRECTION('',(0.,-1.,0.));
#697=DIRECTION('',(0.,0.,-1.));
#698=DIRECTION('',(0.,1.,0.));
#699=DIRECTION('',(0.,0.,1.));
#700=DIRECTION('',(1.,0.,0.));
#701=DIRECTION('',(0.,0.,-1.));
#702=DIRECTION('',(1.,0.,0.));
#703=DIRECTION('',(0.,0.,-1.));
#704=DIRECTION('',(1.,0.,0.));
#705=DIRECTION('',(0.,0.,-1.));
#706=DIRECTION('',(0.,-1.,0.));
#707=DIRECTION('',(0.,0.,-1.));
#708=DIRECTION('',(0.,-1.,0.));
#709=DIRECTION('',(0.,1.,0.));
#710=DIRECTION('',(0.,0.,1.));
#711=DIRECTION('',(1.,0.,0.));
#712=DIRECTION('',(0.,0.,-1.));
#713=DIRECTION('',(0.,0.,-1.));
#714=DIRECTION('',(1.,0.,0.));
#715=DIRECTION('',(1.,0.,0.));
#716=DIRECTION('',(0.,0.,-1.));
#717=DIRECTION('',(0.,-1.,0.));
#718=DIRECTION('',(0.,0.,-1.));
#719=DIRECTION('',(0.,0.,-1.));
#720=DIRECTION('',(-1.,0.,0.));
#721=DIRECTION('',(0.,0.,1.));
#722=DIRECTION('',(1.,0.,0.));
#723=DIRECTION('',(1.,0.,0.));
#724=DIRECTION('',(0.,0.,-1.));
#725=DIRECTION('',(0.,-1.,0.));
#726=DIRECTION('',(0.,0.,-1.));
#727=DIRECTION('',(-1.,0.,0.));
#728=DIRECTION('',(0.,0.,1.));
#729=DIRECTION('',(1.,0.,0.));
#730=DIRECTION('',(0.,1.,0.));
#731=DIRECTION('',(0.,0.,1.));
#732=DIRECTION('',(1.,0.,0.));
#733=DIRECTION('',(0.,1.,0.));
#734=DIRECTION('',(0.,0.,1.));
#735=DIRECTION('',(1.,0.,0.));
#736=DIRECTION('',(0.,0.,1.));
#737=DIRECTION('',(1.,0.,0.));
#738=DIRECTION('',(0.,1.,0.));
#739=DIRECTION('',(-1.,0.,0.));
#740=DIRECTION('',(0.,1.,0.));
#741=DIRECTION('',(-1.,0.,0.));
#742=DIRECTION('',(0.,1.,0.));
#743=DIRECTION('',(0.,0.,1.));
#744=DIRECTION('',(1.,0.,0.));
#745=DIRECTION('',(1.,0.,0.));
#746=DIRECTION('',(0.,0.,-1.));
#747=DIRECTION('',(0.,0.,-1.));
#748=DIRECTION('',(0.,-1.,0.));
#749=DIRECTION('',(1.,0.,0.));
#750=DIRECTION('',(0.,0.,-1.));
#751=DIRECTION('',(0.,-1.,0.));
#752=DIRECTION('',(1.,0.,0.));
#753=DIRECTION('',(0.,0.,-1.));
#754=DIRECTION('',(0.,-1.,0.));
#755=DIRECTION('',(1.,0.,0.));
#756=DIRECTION('',(0.,0.,-1.));
#757=DIRECTION('',(0.,0.,-1.));
#758=DIRECTION('',(0.,-1.,0.));
#759=DIRECTION('',(0.,1.,0.));
#760=DIRECTION('',(0.,0.,1.));
#761=DIRECTION('',(0.,0.,-1.));
#762=DIRECTION('',(1.,0.,0.));
#763=DIRECTION('',(1.,0.,0.));
#764=DIRECTION('',(0.,0.,-1.));
#765=DIRECTION('',(0.,0.,-1.));
#766=DIRECTION('',(0.,-1.,0.));
#767=DIRECTION('',(0.,1.,0.));
#768=DIRECTION('',(0.,0.,1.));
#769=DIRECTION('',(1.,0.,0.));
#770=DIRECTION('',(0.,0.,1.));
#771=DIRECTION('',(1.,0.,0.));
#772=CARTESIAN_POINT('',(0.,0.,0.));
#773=CARTESIAN_POINT('',(0.0663474593649673,0.012413842705512,0.017145));
#774=CARTESIAN_POINT('',(0.0279093343649674,0.0663611132055121,0.017145));
#775=CARTESIAN_POINT('',(0.0299093343649674,0.0663611132055121,0.017145));
#776=CARTESIAN_POINT('',(0.0279093343649674,-0.041535327794488,0.017145));
#777=CARTESIAN_POINT('',(0.0299093343649674,-0.041535327794488,0.017145));
#778=CARTESIAN_POINT('',(0.00860810936496734,0.00815483820551422,0.017145));
#779=CARTESIAN_POINT('',(0.00860810936496733,0.0506292132055164,0.017145));
#780=CARTESIAN_POINT('',(0.00860810936496734,-0.034319536794488,0.017145));
#781=CARTESIAN_POINT('',(0.0155793593649673,0.0506292132055164,0.017145));
#782=CARTESIAN_POINT('',(0.0225506093649674,0.0506292132055164,0.017145));
#783=CARTESIAN_POINT('',(0.0225506093649674,0.00815483820551422,0.017145));
#784=CARTESIAN_POINT('',(0.0225506093649674,-0.034319536794488,0.017145));
#785=CARTESIAN_POINT('',(0.0155793593649673,-0.034319536794488,0.017145));
#786=CARTESIAN_POINT('',(0.0538906093649673,-0.032361182294488,0.017145));
#787=CARTESIAN_POINT('',(0.0538906093649673,-0.020687036794488,0.017145));
#788=CARTESIAN_POINT('',(0.0538906093649673,-0.044035327794488,0.017145));
#789=CARTESIAN_POINT('',(0.0538906093649673,0.012413842705512,0.017145));
#790=CARTESIAN_POINT('',(0.0538906093649673,-0.00422168479448815,0.017145));
#791=CARTESIAN_POINT('',(0.0553906093649673,-0.00422168479448815,0.017145));
#792=CARTESIAN_POINT('',(0.0390831093649674,-0.00422168479448815,0.017145));
#793=CARTESIAN_POINT('',(0.0390831093649674,0.00379376420551195,0.017145));
#794=CARTESIAN_POINT('',(0.0390831093649674,0.011809213205512,0.017145));
#795=CARTESIAN_POINT('',(0.0553906093649673,0.011809213205512,0.017145));
#796=CARTESIAN_POINT('',(0.0538906093649673,0.011809213205512,0.017145));
#797=CARTESIAN_POINT('',(0.0538906093649673,0.012413842705512,0.017145));
#798=CARTESIAN_POINT('',(0.0538906093649673,0.036312963205512,0.017145));
#799=CARTESIAN_POINT('',(0.0538906093649673,0.0525879882055121,0.017145));
#800=CARTESIAN_POINT('',(0.0538906093649673,0.0688630132055121,0.017145));
#801=CARTESIAN_POINT('',(0.0279093343649674,0.0688630132055121,0.017145));
#802=CARTESIAN_POINT('',(0.00260430936496733,0.0688630132055121,0.017145));
#803=CARTESIAN_POINT('',(0.00260430936496733,0.0663611132055121,0.017145));
#804=CARTESIAN_POINT('',(0.00260430936496733,-0.044035327794488,0.017145));
#805=CARTESIAN_POINT('',(0.0282474593649674,-0.044035327794488,0.017145));
#806=CARTESIAN_POINT('',(0.00860810936496734,0.00815483820551422,0.017145));
#807=CARTESIAN_POINT('',(0.00860810936496734,0.00815483820551422,0.014605));
#808=CARTESIAN_POINT('',(0.00860810936496733,0.0506292132055164,0.014605));
#809=CARTESIAN_POINT('',(0.00860810936496734,-0.034319536794488,0.014605));
#810=CARTESIAN_POINT('',(0.00860810936496733,0.0506292132055164,0.017145));
#811=CARTESIAN_POINT('',(0.00860810936496734,-0.034319536794488,0.017145));
#812=CARTESIAN_POINT('',(0.0155793593649673,0.0506292132055164,0.017145));
#813=CARTESIAN_POINT('',(0.0155793593649673,0.0506292132055164,0.014605));
#814=CARTESIAN_POINT('',(0.0225506093649674,0.0506292132055164,0.014605));
#815=CARTESIAN_POINT('',(0.0225506093649674,0.0506292132055164,0.017145));
#816=CARTESIAN_POINT('',(0.0225506093649674,0.00815483820551422,0.017145));
#817=CARTESIAN_POINT('',(0.0225506093649674,0.00815483820551422,0.014605));
#818=CARTESIAN_POINT('',(0.0225506093649674,-0.034319536794488,0.014605));
#819=CARTESIAN_POINT('',(0.0225506093649674,-0.034319536794488,0.017145));
#820=CARTESIAN_POINT('',(0.0553906093649673,0.011809213205512,0.017145));
#821=CARTESIAN_POINT('',(0.0568906093649673,0.011809213205512,0.017145));
#822=CARTESIAN_POINT('',(0.0568906093649673,0.011809213205512,0.017145));
#823=CARTESIAN_POINT('',(0.0568906093649673,0.011809213205512,0.014605));
#824=CARTESIAN_POINT('',(0.0568906093649673,0.011809213205512,0.022225));
#825=CARTESIAN_POINT('',(0.0568906093649673,0.011809213205512,0.022225));
#826=CARTESIAN_POINT('',(0.0553906093649673,0.011809213205512,0.022225));
#827=CARTESIAN_POINT('',(0.0538906093649673,0.011809213205512,0.022225));
#828=CARTESIAN_POINT('',(0.0538906093649673,0.011809213205512,0.022225));
#829=CARTESIAN_POINT('',(0.0390831093649674,0.011809213205512,0.017145));
#830=CARTESIAN_POINT('',(0.0390831093649674,0.011809213205512,0.014605));
#831=CARTESIAN_POINT('',(0.0553906093649673,0.011809213205512,0.014605));
#832=CARTESIAN_POINT('',(0.0568906093649673,0.00379376420551195,0.017145));
#833=CARTESIAN_POINT('',(0.0568906093649673,0.00379376420551195,0.014605));
#834=CARTESIAN_POINT('',(0.0568906093649673,-0.00422168479448815,0.014605));
#835=CARTESIAN_POINT('',(0.0568906093649673,-0.00422168479448815,0.017145));
#836=CARTESIAN_POINT('',(0.0568906093649673,-0.00422168479448815,0.017145));
#837=CARTESIAN_POINT('',(0.0568906093649673,0.00379376420551195,0.017145));
#838=CARTESIAN_POINT('',(0.0553906093649673,-0.00422168479448815,0.017145));
#839=CARTESIAN_POINT('',(0.0553906093649673,-0.00422168479448815,0.014605));
#840=CARTESIAN_POINT('',(0.0390831093649674,-0.00422168479448815,0.014605));
#841=CARTESIAN_POINT('',(0.0390831093649674,-0.00422168479448815,0.017145));
#842=CARTESIAN_POINT('',(0.0538906093649673,-0.00422168479448815,0.022225));
#843=CARTESIAN_POINT('',(0.0538906093649673,-0.00422168479448815,0.022225));
#844=CARTESIAN_POINT('',(0.0553906093649673,-0.00422168479448815,0.022225));
#845=CARTESIAN_POINT('',(0.0568906093649673,-0.00422168479448815,0.022225));
#846=CARTESIAN_POINT('',(0.0568906093649673,-0.00422168479448815,0.022225));
#847=CARTESIAN_POINT('',(0.00260430936496733,0.0663611132055121,0.017145));
#848=CARTESIAN_POINT('',(0.00260430936496733,0.0663611132055121,0.014605));
#849=CARTESIAN_POINT('',(0.00260430936496733,0.0688630132055121,0.014605));
#850=CARTESIAN_POINT('',(0.00260430936496733,-0.044035327794488,0.014605));
#851=CARTESIAN_POINT('',(0.00260430936496733,-0.044035327794488,0.017145));
#852=CARTESIAN_POINT('',(0.00260430936496733,0.0688630132055121,0.017145));
#853=CARTESIAN_POINT('',(0.0282474593649674,-0.044035327794488,0.017145));
#854=CARTESIAN_POINT('',(0.0282474593649674,-0.044035327794488,0.014605));
#855=CARTESIAN_POINT('',(0.0538906093649673,-0.044035327794488,0.014605));
#856=CARTESIAN_POINT('',(0.0538906093649673,-0.044035327794488,0.017145));
#857=CARTESIAN_POINT('',(0.0538906093649673,-0.032361182294488,0.017145));
#858=CARTESIAN_POINT('',(0.0538906093649673,-0.032361182294488,0.014605));
#859=CARTESIAN_POINT('',(0.0538906093649673,-0.020687036794488,0.014605));
#860=CARTESIAN_POINT('',(0.0538906093649673,-0.020687036794488,0.017145));
#861=CARTESIAN_POINT('',(0.0919906093649673,-0.020687036794488,0.017145));
#862=CARTESIAN_POINT('',(0.0919906093649673,-0.020687036794488,0.014605));
#863=CARTESIAN_POINT('',(0.130090609364967,-0.020687036794488,0.014605));
#864=CARTESIAN_POINT('',(0.130090609364967,-0.020687036794488,0.017145));
#865=CARTESIAN_POINT('',(0.130090609364967,-0.020687036794488,0.022225));
#866=CARTESIAN_POINT('',(0.0919906093649673,-0.020687036794488,0.022225));
#867=CARTESIAN_POINT('',(0.0538906093649673,-0.020687036794488,0.022225));
#868=CARTESIAN_POINT('',(0.0538906093649673,-0.020687036794488,0.022225));
#869=CARTESIAN_POINT('',(0.130090609364967,0.00781296320551205,0.017145));
#870=CARTESIAN_POINT('',(0.130090609364967,0.00781296320551205,0.014605));
#871=CARTESIAN_POINT('',(0.130090609364967,0.036312963205512,0.014605));
#872=CARTESIAN_POINT('',(0.130090609364967,0.036312963205512,0.017145));
#873=CARTESIAN_POINT('',(0.130090609364967,0.036312963205512,0.022225));
#874=CARTESIAN_POINT('',(0.130090609364967,0.00781296320551205,0.022225));
#875=CARTESIAN_POINT('',(0.0919906093649673,0.036312963205512,0.017145));
#876=CARTESIAN_POINT('',(0.0919906093649673,0.036312963205512,0.014605));
#877=CARTESIAN_POINT('',(0.0538906093649673,0.036312963205512,0.014605));
#878=CARTESIAN_POINT('',(0.0538906093649673,0.036312963205512,0.017145));
#879=CARTESIAN_POINT('',(0.0538906093649673,0.036312963205512,0.022225));
#880=CARTESIAN_POINT('',(0.0538906093649673,0.036312963205512,0.022225));
#881=CARTESIAN_POINT('',(0.0919906093649673,0.036312963205512,0.022225));
#882=CARTESIAN_POINT('',(0.0538906093649673,0.0525879882055121,0.017145));
#883=CARTESIAN_POINT('',(0.0538906093649673,0.0525879882055121,0.014605));
#884=CARTESIAN_POINT('',(0.0538906093649673,0.0688630132055121,0.014605));
#885=CARTESIAN_POINT('',(0.0538906093649673,0.0688630132055121,0.017145));
#886=CARTESIAN_POINT('',(0.0279093343649674,-0.041535327794488,0.017145));
#887=CARTESIAN_POINT('',(0.0279093343649674,-0.041535327794488,0.014605));
#888=CARTESIAN_POINT('',(0.0299093343649674,-0.041535327794488,0.014605));
#889=CARTESIAN_POINT('',(0.0390831093649674,0.00379376420551195,0.017145));
#890=CARTESIAN_POINT('',(0.0390831093649674,0.00379376420551195,0.014605));
#891=CARTESIAN_POINT('',(0.0279093343649674,0.0663611132055121,0.017145));
#892=CARTESIAN_POINT('',(0.0279093343649674,0.0663611132055121,0.014605));
#893=CARTESIAN_POINT('',(0.0299093343649674,0.0663611132055121,0.014605));
#894=CARTESIAN_POINT('',(0.0279093343649674,0.0688630132055121,0.017145));
#895=CARTESIAN_POINT('',(0.0279093343649674,0.0688630132055121,0.014605));
#896=CARTESIAN_POINT('',(0.0155793593649673,-0.034319536794488,0.017145));
#897=CARTESIAN_POINT('',(0.0155793593649673,-0.034319536794488,0.014605));
#898=CARTESIAN_POINT('',(0.0663474593649673,0.012413842705512,0.017145));
#899=CARTESIAN_POINT('',(0.0568906093649673,0.012413842705512,0.017145));
#900=CARTESIAN_POINT('',(0.0568906093649673,-0.017687036794488,0.017145));
#901=CARTESIAN_POINT('',(0.0663474593649673,-0.017687036794488,0.017145));
#902=CARTESIAN_POINT('',(0.127090609364967,-0.017687036794488,0.017145));
#903=CARTESIAN_POINT('',(0.127090609364967,0.012413842705512,0.017145));
#904=CARTESIAN_POINT('',(0.127090609364967,0.033312963205512,0.017145));
#905=CARTESIAN_POINT('',(0.0663474593649673,0.033312963205512,0.017145));
#906=CARTESIAN_POINT('',(0.0568906093649673,0.033312963205512,0.017145));
#907=CARTESIAN_POINT('',(0.0568906093649673,0.012413842705512,0.017145));
#908=CARTESIAN_POINT('',(0.0663474593649673,0.012413842705512,0.014605));
#909=CARTESIAN_POINT('',(0.0568906093649673,-0.010954360794488,0.022225));
#910=CARTESIAN_POINT('',(0.0568906093649673,-0.017687036794488,0.022225));
#911=CARTESIAN_POINT('',(0.0568906093649673,-0.017687036794488,0.022225));
#912=CARTESIAN_POINT('',(0.0568906093649673,-0.010954360794488,0.022225));
#913=CARTESIAN_POINT('',(0.0538906093649673,-0.012454360794488,0.022225));
#914=CARTESIAN_POINT('',(0.0538906093649673,-0.012454360794488,0.022225));
#915=CARTESIAN_POINT('',(0.0538906093649673,0.024061088205512,0.022225));
#916=CARTESIAN_POINT('',(0.0538906093649673,0.024061088205512,0.022225));
#917=CARTESIAN_POINT('',(0.0568906093649673,0.022561088205512,0.022225));
#918=CARTESIAN_POINT('',(0.0568906093649673,0.033312963205512,0.022225));
#919=CARTESIAN_POINT('',(0.0568906093649673,0.033312963205512,0.022225));
#920=CARTESIAN_POINT('',(0.0568906093649673,0.022561088205512,0.022225));
#921=CARTESIAN_POINT('',(0.0919906093649673,0.033312963205512,0.022225));
#922=CARTESIAN_POINT('',(0.127090609364967,0.033312963205512,0.022225));
#923=CARTESIAN_POINT('',(0.127090609364967,0.033312963205512,0.022225));
#924=CARTESIAN_POINT('',(0.0919906093649673,0.033312963205512,0.022225));
#925=CARTESIAN_POINT('',(0.127090609364967,0.00781296320551205,0.022225));
#926=CARTESIAN_POINT('',(0.127090609364967,-0.017687036794488,0.022225));
#927=CARTESIAN_POINT('',(0.127090609364967,-0.017687036794488,0.022225));
#928=CARTESIAN_POINT('',(0.127090609364967,0.00781296320551205,0.022225));
#929=CARTESIAN_POINT('',(0.0919906093649673,-0.017687036794488,0.022225));
#930=CARTESIAN_POINT('',(0.0919906093649673,-0.017687036794488,0.022225));
#931=CARTESIAN_POINT('',(0.0663474593649673,0.012413842705512,0.022225));
#932=MECHANICAL_DESIGN_GEOMETRIC_PRESENTATION_REPRESENTATION('',(#585),
#933);
#933=(
GEOMETRIC_REPRESENTATION_CONTEXT(3)
GLOBAL_UNCERTAINTY_ASSIGNED_CONTEXT((#934))
GLOBAL_UNIT_ASSIGNED_CONTEXT((#937,#936,#935))
REPRESENTATION_CONTEXT('Case-top','TOP_LEVEL_ASSEMBLY_PART')
);
#934=UNCERTAINTY_MEASURE_WITH_UNIT(LENGTH_MEASURE(1.E-8),#937,
'DISTANCE_ACCURACY_VALUE','Maximum Tolerance applied to model');
#935=(
NAMED_UNIT(*)
SI_UNIT($,.STERADIAN.)
SOLID_ANGLE_UNIT()
);
#936=(
NAMED_UNIT(*)
PLANE_ANGLE_UNIT()
SI_UNIT($,.RADIAN.)
);
#937=(
LENGTH_UNIT()
NAMED_UNIT(*)
SI_UNIT($,.METRE.)
);
#938=PRODUCT_DEFINITION_SHAPE('','',#939);
#939=PRODUCT_DEFINITION('','',#941,#940);
#940=PRODUCT_DEFINITION_CONTEXT('',#947,'design');
#941=PRODUCT_DEFINITION_FORMATION_WITH_SPECIFIED_SOURCE('','',#943,
 .NOT_KNOWN.);
#942=PRODUCT_RELATED_PRODUCT_CATEGORY('','',(#943));
#943=PRODUCT('Case-top','Case-top','Case-top',(#945));
#944=PRODUCT_CATEGORY('','');
#945=PRODUCT_CONTEXT('',#947,'mechanical');
#946=APPLICATION_PROTOCOL_DEFINITION('international standard',
'ap242_managed_model_based_3d_engineering',2020,#947);
#947=APPLICATION_CONTEXT('managed model based 3d engineering');
ENDSEC;
END-ISO-10303-21;
