ISO-10303-21;
HEADER;
/* Generated by software containing ST-Developer
 * from STEP Tools, Inc. (www.steptools.com) 
 */
/* OPTION: using custom renumber hook */

FILE_DESCRIPTION(
/* description */ ('STEP AP242 Edition 2',
'CAx-IF Rec.Pracs.---Representation and Presentation of Product Manufa
cturing Information (PMI)---4.0---2014-10-13',
'CAx-IF Rec.Pracs.---3D Tessellated Geometry---0.4---2014-09-14','2;1',
'CAx-IF Rec.Pracs.---User Defined Attributes---1.5---2016-08-15'),
/* implementation_level */ '2;1');

FILE_NAME(
/* name */ 'Case Parts(V2) - Case-bottom',
/* time_stamp */ '2026-08-01T19:25:54Z',
/* author */ (''),
/* organization */ (''),
/* preprocessor_version */ 'ST-DEVELOPER v20',
/* originating_system */ 'ONSHAPE BY PTC INC, 1.218',
/* authorisation */ '  ');

FILE_SCHEMA (('AP242_MANAGED_MODEL_BASED_3D_ENGINEERING_MIM_LF { 1 0 10303 442 3 1 4 }'));
ENDSEC;

DATA;
#10=SHAPE_REPRESENTATION_RELATIONSHIP('','',#513,#11);
#11=ADVANCED_BREP_SHAPE_REPRESENTATION('',(#511),#813);
#12=CIRCLE('',#524,0.003005412);
#13=CIRCLE('',#525,0.003005412);
#14=CIRCLE('',#527,0.003);
#15=CIRCLE('',#528,0.003);
#16=CIRCLE('',#530,0.003);
#17=CIRCLE('',#531,0.003);
#18=CIRCLE('',#536,0.002);
#19=CIRCLE('',#537,0.002);
#20=CIRCLE('',#544,0.002);
#21=CIRCLE('',#547,0.002);
#22=CYLINDRICAL_SURFACE('',#523,0.003005412);
#23=CYLINDRICAL_SURFACE('',#526,0.003);
#24=CYLINDRICAL_SURFACE('',#529,0.003);
#25=CYLINDRICAL_SURFACE('',#548,0.002);
#26=CYLINDRICAL_SURFACE('',#549,0.002);
#27=ORIENTED_EDGE('',*,*,#155,.F.);
#28=ORIENTED_EDGE('',*,*,#156,.T.);
#29=ORIENTED_EDGE('',*,*,#157,.T.);
#30=ORIENTED_EDGE('',*,*,#158,.F.);
#31=ORIENTED_EDGE('',*,*,#159,.F.);
#32=ORIENTED_EDGE('',*,*,#160,.T.);
#33=ORIENTED_EDGE('',*,*,#161,.T.);
#34=ORIENTED_EDGE('',*,*,#162,.F.);
#35=ORIENTED_EDGE('',*,*,#163,.F.);
#36=ORIENTED_EDGE('',*,*,#164,.T.);
#37=ORIENTED_EDGE('',*,*,#165,.F.);
#38=ORIENTED_EDGE('',*,*,#166,.F.);
#39=ORIENTED_EDGE('',*,*,#167,.F.);
#40=ORIENTED_EDGE('',*,*,#168,.F.);
#41=ORIENTED_EDGE('',*,*,#169,.T.);
#42=ORIENTED_EDGE('',*,*,#170,.T.);
#43=ORIENTED_EDGE('',*,*,#171,.T.);
#44=ORIENTED_EDGE('',*,*,#172,.F.);
#45=ORIENTED_EDGE('',*,*,#173,.F.);
#46=ORIENTED_EDGE('',*,*,#168,.T.);
#47=ORIENTED_EDGE('',*,*,#174,.T.);
#48=ORIENTED_EDGE('',*,*,#175,.F.);
#49=ORIENTED_EDGE('',*,*,#176,.F.);
#50=ORIENTED_EDGE('',*,*,#172,.T.);
#51=ORIENTED_EDGE('',*,*,#177,.F.);
#52=ORIENTED_EDGE('',*,*,#178,.F.);
#53=ORIENTED_EDGE('',*,*,#179,.T.);
#54=ORIENTED_EDGE('',*,*,#156,.F.);
#55=ORIENTED_EDGE('',*,*,#180,.F.);
#56=ORIENTED_EDGE('',*,*,#181,.F.);
#57=ORIENTED_EDGE('',*,*,#182,.T.);
#58=ORIENTED_EDGE('',*,*,#183,.T.);
#59=ORIENTED_EDGE('',*,*,#164,.F.);
#60=ORIENTED_EDGE('',*,*,#184,.F.);
#61=ORIENTED_EDGE('',*,*,#185,.F.);
#62=ORIENTED_EDGE('',*,*,#177,.T.);
#63=ORIENTED_EDGE('',*,*,#186,.T.);
#64=ORIENTED_EDGE('',*,*,#187,.F.);
#65=ORIENTED_EDGE('',*,*,#188,.F.);
#66=ORIENTED_EDGE('',*,*,#189,.F.);
#67=ORIENTED_EDGE('',*,*,#165,.T.);
#68=ORIENTED_EDGE('',*,*,#187,.T.);
#69=ORIENTED_EDGE('',*,*,#190,.T.);
#70=ORIENTED_EDGE('',*,*,#191,.F.);
#71=ORIENTED_EDGE('',*,*,#192,.T.);
#72=ORIENTED_EDGE('',*,*,#193,.F.);
#73=ORIENTED_EDGE('',*,*,#194,.T.);
#74=ORIENTED_EDGE('',*,*,#195,.F.);
#75=ORIENTED_EDGE('',*,*,#189,.T.);
#76=ORIENTED_EDGE('',*,*,#196,.F.);
#77=ORIENTED_EDGE('',*,*,#182,.F.);
#78=ORIENTED_EDGE('',*,*,#197,.T.);
#79=ORIENTED_EDGE('',*,*,#198,.T.);
#80=ORIENTED_EDGE('',*,*,#166,.T.);
#81=ORIENTED_EDGE('',*,*,#199,.F.);
#82=ORIENTED_EDGE('',*,*,#170,.F.);
#83=ORIENTED_EDGE('',*,*,#200,.T.);
#84=ORIENTED_EDGE('',*,*,#175,.T.);
#85=ORIENTED_EDGE('',*,*,#201,.F.);
#86=ORIENTED_EDGE('',*,*,#202,.F.);
#87=ORIENTED_EDGE('',*,*,#203,.T.);
#88=ORIENTED_EDGE('',*,*,#204,.T.);
#89=ORIENTED_EDGE('',*,*,#194,.F.);
#90=ORIENTED_EDGE('',*,*,#192,.F.);
#91=ORIENTED_EDGE('',*,*,#190,.F.);
#92=ORIENTED_EDGE('',*,*,#169,.F.);
#93=ORIENTED_EDGE('',*,*,#173,.T.);
#94=ORIENTED_EDGE('',*,*,#176,.T.);
#95=ORIENTED_EDGE('',*,*,#200,.F.);
#96=ORIENTED_EDGE('',*,*,#205,.T.);
#97=ORIENTED_EDGE('',*,*,#206,.T.);
#98=ORIENTED_EDGE('',*,*,#186,.F.);
#99=ORIENTED_EDGE('',*,*,#183,.F.);
#100=ORIENTED_EDGE('',*,*,#196,.T.);
#101=ORIENTED_EDGE('',*,*,#188,.T.);
#102=ORIENTED_EDGE('',*,*,#167,.T.);
#103=ORIENTED_EDGE('',*,*,#199,.T.);
#104=ORIENTED_EDGE('',*,*,#174,.F.);
#105=ORIENTED_EDGE('',*,*,#171,.F.);
#106=ORIENTED_EDGE('',*,*,#191,.T.);
#107=ORIENTED_EDGE('',*,*,#193,.T.);
#108=ORIENTED_EDGE('',*,*,#195,.T.);
#109=ORIENTED_EDGE('',*,*,#207,.T.);
#110=ORIENTED_EDGE('',*,*,#201,.T.);
#111=ORIENTED_EDGE('',*,*,#208,.F.);
#112=ORIENTED_EDGE('',*,*,#158,.T.);
#113=ORIENTED_EDGE('',*,*,#160,.F.);
#114=ORIENTED_EDGE('',*,*,#209,.F.);
#115=ORIENTED_EDGE('',*,*,#210,.T.);
#116=ORIENTED_EDGE('',*,*,#180,.T.);
#117=ORIENTED_EDGE('',*,*,#155,.T.);
#118=ORIENTED_EDGE('',*,*,#208,.T.);
#119=ORIENTED_EDGE('',*,*,#204,.F.);
#120=ORIENTED_EDGE('',*,*,#211,.F.);
#121=ORIENTED_EDGE('',*,*,#203,.F.);
#122=ORIENTED_EDGE('',*,*,#212,.F.);
#123=ORIENTED_EDGE('',*,*,#161,.F.);
#124=ORIENTED_EDGE('',*,*,#211,.T.);
#125=ORIENTED_EDGE('',*,*,#202,.T.);
#126=ORIENTED_EDGE('',*,*,#207,.F.);
#127=ORIENTED_EDGE('',*,*,#157,.F.);
#128=ORIENTED_EDGE('',*,*,#179,.F.);
#129=ORIENTED_EDGE('',*,*,#213,.F.);
#130=ORIENTED_EDGE('',*,*,#214,.T.);
#131=ORIENTED_EDGE('',*,*,#162,.T.);
#132=ORIENTED_EDGE('',*,*,#212,.T.);
#133=ORIENTED_EDGE('',*,*,#184,.T.);
#134=ORIENTED_EDGE('',*,*,#163,.T.);
#135=ORIENTED_EDGE('',*,*,#214,.F.);
#136=ORIENTED_EDGE('',*,*,#215,.T.);
#137=ORIENTED_EDGE('',*,*,#216,.F.);
#138=ORIENTED_EDGE('',*,*,#213,.T.);
#139=ORIENTED_EDGE('',*,*,#178,.T.);
#140=ORIENTED_EDGE('',*,*,#185,.T.);
#141=ORIENTED_EDGE('',*,*,#215,.F.);
#142=ORIENTED_EDGE('',*,*,#209,.T.);
#143=ORIENTED_EDGE('',*,*,#159,.T.);
#144=ORIENTED_EDGE('',*,*,#198,.F.);
#145=ORIENTED_EDGE('',*,*,#217,.T.);
#146=ORIENTED_EDGE('',*,*,#218,.F.);
#147=ORIENTED_EDGE('',*,*,#210,.F.);
#148=ORIENTED_EDGE('',*,*,#217,.F.);
#149=ORIENTED_EDGE('',*,*,#197,.F.);
#150=ORIENTED_EDGE('',*,*,#181,.T.);
#151=ORIENTED_EDGE('',*,*,#218,.T.);
#152=ORIENTED_EDGE('',*,*,#206,.F.);
#153=ORIENTED_EDGE('',*,*,#216,.T.);
#154=ORIENTED_EDGE('',*,*,#205,.F.);
#155=EDGE_CURVE('',#219,#220,#265,.T.);
#156=EDGE_CURVE('',#219,#221,#266,.T.);
#157=EDGE_CURVE('',#221,#222,#267,.T.);
#158=EDGE_CURVE('',#220,#222,#268,.T.);
#159=EDGE_CURVE('',#223,#224,#269,.T.);
#160=EDGE_CURVE('',#223,#225,#270,.T.);
#161=EDGE_CURVE('',#225,#226,#271,.T.);
#162=EDGE_CURVE('',#227,#226,#272,.T.);
#163=EDGE_CURVE('',#228,#227,#273,.T.);
#164=EDGE_CURVE('',#228,#229,#274,.T.);
#165=EDGE_CURVE('',#230,#229,#275,.T.);
#166=EDGE_CURVE('',#224,#230,#276,.T.);
#167=EDGE_CURVE('',#231,#232,#277,.T.);
#168=EDGE_CURVE('',#233,#231,#278,.T.);
#169=EDGE_CURVE('',#233,#234,#279,.T.);
#170=EDGE_CURVE('',#234,#232,#280,.T.);
#171=EDGE_CURVE('',#231,#235,#281,.T.);
#172=EDGE_CURVE('',#236,#235,#282,.T.);
#173=EDGE_CURVE('',#233,#236,#283,.T.);
#174=EDGE_CURVE('',#235,#237,#284,.T.);
#175=EDGE_CURVE('',#238,#237,#285,.T.);
#176=EDGE_CURVE('',#236,#238,#286,.T.);
#177=EDGE_CURVE('',#239,#240,#287,.T.);
#178=EDGE_CURVE('',#241,#239,#288,.T.);
#179=EDGE_CURVE('',#241,#221,#289,.T.);
#180=EDGE_CURVE('',#242,#219,#290,.T.);
#181=EDGE_CURVE('',#243,#242,#291,.T.);
#182=EDGE_CURVE('',#243,#244,#292,.T.);
#183=EDGE_CURVE('',#244,#240,#293,.T.);
#184=EDGE_CURVE('',#245,#228,#294,.T.);
#185=EDGE_CURVE('',#239,#245,#295,.T.);
#186=EDGE_CURVE('',#240,#246,#296,.T.);
#187=EDGE_CURVE('',#229,#246,#297,.T.);
#188=EDGE_CURVE('',#247,#246,#298,.T.);
#189=EDGE_CURVE('',#230,#247,#299,.T.);
#190=EDGE_CURVE('',#248,#248,#12,.T.);
#191=EDGE_CURVE('',#249,#249,#13,.T.);
#192=EDGE_CURVE('',#250,#250,#14,.T.);
#193=EDGE_CURVE('',#251,#251,#15,.T.);
#194=EDGE_CURVE('',#252,#252,#16,.T.);
#195=EDGE_CURVE('',#253,#253,#17,.T.);
#196=EDGE_CURVE('',#244,#247,#300,.T.);
#197=EDGE_CURVE('',#243,#254,#301,.T.);
#198=EDGE_CURVE('',#254,#224,#302,.T.);
#199=EDGE_CURVE('',#232,#237,#303,.T.);
#200=EDGE_CURVE('',#234,#238,#304,.T.);
#201=EDGE_CURVE('',#255,#256,#305,.T.);
#202=EDGE_CURVE('',#257,#255,#306,.T.);
#203=EDGE_CURVE('',#257,#258,#307,.T.);
#204=EDGE_CURVE('',#258,#256,#308,.T.);
#205=EDGE_CURVE('',#259,#259,#18,.T.);
#206=EDGE_CURVE('',#260,#260,#19,.T.);
#207=EDGE_CURVE('',#222,#255,#309,.T.);
#208=EDGE_CURVE('',#220,#256,#310,.T.);
#209=EDGE_CURVE('',#261,#223,#311,.T.);
#210=EDGE_CURVE('',#261,#242,#312,.T.);
#211=EDGE_CURVE('',#225,#258,#313,.T.);
#212=EDGE_CURVE('',#226,#257,#314,.T.);
#213=EDGE_CURVE('',#262,#241,#315,.T.);
#214=EDGE_CURVE('',#262,#227,#316,.T.);
#215=EDGE_CURVE('',#262,#245,#317,.T.);
#216=EDGE_CURVE('',#263,#263,#20,.T.);
#217=EDGE_CURVE('',#254,#261,#318,.T.);
#218=EDGE_CURVE('',#264,#264,#21,.T.);
#219=VERTEX_POINT('',#679);
#220=VERTEX_POINT('',#680);
#221=VERTEX_POINT('',#682);
#222=VERTEX_POINT('',#684);
#223=VERTEX_POINT('',#688);
#224=VERTEX_POINT('',#689);
#225=VERTEX_POINT('',#691);
#226=VERTEX_POINT('',#693);
#227=VERTEX_POINT('',#695);
#228=VERTEX_POINT('',#697);
#229=VERTEX_POINT('',#699);
#230=VERTEX_POINT('',#701);
#231=VERTEX_POINT('',#705);
#232=VERTEX_POINT('',#706);
#233=VERTEX_POINT('',#708);
#234=VERTEX_POINT('',#710);
#235=VERTEX_POINT('',#714);
#236=VERTEX_POINT('',#716);
#237=VERTEX_POINT('',#720);
#238=VERTEX_POINT('',#722);
#239=VERTEX_POINT('',#726);
#240=VERTEX_POINT('',#727);
#241=VERTEX_POINT('',#729);
#242=VERTEX_POINT('',#732);
#243=VERTEX_POINT('',#734);
#244=VERTEX_POINT('',#736);
#245=VERTEX_POINT('',#740);
#246=VERTEX_POINT('',#743);
#247=VERTEX_POINT('',#747);
#248=VERTEX_POINT('',#751);
#249=VERTEX_POINT('',#753);
#250=VERTEX_POINT('',#756);
#251=VERTEX_POINT('',#758);
#252=VERTEX_POINT('',#761);
#253=VERTEX_POINT('',#763);
#254=VERTEX_POINT('',#767);
#255=VERTEX_POINT('',#774);
#256=VERTEX_POINT('',#775);
#257=VERTEX_POINT('',#777);
#258=VERTEX_POINT('',#779);
#259=VERTEX_POINT('',#783);
#260=VERTEX_POINT('',#785);
#261=VERTEX_POINT('',#791);
#262=VERTEX_POINT('',#798);
#263=VERTEX_POINT('',#804);
#264=VERTEX_POINT('',#809);
#265=LINE('',#678,#319);
#266=LINE('',#681,#320);
#267=LINE('',#683,#321);
#268=LINE('',#685,#322);
#269=LINE('',#687,#323);
#270=LINE('',#690,#324);
#271=LINE('',#692,#325);
#272=LINE('',#694,#326);
#273=LINE('',#696,#327);
#274=LINE('',#698,#328);
#275=LINE('',#700,#329);
#276=LINE('',#702,#330);
#277=LINE('',#704,#331);
#278=LINE('',#707,#332);
#279=LINE('',#709,#333);
#280=LINE('',#711,#334);
#281=LINE('',#713,#335);
#282=LINE('',#715,#336);
#283=LINE('',#717,#337);
#284=LINE('',#719,#338);
#285=LINE('',#721,#339);
#286=LINE('',#723,#340);
#287=LINE('',#725,#341);
#288=LINE('',#728,#342);
#289=LINE('',#730,#343);
#290=LINE('',#731,#344);
#291=LINE('',#733,#345);
#292=LINE('',#735,#346);
#293=LINE('',#737,#347);
#294=LINE('',#739,#348);
#295=LINE('',#741,#349);
#296=LINE('',#742,#350);
#297=LINE('',#744,#351);
#298=LINE('',#746,#352);
#299=LINE('',#748,#353);
#300=LINE('',#765,#354);
#301=LINE('',#766,#355);
#302=LINE('',#768,#356);
#303=LINE('',#770,#357);
#304=LINE('',#771,#358);
#305=LINE('',#773,#359);
#306=LINE('',#776,#360);
#307=LINE('',#778,#361);
#308=LINE('',#780,#362);
#309=LINE('',#787,#363);
#310=LINE('',#788,#364);
#311=LINE('',#790,#365);
#312=LINE('',#792,#366);
#313=LINE('',#793,#367);
#314=LINE('',#795,#368);
#315=LINE('',#797,#369);
#316=LINE('',#799,#370);
#317=LINE('',#801,#371);
#318=LINE('',#806,#372);
#319=VECTOR('',#554,1.);
#320=VECTOR('',#555,1.);
#321=VECTOR('',#556,1.);
#322=VECTOR('',#557,1.);
#323=VECTOR('',#560,1.);
#324=VECTOR('',#561,1.);
#325=VECTOR('',#562,1.);
#326=VECTOR('',#563,1.);
#327=VECTOR('',#564,1.);
#328=VECTOR('',#565,1.);
#329=VECTOR('',#566,1.);
#330=VECTOR('',#567,1.);
#331=VECTOR('',#570,1.);
#332=VECTOR('',#571,1.);
#333=VECTOR('',#572,1.);
#334=VECTOR('',#573,1.);
#335=VECTOR('',#576,1.);
#336=VECTOR('',#577,1.);
#337=VECTOR('',#578,1.);
#338=VECTOR('',#581,1.);
#339=VECTOR('',#582,1.);
#340=VECTOR('',#583,1.);
#341=VECTOR('',#586,1.);
#342=VECTOR('',#587,1.);
#343=VECTOR('',#588,1.);
#344=VECTOR('',#589,1.);
#345=VECTOR('',#590,1.);
#346=VECTOR('',#591,1.);
#347=VECTOR('',#592,1.);
#348=VECTOR('',#595,1.);
#349=VECTOR('',#596,1.);
#350=VECTOR('',#597,1.);
#351=VECTOR('',#598,1.);
#352=VECTOR('',#601,1.);
#353=VECTOR('',#602,1.);
#354=VECTOR('',#623,1.);
#355=VECTOR('',#624,1.);
#356=VECTOR('',#625,1.);
#357=VECTOR('',#628,1.);
#358=VECTOR('',#629,1.);
#359=VECTOR('',#632,1.);
#360=VECTOR('',#633,1.);
#361=VECTOR('',#634,1.);
#362=VECTOR('',#635,1.);
#363=VECTOR('',#644,1.);
#364=VECTOR('',#645,1.);
#365=VECTOR('',#648,1.);
#366=VECTOR('',#649,1.);
#367=VECTOR('',#650,1.);
#368=VECTOR('',#653,1.);
#369=VECTOR('',#656,1.);
#370=VECTOR('',#657,1.);
#371=VECTOR('',#660,1.);
#372=VECTOR('',#667,1.);
#373=EDGE_LOOP('',(#27,#28,#29,#30));
#374=EDGE_LOOP('',(#31,#32,#33,#34,#35,#36,#37,#38));
#375=EDGE_LOOP('',(#39,#40,#41,#42));
#376=EDGE_LOOP('',(#43,#44,#45,#46));
#377=EDGE_LOOP('',(#47,#48,#49,#50));
#378=EDGE_LOOP('',(#51,#52,#53,#54,#55,#56,#57,#58));
#379=EDGE_LOOP('',(#59,#60,#61,#62,#63,#64));
#380=EDGE_LOOP('',(#65,#66,#67,#68));
#381=EDGE_LOOP('',(#69));
#382=EDGE_LOOP('',(#70));
#383=EDGE_LOOP('',(#71));
#384=EDGE_LOOP('',(#72));
#385=EDGE_LOOP('',(#73));
#386=EDGE_LOOP('',(#74));
#387=EDGE_LOOP('',(#75,#76,#77,#78,#79,#80));
#388=EDGE_LOOP('',(#81,#82,#83,#84));
#389=EDGE_LOOP('',(#85,#86,#87,#88));
#390=EDGE_LOOP('',(#89));
#391=EDGE_LOOP('',(#90));
#392=EDGE_LOOP('',(#91));
#393=EDGE_LOOP('',(#92,#93,#94,#95));
#394=EDGE_LOOP('',(#96));
#395=EDGE_LOOP('',(#97));
#396=EDGE_LOOP('',(#98,#99,#100,#101));
#397=EDGE_LOOP('',(#102,#103,#104,#105));
#398=EDGE_LOOP('',(#106));
#399=EDGE_LOOP('',(#107));
#400=EDGE_LOOP('',(#108));
#401=EDGE_LOOP('',(#109,#110,#111,#112));
#402=EDGE_LOOP('',(#113,#114,#115,#116,#117,#118,#119,#120));
#403=EDGE_LOOP('',(#121,#122,#123,#124));
#404=EDGE_LOOP('',(#125,#126,#127,#128,#129,#130,#131,#132));
#405=EDGE_LOOP('',(#133,#134,#135,#136));
#406=EDGE_LOOP('',(#137));
#407=EDGE_LOOP('',(#138,#139,#140,#141));
#408=EDGE_LOOP('',(#142,#143,#144,#145));
#409=EDGE_LOOP('',(#146));
#410=EDGE_LOOP('',(#147,#148,#149,#150));
#411=EDGE_LOOP('',(#151));
#412=EDGE_LOOP('',(#152));
#413=EDGE_LOOP('',(#153));
#414=EDGE_LOOP('',(#154));
#415=FACE_BOUND('',#373,.T.);
#416=FACE_BOUND('',#374,.T.);
#417=FACE_BOUND('',#375,.T.);
#418=FACE_BOUND('',#376,.T.);
#419=FACE_BOUND('',#377,.T.);
#420=FACE_BOUND('',#378,.T.);
#421=FACE_BOUND('',#379,.T.);
#422=FACE_BOUND('',#380,.T.);
#423=FACE_BOUND('',#381,.T.);
#424=FACE_BOUND('',#382,.T.);
#425=FACE_BOUND('',#383,.T.);
#426=FACE_BOUND('',#384,.T.);
#427=FACE_BOUND('',#385,.T.);
#428=FACE_BOUND('',#386,.T.);
#429=FACE_BOUND('',#387,.T.);
#430=FACE_BOUND('',#388,.T.);
#431=FACE_BOUND('',#389,.T.);
#432=FACE_BOUND('',#390,.T.);
#433=FACE_BOUND('',#391,.T.);
#434=FACE_BOUND('',#392,.T.);
#435=FACE_BOUND('',#393,.T.);
#436=FACE_BOUND('',#394,.T.);
#437=FACE_BOUND('',#395,.T.);
#438=FACE_BOUND('',#396,.T.);
#439=FACE_BOUND('',#397,.T.);
#440=FACE_BOUND('',#398,.T.);
#441=FACE_BOUND('',#399,.T.);
#442=FACE_BOUND('',#400,.T.);
#443=FACE_BOUND('',#401,.T.);
#444=FACE_BOUND('',#402,.T.);
#445=FACE_BOUND('',#403,.T.);
#446=FACE_BOUND('',#404,.T.);
#447=FACE_BOUND('',#405,.T.);
#448=FACE_BOUND('',#406,.T.);
#449=FACE_BOUND('',#407,.T.);
#450=FACE_BOUND('',#408,.T.);
#451=FACE_BOUND('',#409,.T.);
#452=FACE_BOUND('',#410,.T.);
#453=FACE_BOUND('',#411,.T.);
#454=FACE_BOUND('',#412,.T.);
#455=FACE_BOUND('',#413,.T.);
#456=FACE_BOUND('',#414,.T.);
#457=PLANE('',#515);
#458=PLANE('',#516);
#459=PLANE('',#517);
#460=PLANE('',#518);
#461=PLANE('',#519);
#462=PLANE('',#520);
#463=PLANE('',#521);
#464=PLANE('',#522);
#465=PLANE('',#532);
#466=PLANE('',#533);
#467=PLANE('',#534);
#468=PLANE('',#535);
#469=PLANE('',#538);
#470=PLANE('',#539);
#471=PLANE('',#540);
#472=PLANE('',#541);
#473=PLANE('',#542);
#474=PLANE('',#543);
#475=PLANE('',#545);
#476=PLANE('',#546);
#477=ADVANCED_FACE('',(#415),#457,.T.);
#478=ADVANCED_FACE('',(#416),#458,.T.);
#479=ADVANCED_FACE('',(#417),#459,.T.);
#480=ADVANCED_FACE('',(#418),#460,.F.);
#481=ADVANCED_FACE('',(#419),#461,.F.);
#482=ADVANCED_FACE('',(#420),#462,.F.);
#483=ADVANCED_FACE('',(#421),#463,.F.);
#484=ADVANCED_FACE('',(#422),#464,.T.);
#485=ADVANCED_FACE('',(#423,#424),#22,.F.);
#486=ADVANCED_FACE('',(#425,#426),#23,.F.);
#487=ADVANCED_FACE('',(#427,#428),#24,.F.);
#488=ADVANCED_FACE('',(#429),#465,.T.);
#489=ADVANCED_FACE('',(#430),#466,.T.);
#490=ADVANCED_FACE('',(#431,#432,#433,#434,#435),#467,.T.);
#491=ADVANCED_FACE('',(#436,#437,#438,#439,#440,#441,#442),#468,.F.);
#492=ADVANCED_FACE('',(#443),#469,.T.);
#493=ADVANCED_FACE('',(#444),#470,.F.);
#494=ADVANCED_FACE('',(#445),#471,.F.);
#495=ADVANCED_FACE('',(#446),#472,.T.);
#496=ADVANCED_FACE('',(#447),#473,.T.);
#497=ADVANCED_FACE('',(#448,#449),#474,.T.);
#498=ADVANCED_FACE('',(#450),#475,.T.);
#499=ADVANCED_FACE('',(#451,#452),#476,.T.);
#500=ADVANCED_FACE('',(#453,#454),#25,.F.);
#501=ADVANCED_FACE('',(#455,#456),#26,.F.);
#502=CLOSED_SHELL('',(#477,#478,#479,#480,#481,#482,#483,#484,#485,#486,
#487,#488,#489,#490,#491,#492,#493,#494,#495,#496,#497,#498,#499,#500,#501));
#503=STYLED_ITEM('',(#504),#511);
#504=PRESENTATION_STYLE_ASSIGNMENT((#505));
#505=SURFACE_STYLE_USAGE(.BOTH.,#506);
#506=SURFACE_SIDE_STYLE('',(#507));
#507=SURFACE_STYLE_FILL_AREA(#508);
#508=FILL_AREA_STYLE('',(#509));
#509=FILL_AREA_STYLE_COLOUR('',#510);
#510=COLOUR_RGB('',0.615686274509804,0.811764705882353,0.929411764705882);
#511=MANIFOLD_SOLID_BREP('Case-bottom',#502);
#512=SHAPE_DEFINITION_REPRESENTATION(#818,#513);
#513=SHAPE_REPRESENTATION('Case-bottom',(#514),#813);
#514=AXIS2_PLACEMENT_3D('',#676,#550,#551);
#515=AXIS2_PLACEMENT_3D('',#677,#552,#553);
#516=AXIS2_PLACEMENT_3D('',#686,#558,#559);
#517=AXIS2_PLACEMENT_3D('',#703,#568,#569);
#518=AXIS2_PLACEMENT_3D('',#712,#574,#575);
#519=AXIS2_PLACEMENT_3D('',#718,#579,#580);
#520=AXIS2_PLACEMENT_3D('',#724,#584,#585);
#521=AXIS2_PLACEMENT_3D('',#738,#593,#594);
#522=AXIS2_PLACEMENT_3D('',#745,#599,#600);
#523=AXIS2_PLACEMENT_3D('',#749,#603,#604);
#524=AXIS2_PLACEMENT_3D('',#750,#605,#606);
#525=AXIS2_PLACEMENT_3D('',#752,#607,#608);
#526=AXIS2_PLACEMENT_3D('',#754,#609,#610);
#527=AXIS2_PLACEMENT_3D('',#755,#611,#612);
#528=AXIS2_PLACEMENT_3D('',#757,#613,#614);
#529=AXIS2_PLACEMENT_3D('',#759,#615,#616);
#530=AXIS2_PLACEMENT_3D('',#760,#617,#618);
#531=AXIS2_PLACEMENT_3D('',#762,#619,#620);
#532=AXIS2_PLACEMENT_3D('',#764,#621,#622);
#533=AXIS2_PLACEMENT_3D('',#769,#626,#627);
#534=AXIS2_PLACEMENT_3D('',#772,#630,#631);
#535=AXIS2_PLACEMENT_3D('',#781,#636,#637);
#536=AXIS2_PLACEMENT_3D('',#782,#638,#639);
#537=AXIS2_PLACEMENT_3D('',#784,#640,#641);
#538=AXIS2_PLACEMENT_3D('',#786,#642,#643);
#539=AXIS2_PLACEMENT_3D('',#789,#646,#647);
#540=AXIS2_PLACEMENT_3D('',#794,#651,#652);
#541=AXIS2_PLACEMENT_3D('',#796,#654,#655);
#542=AXIS2_PLACEMENT_3D('',#800,#658,#659);
#543=AXIS2_PLACEMENT_3D('',#802,#661,#662);
#544=AXIS2_PLACEMENT_3D('',#803,#663,#664);
#545=AXIS2_PLACEMENT_3D('',#805,#665,#666);
#546=AXIS2_PLACEMENT_3D('',#807,#668,#669);
#547=AXIS2_PLACEMENT_3D('',#808,#670,#671);
#548=AXIS2_PLACEMENT_3D('',#810,#672,#673);
#549=AXIS2_PLACEMENT_3D('',#811,#674,#675);
#550=DIRECTION('',(0.,0.,1.));
#551=DIRECTION('',(1.,0.,0.));
#552=DIRECTION('',(0.,0.,1.));
#553=DIRECTION('',(1.,0.,0.));
#554=DIRECTION('',(1.,0.,0.));
#555=DIRECTION('',(0.,-1.,0.));
#556=DIRECTION('',(1.,0.,0.));
#557=DIRECTION('',(4.40285146187007E-16,-1.,0.));
#558=DIRECTION('',(0.,0.,1.));
#559=DIRECTION('',(1.,0.,0.));
#560=DIRECTION('',(0.,1.,0.));
#561=DIRECTION('',(1.,0.,0.));
#562=DIRECTION('',(0.,-1.,0.));
#563=DIRECTION('',(1.,0.,0.));
#564=DIRECTION('',(0.,1.,0.));
#565=DIRECTION('',(1.,0.,0.));
#566=DIRECTION('',(0.,-1.,0.));
#567=DIRECTION('',(1.,0.,0.));
#568=DIRECTION('',(1.,4.19173534933609E-17,0.));
#569=DIRECTION('',(-4.19173534933609E-17,1.,0.));
#570=DIRECTION('',(4.19173534933609E-17,-1.,0.));
#571=DIRECTION('',(0.,0.,-1.));
#572=DIRECTION('',(4.19173534933609E-17,-1.,0.));
#573=DIRECTION('',(0.,0.,-1.));
#574=DIRECTION('',(0.,1.,0.));
#575=DIRECTION('',(0.,0.,1.));
#576=DIRECTION('',(1.,0.,0.));
#577=DIRECTION('',(0.,0.,-1.));
#578=DIRECTION('',(1.,0.,0.));
#579=DIRECTION('',(1.,8.38347069867218E-17,0.));
#580=DIRECTION('',(-8.38347069867218E-17,1.,0.));
#581=DIRECTION('',(8.38347069867218E-17,-1.,0.));
#582=DIRECTION('',(0.,0.,-1.));
#583=DIRECTION('',(8.38347069867218E-17,-1.,0.));
#584=DIRECTION('',(1.,0.,0.));
#585=DIRECTION('',(0.,0.,-1.));
#586=DIRECTION('',(0.,0.,-1.));
#587=DIRECTION('',(8.67361737988404E-17,-1.,0.));
#588=DIRECTION('',(0.,0.,-1.));
#589=DIRECTION('',(0.,0.,-1.));
#590=DIRECTION('',(0.,-1.,0.));
#591=DIRECTION('',(0.,0.,-1.));
#592=DIRECTION('',(0.,-1.,0.));
#593=DIRECTION('',(0.,1.,0.));
#594=DIRECTION('',(0.,0.,1.));
#595=DIRECTION('',(0.,0.,-1.));
#596=DIRECTION('',(1.,0.,0.));
#597=DIRECTION('',(1.,0.,0.));
#598=DIRECTION('',(0.,0.,-1.));
#599=DIRECTION('',(1.,0.,0.));
#600=DIRECTION('',(0.,0.,-1.));
#601=DIRECTION('',(0.,-1.,0.));
#602=DIRECTION('',(0.,0.,-1.));
#603=DIRECTION('',(0.,0.,-1.));
#604=DIRECTION('',(-1.,0.,0.));
#605=DIRECTION('',(0.,0.,1.));
#606=DIRECTION('',(1.,0.,0.));
#607=DIRECTION('',(0.,0.,1.));
#608=DIRECTION('',(1.,0.,0.));
#609=DIRECTION('',(0.,0.,-1.));
#610=DIRECTION('',(-1.,0.,0.));
#611=DIRECTION('',(0.,0.,1.));
#612=DIRECTION('',(1.,0.,0.));
#613=DIRECTION('',(0.,0.,1.));
#614=DIRECTION('',(1.,0.,0.));
#615=DIRECTION('',(0.,0.,-1.));
#616=DIRECTION('',(-1.,0.,0.));
#617=DIRECTION('',(0.,0.,1.));
#618=DIRECTION('',(1.,0.,0.));
#619=DIRECTION('',(0.,0.,1.));
#620=DIRECTION('',(1.,0.,0.));
#621=DIRECTION('',(0.,1.,0.));
#622=DIRECTION('',(0.,0.,1.));
#623=DIRECTION('',(1.,0.,0.));
#624=DIRECTION('',(1.,0.,0.));
#625=DIRECTION('',(0.,0.,-1.));
#626=DIRECTION('',(0.,1.,0.));
#627=DIRECTION('',(0.,0.,1.));
#628=DIRECTION('',(1.,0.,0.));
#629=DIRECTION('',(1.,0.,0.));
#630=DIRECTION('',(0.,0.,1.));
#631=DIRECTION('',(1.,0.,0.));
#632=DIRECTION('',(-4.40285146187007E-16,1.,0.));
#633=DIRECTION('',(-1.,0.,0.));
#634=DIRECTION('',(0.,1.,0.));
#635=DIRECTION('',(-1.,0.,0.));
#636=DIRECTION('',(0.,0.,1.));
#637=DIRECTION('',(1.,0.,0.));
#638=DIRECTION('',(0.,0.,1.));
#639=DIRECTION('',(1.,0.,0.));
#640=DIRECTION('',(0.,0.,1.));
#641=DIRECTION('',(1.,0.,0.));
#642=DIRECTION('',(1.,4.40285146187007E-16,0.));
#643=DIRECTION('',(-4.40285146187007E-16,1.,0.));
#644=DIRECTION('',(0.,0.,-1.));
#645=DIRECTION('',(0.,0.,-1.));
#646=DIRECTION('',(0.,1.,0.));
#647=DIRECTION('',(0.,0.,1.));
#648=DIRECTION('',(0.,0.,-1.));
#649=DIRECTION('',(-1.,0.,0.));
#650=DIRECTION('',(0.,0.,-1.));
#651=DIRECTION('',(1.,0.,0.));
#652=DIRECTION('',(0.,0.,-1.));
#653=DIRECTION('',(0.,0.,-1.));
#654=DIRECTION('',(0.,1.,0.));
#655=DIRECTION('',(0.,0.,1.));
#656=DIRECTION('',(-1.,0.,0.));
#657=DIRECTION('',(0.,0.,-1.));
#658=DIRECTION('',(1.,0.,0.));
#659=DIRECTION('',(0.,0.,-1.));
#660=DIRECTION('',(0.,-1.,0.));
#661=DIRECTION('',(0.,0.,1.));
#662=DIRECTION('',(1.,0.,0.));
#663=DIRECTION('',(0.,0.,1.));
#664=DIRECTION('',(1.,0.,0.));
#665=DIRECTION('',(1.,0.,0.));
#666=DIRECTION('',(0.,0.,-1.));
#667=DIRECTION('',(0.,-1.,0.));
#668=DIRECTION('',(0.,0.,1.));
#669=DIRECTION('',(1.,0.,0.));
#670=DIRECTION('',(0.,0.,1.));
#671=DIRECTION('',(1.,0.,0.));
#672=DIRECTION('',(0.,0.,1.));
#673=DIRECTION('',(1.,0.,0.));
#674=DIRECTION('',(0.,0.,1.));
#675=DIRECTION('',(1.,0.,0.));
#676=CARTESIAN_POINT('',(0.,0.,0.));
#677=CARTESIAN_POINT('',(0.0734714418649674,0.012413842705512,0.00381));
#678=CARTESIAN_POINT('',(0.0734714418649674,0.0638592132055121,0.00381));
#679=CARTESIAN_POINT('',(0.00260430936496733,0.0638592132055121,0.00381));
#680=CARTESIAN_POINT('',(0.00760810936496734,0.0638592132055121,0.00381));
#681=CARTESIAN_POINT('',(0.00260430936496733,0.0663611132055121,0.00381));
#682=CARTESIAN_POINT('',(0.00260430936496733,-0.0390353277944879,0.00381));
#683=CARTESIAN_POINT('',(0.0734714418649674,-0.0390353277944879,0.00381));
#684=CARTESIAN_POINT('',(0.00760810936496734,-0.0390353277944879,0.00381));
#685=CARTESIAN_POINT('',(0.00760810936496733,0.0628742132055121,0.00381));
#686=CARTESIAN_POINT('',(0.0734714418649674,0.012413842705512,0.00381));
#687=CARTESIAN_POINT('',(0.0532143593649673,0.012413842705512,0.00381));
#688=CARTESIAN_POINT('',(0.0532143593649673,0.0638592132055121,0.00381));
#689=CARTESIAN_POINT('',(0.0532143593649673,0.0688630132055121,0.00381));
#690=CARTESIAN_POINT('',(0.0304112343649674,0.0638592132055121,0.00381));
#691=CARTESIAN_POINT('',(0.139334774364967,0.0638592132055121,0.00381));
#692=CARTESIAN_POINT('',(0.139334774364967,0.012411942705512,0.00381));
#693=CARTESIAN_POINT('',(0.139334774364967,-0.0390353277944879,0.00381));
#694=CARTESIAN_POINT('',(0.112766441864967,-0.0390353277944879,0.00381));
#695=CARTESIAN_POINT('',(0.0538906093649673,-0.0390353277944879,0.00381));
#696=CARTESIAN_POINT('',(0.0538906093649673,0.012413842705512,0.00381));
#697=CARTESIAN_POINT('',(0.0538906093649673,-0.044035327794488,0.00381));
#698=CARTESIAN_POINT('',(0.115268341864967,-0.044035327794488,0.00381));
#699=CARTESIAN_POINT('',(0.144338574364967,-0.044035327794488,0.00381));
#700=CARTESIAN_POINT('',(0.144338574364967,0.012413842705512,0.00381));
#701=CARTESIAN_POINT('',(0.144338574364967,0.0688630132055121,0.00381));
#702=CARTESIAN_POINT('',(0.0279093343649674,0.0688630132055121,0.00381));
#703=CARTESIAN_POINT('',(0.0101106093649673,0.00812483820551205,0.00254));
#704=CARTESIAN_POINT('',(0.0101106093649673,0.00812483820551205,0.));
#705=CARTESIAN_POINT('',(0.0101106093649673,0.0495092132055121,0.));
#706=CARTESIAN_POINT('',(0.0101106093649673,-0.033259536794488,0.));
#707=CARTESIAN_POINT('',(0.0101106093649673,0.0495092132055121,0.00254));
#708=CARTESIAN_POINT('',(0.0101106093649673,0.0495092132055121,0.00254));
#709=CARTESIAN_POINT('',(0.0101106093649673,0.00812483820551205,0.00254));
#710=CARTESIAN_POINT('',(0.0101106093649673,-0.033259536794488,0.00254));
#711=CARTESIAN_POINT('',(0.0101106093649673,-0.033259536794488,0.00254));
#712=CARTESIAN_POINT('',(0.0157706093649673,0.0495092132055121,0.00254));
#713=CARTESIAN_POINT('',(0.0157706093649673,0.0495092132055121,0.));
#714=CARTESIAN_POINT('',(0.0214306093649673,0.0495092132055121,0.));
#715=CARTESIAN_POINT('',(0.0214306093649673,0.0495092132055121,0.00254));
#716=CARTESIAN_POINT('',(0.0214306093649673,0.0495092132055121,0.00254));
#717=CARTESIAN_POINT('',(0.0157706093649673,0.0495092132055121,0.00254));
#718=CARTESIAN_POINT('',(0.0214306093649673,0.00812483820551205,0.00254));
#719=CARTESIAN_POINT('',(0.0214306093649673,0.00812483820551205,0.));
#720=CARTESIAN_POINT('',(0.0214306093649673,-0.033259536794488,0.));
#721=CARTESIAN_POINT('',(0.0214306093649673,-0.033259536794488,0.00254));
#722=CARTESIAN_POINT('',(0.0214306093649673,-0.033259536794488,0.00254));
#723=CARTESIAN_POINT('',(0.0214306093649673,0.00812483820551205,0.00254));
#724=CARTESIAN_POINT('',(0.00260430936496733,0.0663611132055121,0.00254));
#725=CARTESIAN_POINT('',(0.00260430936496733,-0.044035327794488,0.00254));
#726=CARTESIAN_POINT('',(0.00260430936496733,-0.044035327794488,0.014605));
#727=CARTESIAN_POINT('',(0.00260430936496733,-0.044035327794488,0.));
#728=CARTESIAN_POINT('',(0.00260430936496734,-0.041535327794488,0.014605));
#729=CARTESIAN_POINT('',(0.00260430936496734,-0.0390353277944879,0.014605));
#730=CARTESIAN_POINT('',(0.00260430936496734,-0.0390353277944879,0.014605));
#731=CARTESIAN_POINT('',(0.00260430936496733,0.0638592132055121,0.014605));
#732=CARTESIAN_POINT('',(0.00260430936496733,0.0638592132055121,0.014605));
#733=CARTESIAN_POINT('',(0.00260430936496733,0.0663611132055121,0.014605));
#734=CARTESIAN_POINT('',(0.00260430936496733,0.0688630132055121,0.014605));
#735=CARTESIAN_POINT('',(0.00260430936496733,0.0688630132055121,0.00254));
#736=CARTESIAN_POINT('',(0.00260430936496733,0.0688630132055121,0.));
#737=CARTESIAN_POINT('',(0.00260430936496733,0.0663611132055121,0.));
#738=CARTESIAN_POINT('',(0.115268341864967,-0.044035327794488,0.00254));
#739=CARTESIAN_POINT('',(0.0538906093649673,-0.044035327794488,0.014605));
#740=CARTESIAN_POINT('',(0.0538906093649673,-0.044035327794488,0.014605));
#741=CARTESIAN_POINT('',(0.0282474593649674,-0.044035327794488,0.014605));
#742=CARTESIAN_POINT('',(0.115268341864967,-0.044035327794488,0.));
#743=CARTESIAN_POINT('',(0.144338574364967,-0.044035327794488,0.));
#744=CARTESIAN_POINT('',(0.144338574364967,-0.044035327794488,0.00254));
#745=CARTESIAN_POINT('',(0.144338574364967,0.012413842705512,0.00254));
#746=CARTESIAN_POINT('',(0.144338574364967,0.012413842705512,0.));
#747=CARTESIAN_POINT('',(0.144338574364967,0.0688630132055121,0.));
#748=CARTESIAN_POINT('',(0.144338574364967,0.0688630132055121,0.00254));
#749=CARTESIAN_POINT('',(0.0263526973649673,-0.0337407867944879,0.00254));
#750=CARTESIAN_POINT('',(0.0263526973649673,-0.0337407867944879,0.00254));
#751=CARTESIAN_POINT('',(0.0293581093649673,-0.0337407867944879,0.00254));
#752=CARTESIAN_POINT('',(0.0263526973649673,-0.0337407867944879,0.));
#753=CARTESIAN_POINT('',(0.0293581093649673,-0.0337407867944879,0.));
#754=CARTESIAN_POINT('',(0.132916081864318,-0.032485374794488,0.00254));
#755=CARTESIAN_POINT('',(0.132916081864318,-0.032485374794488,0.00254));
#756=CARTESIAN_POINT('',(0.135916081864318,-0.032485374794488,0.00254));
#757=CARTESIAN_POINT('',(0.132916081864318,-0.032485374794488,0.));
#758=CARTESIAN_POINT('',(0.135916081864318,-0.032485374794488,0.));
#759=CARTESIAN_POINT('',(0.132813842127806,0.0411153443766434,0.00254));
#760=CARTESIAN_POINT('',(0.132813842127806,0.0411153443766434,0.00254));
#761=CARTESIAN_POINT('',(0.135813842127806,0.0411153443766434,0.00254));
#762=CARTESIAN_POINT('',(0.132813842127806,0.0411153443766434,0.));
#763=CARTESIAN_POINT('',(0.135813842127806,0.0411153443766434,0.));
#764=CARTESIAN_POINT('',(0.0279093343649674,0.0688630132055121,0.00254));
#765=CARTESIAN_POINT('',(0.0279093343649674,0.0688630132055121,0.));
#766=CARTESIAN_POINT('',(0.0279093343649674,0.0688630132055121,0.014605));
#767=CARTESIAN_POINT('',(0.0532143593649673,0.0688630132055121,0.014605));
#768=CARTESIAN_POINT('',(0.0532143593649673,0.0688630132055121,0.014605));
#769=CARTESIAN_POINT('',(0.0157706093649673,-0.033259536794488,0.00254));
#770=CARTESIAN_POINT('',(0.0157706093649673,-0.033259536794488,0.));
#771=CARTESIAN_POINT('',(0.0157706093649673,-0.033259536794488,0.00254));
#772=CARTESIAN_POINT('',(0.0734714418649674,0.012413842705512,0.00254));
#773=CARTESIAN_POINT('',(0.00760810936496736,0.012413842705512,0.00254));
#774=CARTESIAN_POINT('',(0.00760810936496734,-0.0390353277944879,0.00254));
#775=CARTESIAN_POINT('',(0.00760810936496734,0.0638592132055121,0.00254));
#776=CARTESIAN_POINT('',(0.0734714418649674,-0.0390353277944879,0.00254));
#777=CARTESIAN_POINT('',(0.139334774364967,-0.0390353277944879,0.00254));
#778=CARTESIAN_POINT('',(0.139334774364967,0.012413842705512,0.00254));
#779=CARTESIAN_POINT('',(0.139334774364967,0.0638592132055121,0.00254));
#780=CARTESIAN_POINT('',(0.0734714418649674,0.0638592132055121,0.00254));
#781=CARTESIAN_POINT('',(0.0734714418649674,0.012413842705512,0.));
#782=CARTESIAN_POINT('',(0.0279093343649674,-0.041535327794488,0.));
#783=CARTESIAN_POINT('',(0.0299093343649674,-0.041535327794488,0.));
#784=CARTESIAN_POINT('',(0.0279093343649674,0.0663611132055121,0.));
#785=CARTESIAN_POINT('',(0.0299093343649674,0.0663611132055121,0.));
#786=CARTESIAN_POINT('',(0.00760810936496733,0.0628742132055121,0.00381));
#787=CARTESIAN_POINT('',(0.00760810936496734,-0.0390353277944879,0.00381));
#788=CARTESIAN_POINT('',(0.00760810936496734,0.0638592132055121,0.00381));
#789=CARTESIAN_POINT('',(0.0304112343649674,0.0638592132055121,0.00381));
#790=CARTESIAN_POINT('',(0.0532143593649673,0.063859213205512,0.014605));
#791=CARTESIAN_POINT('',(0.0532143593649673,0.063859213205512,0.014605));
#792=CARTESIAN_POINT('',(0.00510620936496733,0.0638592132055121,0.014605));
#793=CARTESIAN_POINT('',(0.139334774364967,0.0638592132055121,0.00381));
#794=CARTESIAN_POINT('',(0.139334774364967,0.012411942705512,0.00381));
#795=CARTESIAN_POINT('',(0.139334774364967,-0.0390353277944879,0.00381));
#796=CARTESIAN_POINT('',(0.112766441864967,-0.0390353277944879,0.00381));
#797=CARTESIAN_POINT('',(0.00510620936496734,-0.0390353277944879,0.014605));
#798=CARTESIAN_POINT('',(0.0538906093649673,-0.0390353277944879,0.014605));
#799=CARTESIAN_POINT('',(0.0538906093649673,-0.0390353277944879,0.014605));
#800=CARTESIAN_POINT('',(0.0538906093649673,-0.041535327794488,0.014605));
#801=CARTESIAN_POINT('',(0.0538906093649673,-0.041535327794488,0.014605));
#802=CARTESIAN_POINT('',(0.0734714418649674,0.012413842705512,0.014605));
#803=CARTESIAN_POINT('',(0.0279093343649674,-0.041535327794488,0.014605));
#804=CARTESIAN_POINT('',(0.0299093343649674,-0.041535327794488,0.014605));
#805=CARTESIAN_POINT('',(0.0532143593649673,0.0663611132055121,0.014605));
#806=CARTESIAN_POINT('',(0.0532143593649673,0.0663611132055121,0.014605));
#807=CARTESIAN_POINT('',(0.0734714418649674,0.012413842705512,0.014605));
#808=CARTESIAN_POINT('',(0.0279093343649674,0.0663611132055121,0.014605));
#809=CARTESIAN_POINT('',(0.0299093343649674,0.0663611132055121,0.014605));
#810=CARTESIAN_POINT('',(0.0279093343649674,0.0663611132055121,-0.010795));
#811=CARTESIAN_POINT('',(0.0279093343649674,-0.041535327794488,-0.010795));
#812=MECHANICAL_DESIGN_GEOMETRIC_PRESENTATION_REPRESENTATION('',(#503),
#813);
#813=(
GEOMETRIC_REPRESENTATION_CONTEXT(3)
GLOBAL_UNCERTAINTY_ASSIGNED_CONTEXT((#814))
GLOBAL_UNIT_ASSIGNED_CONTEXT((#817,#816,#815))
REPRESENTATION_CONTEXT('Case-bottom','TOP_LEVEL_ASSEMBLY_PART')
);
#814=UNCERTAINTY_MEASURE_WITH_UNIT(LENGTH_MEASURE(1.E-8),#817,
'DISTANCE_ACCURACY_VALUE','Maximum Tolerance applied to model');
#815=(
NAMED_UNIT(*)
SI_UNIT($,.STERADIAN.)
SOLID_ANGLE_UNIT()
);
#816=(
NAMED_UNIT(*)
PLANE_ANGLE_UNIT()
SI_UNIT($,.RADIAN.)
);
#817=(
LENGTH_UNIT()
NAMED_UNIT(*)
SI_UNIT($,.METRE.)
);
#818=PRODUCT_DEFINITION_SHAPE('','',#819);
#819=PRODUCT_DEFINITION('','',#821,#820);
#820=PRODUCT_DEFINITION_CONTEXT('',#827,'design');
#821=PRODUCT_DEFINITION_FORMATION_WITH_SPECIFIED_SOURCE('','',#823,
 .NOT_KNOWN.);
#822=PRODUCT_RELATED_PRODUCT_CATEGORY('','',(#823));
#823=PRODUCT('Case-bottom','Case-bottom','Case-bottom',(#825));
#824=PRODUCT_CATEGORY('','');
#825=PRODUCT_CONTEXT('',#827,'mechanical');
#826=APPLICATION_PROTOCOL_DEFINITION('international standard',
'ap242_managed_model_based_3d_engineering',2020,#827);
#827=APPLICATION_CONTEXT('managed model based 3d engineering');
ENDSEC;
END-ISO-10303-21;
